SplineFontDB: 3.2
FontName: AmiriLatin-Bold
FullName: Amiri Latin Bold
FamilyName: Amiri Latin
Weight: Bold
Copyright: Copyright (c) 2010, Sebastian Kosch (sebastian@aldusleaf.org).\nCopyright (c) 2012-2014 Khaled Hosny (khaledhosny@eglug.org).\n\nThis Font Software is licensed under the Open Font License, Version 1.1.
Version: 0.8
ItalicAngle: 0
UnderlinePosition: -102
UnderlineWidth: 51
Ascent: 800
Descent: 200
InvalidEm: 0
LayerCount: 2
Layer: 0 0 "Back" 1
Layer: 1 0 "Fore" 0
FSType: 0
OS2Version: 0
OS2_WeightWidthSlopeOnly: 0
OS2_UseTypoMetrics: 1
CreationTime: 1273891947
ModificationTime: 1589745668
PfmFamily: 17
TTFWeight: 700
TTFWidth: 5
LineGap: 90
VLineGap: 0
OS2TypoAscent: 700
OS2TypoAOffset: 0
OS2TypoDescent: -300
OS2TypoDOffset: 0
OS2TypoLinegap: 90
OS2WinAscent: 0
OS2WinAOffset: 1
OS2WinDescent: 0
OS2WinDOffset: 1
HheadAscent: 700
HheadAOffset: 0
HheadDescent: -300
HheadDOffset: 0
OS2SubXSize: 649
OS2SubYSize: 699
OS2SubXOff: 0
OS2SubYOff: 140
OS2SupXSize: 649
OS2SupYSize: 699
OS2SupXOff: 0
OS2SupYOff: 479
OS2StrikeYSize: 50
OS2StrikeYPos: 259
OS2Vendor: 'PfEd'
Lookup: 1 0 0 "'ccmp' Turkish i" { "'ccmp' Turkish i-1"  } ['ccmp' ('latn' <'TRK ' > ) ]
Lookup: 1 0 0 "'smcp' Lowercase to Small Capitals in Latin lookup 0" { "'smcp' Lowercase to Small Capitals in Latin lookup 0 subtable" ("sc") } ['smcp' ('DFLT' <'dflt' > 'latn' <'TRK ' 'dflt' > ) ]
Lookup: 1 0 0 "'c2sc' Capitals to Small Capitals in Latin lookup 0" { "'c2sc' Capitals to Small Capitals in Latin lookup 0 subtable"  } ['c2sc' ('DFLT' <'dflt' > 'latn' <'TRK ' 'dflt' > ) ]
Lookup: 4 0 1 "'liga' Standard Ligatures lookup 0" { "'liga' Standard Ligatures lookup 0-1"  } ['liga' ('DFLT' <'dflt' > 'latn' <'TRK ' 'dflt' > ) ]
Lookup: 258 0 0 "'kern' Horizontal Kerning in Latin lookup 0" { "'kern' Horizontal Kerning in Latin lookup 0 kerning class 1" [153,0,0] } ['kern' ('DFLT' <'dflt' > 'latn' <'TRK ' 'dflt' > ) ]
MarkAttachClasses: 1
DEI: 91125

StartChar: exclam
Encoding: 33 33 1
Width: 263
Flags: W
HStem: -11 146<79 182> 607 20G<117 150>
VStem: 58 146<12 113> 70 125<362 612>
LayerCount: 2
Fore
SplineSet
58 64 m 0xe0
 58 103 91 136 131 136 c 27
 172 136 204 101 204 62 c 0
 204 23 172 -11 132 -11 c 27
 91 -11 58 22 58 64 c 0xe0
135 627 m 0
 165 627 195 603 195 561 c 0
 195 534 167 302 154 216 c 1
 150 203 147 194 135 190 c 1
 130 190 118 197 112 207 c 1
 101 272 70 512 70 562 c 0xd0
 70 603 100 627 135 627 c 0
EndSplineSet
Substitution2: "'smcp' Lowercase to Small Capitals in Latin lookup 0 subtable" exclam.sc
EndChar

StartChar: quotedbl
Encoding: 34 34 2
Width: 323
Flags: W
HStem: 421 263<73 109 230 265>
VStem: 35 91<496 662> 191 91<496 662>
LayerCount: 2
Fore
SplineSet
252 684 m 0
 266 684 273 680 282 668 c 1
 282 635 273 504 266 443 c 1
 262 436 251 426 242 421 c 1
 238 421 234 424 232 429 c 1
 208 512 191 571 191 603 c 0
 191 635 215 684 252 684 c 0
96 684 m 0
 110 684 117 680 126 668 c 1
 126 635 116 504 109 443 c 1
 105 436 95 426 86 421 c 1
 82 421 78 424 76 429 c 1
 52 512 35 571 35 603 c 0
 35 635 59 684 96 684 c 0
EndSplineSet
EndChar

StartChar: numbersign
Encoding: 35 35 3
Width: 463
UnlinkRmOvrlpSave: 1
Flags: W
HStem: 145 65<60 377> 331 65<86 405>
LayerCount: 2
Fore
SplineSet
399 331 m 1
 244 331 243 331 77 331 c 1
 65 331 80 392 93 396 c 9
 411 396 l 17
 425 396 412 337 399 331 c 1
371 145 m 1
 216 145 216 145 50 145 c 1
 38 145 54 206 67 210 c 9
 385 210 l 17
 399 210 384 151 371 145 c 1
370 516 m 1
 293 35 l 2
 292 31 278 22 263 22 c 0
 253 22 252 26 252 26 c 1
 329 506 l 1
 332 515 339 519 358 519 c 0
 367 519 367 518 370 516 c 1
213 516 m 1
 135 35 l 2
 134 31 121 22 106 22 c 0
 96 22 95 26 95 26 c 1
 172 506 l 1
 175 515 181 519 200 519 c 0
 209 519 210 518 213 516 c 1
EndSplineSet
EndChar

StartChar: dollar
Encoding: 36 36 4
Width: 505
UnlinkRmOvrlpSave: 1
Flags: W
HStem: -10 39<217 302> 439 21G<415 418> 587 39<208 273> 633 20G<278 285>
VStem: 53 39<128 185> 60 124<451 531> 170 38<-35 4> 281 38<609 649> 334 123<86 180> 388 38<439 502>
LayerCount: 2
Fore
SplineSet
259 626 m 0xf580
 314 626 359 612 416 600 c 1
 421 550 423 501 426 444 c 1
 423 440 420 439 416 439 c 0
 413 439 390 437 388 445 c 0
 380 498 336 587 264 587 c 0
 228 587 184 568 184 506 c 0xf540
 184 448 257 392 319 353 c 0
 381 313 457 287 457 163 c 0
 457 60 356 -10 253 -10 c 0
 198 -10 131 2 75 15 c 1
 65 56 55 148 53 174 c 1
 57 180 75 187 80 187 c 0
 87 187 91 185 92 179 c 0xf980
 101 128 159 29 243 29 c 0
 278 29 334 46 334 121 c 0
 334 194 243 243 196 275 c 0
 128 321 60 359 60 457 c 0
 60 554 162 626 259 626 c 0xf580
281 652 m 17
 289 652 319 652 319 645 c 9
 208 -39 l 17
 199 -39 170 -37 170 -30 c 9xf3
 281 652 l 17
EndSplineSet
EndChar

StartChar: percent
Encoding: 37 37 5
Width: 669
Flags: W
HStem: 0 30<456 520> 268 29<441 505> 329 30<166 230> 597 29<151 215>
VStem: 38 93<399 552> 251 93<403 557> 328 93<69 223> 541 93<74 228>
LayerCount: 2
Fore
SplineSet
183 597 m 3xfd
 135 597 131 535 131 488 c 24
 131 431 150 359 198 359 c 3
 246 359 251 420 251 466 c 24
 251 524 231 597 183 597 c 3xfd
190 626 m 0
 280 626 344 563 344 480 c 0
 344 398 277 329 191 329 c 0
 100 329 38 394 38 476 c 0
 38 558 104 626 190 626 c 0
473 268 m 3
 425 268 421 206 421 159 c 24xfb
 421 102 440 30 488 30 c 3
 536 30 541 91 541 137 c 24
 541 195 521 268 473 268 c 3
480 297 m 0
 570 297 634 234 634 151 c 0
 634 69 567 0 481 0 c 0
 390 0 328 64 328 146 c 0
 328 228 394 297 480 297 c 0
608 620 m 1
 104 -5 l 2
 100 -11 81 -20 64 -20 c 0
 49 -20 50 -8 50 -8 c 1
 554 617 l 1
 562 624 576 630 593 630 c 0
 602 630 608 625 608 620 c 1
EndSplineSet
EndChar

StartChar: ampersand
Encoding: 38 38 6
Width: 679
Flags: W
HStem: -4 74<191 339> -3 81<480 560> 273 31<469 518 595 664> 595 35<270 337>
VStem: 55 127<135 242> 136 113<437 560> 360 101<445 574>
LayerCount: 2
Fore
SplineSet
373 93 m 1xba
 346 130 253 258 219 306 c 1
 198 287 182 260 182 215 c 0
 182 151 222 70 311 70 c 0
 344 70 360 82 373 93 c 1xba
305 595 m 0
 271 595 249 561 249 514 c 0x36
 249 463 280 419 297 397 c 1
 340 419 360 456 360 501 c 0
 360 532 349 595 305 595 c 0
288 630 m 0
 387 630 461 585 461 517 c 0
 461 429 382 382 322 361 c 1
 349 325 429 217 459 177 c 1
 482 204 519 244 519 256 c 0
 519 278 478 271 471 273 c 1
 467 279 467 303 472 305 c 1
 538 304 l 2
 572 303 619 305 663 307 c 1
 667 305 667 280 661 274 c 1
 654 273 611 274 594 260 c 0
 580 249 512 169 486 142 c 1
 493 134 538 78 559 78 c 0
 586 78 610 116 621 130 c 1
 630 130 641 122 646 112 c 1
 642 100 568 -3 507 -3 c 3x76
 454 -3 426 28 399 59 c 1
 355 17 296 -4 231 -4 c 3
 150 -4 55 53 55 152 c 0xba
 55 266 138 313 191 346 c 1
 170 376 136 414 136 479 c 0
 136 567 196 630 288 630 c 0
EndSplineSet
EndChar

StartChar: quotesingle
Encoding: 39 39 7
Width: 176
Flags: W
HStem: 440 254<81 118>
VStem: 32 108<519 671>
LayerCount: 2
Fore
SplineSet
104 694 m 0
 120 694 134 688 141 673 c 1
 136 611 130 526 118 459 c 1
 114 453 104 444 93 440 c 1
 89 440 84 442 81 446 c 1
 60 503 32 566 32 612 c 0
 32 655 63 694 104 694 c 0
EndSplineSet
EndChar

StartChar: parenleft
Encoding: 40 40 8
Width: 284
Flags: W
VStem: 32 108<144 452>
LayerCount: 2
Fore
SplineSet
141 298 m 0
 141 72 236 -74 274 -107 c 1
 275 -110 271 -131 266 -134 c 1
 193 -101 32 35 32 298 c 0
 32 561 193 696 266 729 c 1
 271 726 275 706 274 703 c 1
 236 670 141 524 141 298 c 0
EndSplineSet
Substitution2: "'smcp' Lowercase to Small Capitals in Latin lookup 0 subtable" parenleft.sc
EndChar

StartChar: parenright
Encoding: 41 41 9
Width: 284
Flags: W
VStem: 144 108<144 452>
LayerCount: 2
Fore
SplineSet
252 298 m 0
 252 35 92 -101 19 -134 c 1
 14 -131 9 -110 10 -107 c 1
 48 -74 144 72 144 298 c 0
 144 524 48 670 10 703 c 1
 9 706 14 726 19 729 c 1
 92 696 252 561 252 298 c 0
EndSplineSet
Substitution2: "'smcp' Lowercase to Small Capitals in Latin lookup 0 subtable" parenright.sc
EndChar

StartChar: asterisk
Encoding: 42 42 10
Width: 430
Flags: W
HStem: 414 87<41 140>
VStem: 151 89<302 398>
LayerCount: 2
Fore
SplineSet
281 604 m 0
 302 627 333 625 348 611 c 0
 364 595 368 567 347 544 c 0
 316 509 279 520 252 494 c 1
 252 494 246 486 246 481 c 0
 246 477 248 476 253 474 c 0
 287 458 314 474 357 455 c 0
 385 443 394 412 385 393 c 0
 375 373 349 361 321 373 c 0
 278 392 277 429 244 447 c 1
 244 447 234 453 230 450 c 0
 228 449 227 448 226 442 c 0
 222 405 245 386 240 339 c 0
 237 309 210 291 190 293 c 0
 169 297 148 318 151 348 c 0
 156 395 191 407 198 444 c 1
 198 444 199 454 196 458 c 0
 195 460 193 460 187 459 c 0
 151 451 138 425 92 414 c 0
 62 407 38 427 34 447 c 0
 31 468 44 494 74 501 c 0
 120 512 142 481 180 486 c 1
 180 486 192 487 193 492 c 0
 194 495 192 498 189 503 c 0
 170 535 141 538 117 579 c 0
 101 605 112 636 130 646 c 0
 150 656 178 650 194 624 c 0
 218 583 195 553 212 519 c 1
 212 519 217 509 222 508 c 0
 224 508 227 508 231 512 c 0
 256 539 250 569 281 604 c 0
EndSplineSet
EndChar

StartChar: plus
Encoding: 43 43 11
Width: 529
Flags: W
HStem: 212 57<33 234 292 496>
VStem: 235 57<11 212 269 471>
LayerCount: 2
Fore
SplineSet
235 463 m 1
 246 472 272 474 276 474 c 0
 286 474 292 472 292 465 c 2
 291 269 l 1
 490 269 l 2
 496 269 499 261 499 255 c 0
 499 234 493 222 485 212 c 1
 292 212 l 1
 292 19 l 1
 280 11 256 8 246 8 c 0
 240 8 235 12 235 16 c 2
 235 212 l 1
 36 212 l 2
 31 212 30 218 30 228 c 0
 30 232 32 257 40 269 c 1
 234 269 l 1
 235 463 l 1
EndSplineSet
EndChar

StartChar: comma
Encoding: 44 44 12
Width: 218
Flags: W
HStem: -153 289
VStem: 88 85<-35 68>
LayerCount: 2
Fore
SplineSet
116 136 m 0
 133 136 148 128 159 120 c 1
 167 105 173 80 173 57 c 0
 173 -36 107 -119 39 -153 c 1
 28 -150 19 -136 19 -130 c 1
 38 -118 88 -74 88 -26 c 0
 88 6 41 3 41 66 c 0
 41 82 55 136 116 136 c 0
EndSplineSet
EndChar

StartChar: hyphen
Encoding: 45 45 13
Width: 366
Flags: W
HStem: 205 67<72 305>
VStem: 55 257
LayerCount: 2
Fore
SplineSet
69 261 m 1
 69 261 273 271 305 272 c 0
 309 272 312 272 312 264 c 0
 312 247 305 222 297 205 c 1
 251 202 151 198 62 194 c 0
 57 194 55 196 55 205 c 0
 55 224 62 246 69 261 c 1
EndSplineSet
EndChar

StartChar: period
Encoding: 46 46 14
Width: 228
Flags: W
HStem: -11 146<63 165>
VStem: 41 146<12 113>
LayerCount: 2
Fore
SplineSet
41 64 m 0
 41 103 74 136 114 136 c 27
 155 136 188 101 188 62 c 0
 188 23 155 -11 115 -11 c 27
 74 -11 41 22 41 64 c 0
EndSplineSet
EndChar

StartChar: slash
Encoding: 47 47 15
Width: 412
Flags: HW
LayerCount: 2
Fore
SplineSet
365 743 m 0
 379 743 383 739 384 735 c 1
 95 -14 l 2
 93 -21 80 -34 46 -34 c 0
 31 -34 28 -27 28 -27 c 1
 317 722 l 1
 321 730 336 743 365 743 c 0
EndSplineSet
Substitution2: "'smcp' Lowercase to Small Capitals in Latin lookup 0 subtable" slash.sc
EndChar

StartChar: zero
Encoding: 48 48 16
Width: 532
Flags: W
HStem: -3 41<235 307> 569 41<231 307>
VStem: 51 127<164 431> 354 127<170 447>
LayerCount: 2
Fore
SplineSet
270 569 m 0
 207 569 178 448 178 295 c 0
 178 142 220 38 270 38 c 0
 333 38 354 167 354 320 c 0
 354 473 324 569 270 569 c 0
269 610 m 0
 386 610 481 499 481 304 c 0
 481 134 386 -3 269 -3 c 0
 152 -3 51 109 51 304 c 0
 51 474 152 610 269 610 c 0
EndSplineSet
EndChar

StartChar: one
Encoding: 49 49 17
Width: 532
Flags: W
HStem: -4 36<145 210 353 417> 608 20G<338 345>
VStem: 218 127<40 521>
LayerCount: 2
Fore
SplineSet
218 142 m 2
 218 471 l 2
 218 514 213 522 197 522 c 0
 188 522 148 512 127 500 c 1
 119 504 114 513 114 519 c 0
 114 521 113 529 116 530 c 0
 228 578 337 628 340 628 c 2
 342 628 l 2
 348 628 353 614 354 609 c 1
 354 609 345 581 345 518 c 2
 345 142 l 2
 345 100 345 70 353 50 c 0
 358 37 402 33 415 32 c 1
 420 25 419 2 415 -4 c 1
 377 0 322 3 281 3 c 0
 240 3 185 0 147 -4 c 1
 143 2 142 25 147 32 c 1
 160 33 205 37 210 50 c 0
 218 70 218 100 218 142 c 2
EndSplineSet
EndChar

StartChar: two
Encoding: 50 50 18
Width: 532
Flags: W
HStem: 0 100<185 406> 551 76<181 319>
VStem: 314 128<373 505> 444 33<152 193>
LayerCount: 2
Fore
SplineSet
478 188 m 1
 467 142 425 19 419 0 c 9
 63 0 l 1
 58 5 56 13 55 18 c 1
 130 101 190 158 258 265 c 0
 303 336 314 394 314 438 c 0
 314 502 263 551 210 551 c 0
 142 551 106 489 98 481 c 1
 93 481 77 490 77 505 c 1
 94 542 163 627 272 627 c 0
 366 627 442 568 442 463 c 0
 442 403 413 346 368 293 c 0
 314 231 252 162 185 100 c 1
 353 100 l 2
 412 100 428 152 444 187 c 0
 446 192 452 193 458 193 c 0
 465 193 473 192 478 188 c 1
EndSplineSet
EndChar

StartChar: three
Encoding: 51 51 19
Width: 532
Flags: W
HStem: -6 41<201 300> 306 32<171 228> 555 72<191 305>
VStem: 314 114<434 520> 338 130<126 260>
LayerCount: 2
Fore
SplineSet
281 627 m 0xf0
 328 627 429 600 429 502 c 0xf0
 429 420 346 373 322 363 c 1
 353 361 468 332 468 215 c 0
 468 77 332 -6 207 -6 c 0
 144 -6 96 14 76 30 c 1
 69 39 64 62 64 72 c 0
 64 95 82 124 115 124 c 0
 141 124 162 97 178 78 c 0
 196 57 221 35 246 35 c 0
 307 35 338 86 338 174 c 0xe8
 338 247 297 314 232 314 c 0
 226 314 203 313 178 306 c 1
 174 311 170 321 170 329 c 0
 170 333 169 335 170 338 c 1
 226 348 314 378 314 447 c 0
 314 507 282 555 223 555 c 0
 170 555 122 512 115 504 c 1
 108 506 104 522 104 531 c 1
 140 579 203 627 281 627 c 0xf0
EndSplineSet
EndChar

StartChar: four
Encoding: 52 52 20
Width: 532
Flags: W
HStem: -5 21G<345 382> 170 66<131 305 428 484> 609 20G<398 405>
VStem: 305 123<-1 170 236 455>
LayerCount: 2
Fore
SplineSet
402 629 m 0
 408 629 428 614 428 602 c 10
 428 236 l 25
 473 236 l 2
 480 236 486 218 486 190 c 0
 486 175 477 170 477 170 c 9
 428 170 l 25
 428 4 l 17
 428 4 402 -5 361 -5 c 0
 328 -5 305 -1 305 8 c 2
 305 170 l 25
 57 170 l 17
 49 174 47 181 47 194 c 1
 164 340 279 486 383 615 c 0
 390 623 394 629 402 629 c 0
305 455 m 17
 131 236 l 1
 305 236 l 1
 305 455 l 17
EndSplineSet
EndChar

StartChar: five
Encoding: 53 53 21
Width: 532
Flags: W
HStem: -6 41<203 303> 320 93<168 318> 515 105<185 399> 611 20G<418 427>
VStem: 341 125<134 249>
LayerCount: 2
Fore
SplineSet
271 413 m 0xe8
 367 413 466 328 466 225 c 0
 466 87 335 -6 210 -6 c 0
 147 -6 98 14 78 30 c 1
 71 39 66 62 66 72 c 0
 66 95 84 124 117 124 c 0
 143 124 164 97 180 78 c 0
 198 57 224 35 249 35 c 0
 310 35 341 86 341 174 c 0
 341 263 262 320 206 320 c 0
 144 320 126 311 116 307 c 1
 110 307 106 320 106 326 c 1
 107 329 153 571 161 620 c 1
 203 620 273 620 335 620 c 0xe8
 376 620 411 628 425 631 c 1xd8
 430 629 438 628 438 617 c 0
 438 600 408 536 401 523 c 1
 350 518 297 517 255 516 c 0
 224 515 199 515 189 515 c 1
 187 505 167 400 167 400 c 1
 191 406 235 413 271 413 c 0xe8
EndSplineSet
EndChar

StartChar: six
Encoding: 54 54 22
Width: 532
Flags: W
HStem: -6 41<232 308> 338 58<215 299> 604 25<407 432>
VStem: 63 128<130 323> 341 128<116 288>
LayerCount: 2
Fore
SplineSet
198 319 m 1
 193 285 191 243 191 216 c 0
 191 134 211 35 273 35 c 0
 311 35 341 90 341 178 c 0
 341 261 316 338 247 338 c 0
 235 338 212 333 198 319 c 1
290 396 m 0
 385 396 469 344 469 202 c 0
 469 88 367 -6 263 -6 c 0
 154 -6 63 109 63 236 c 3
 63 344 119 438 177 499 c 0
 261 588 361 621 427 630 c 1
 435 624 436 614 434 604 c 1
 311 553 241 470 210 371 c 1
 235 386 266 396 290 396 c 0
EndSplineSet
EndChar

StartChar: seven
Encoding: 55 55 23
Width: 532
Flags: W
HStem: -11 21G<164 168> 523 98<121 395>
VStem: 57 35<436 484>
LayerCount: 2
Fore
SplineSet
381 622 m 2
 415 622 463 626 469 626 c 0
 475 626 476 616 476 611 c 0
 476 602 465 584 449 552 c 2
 184 -8 l 1
 180 -11 169 -11 167 -11 c 0
 160 -11 124 -6 124 13 c 1
 165 72 306 335 395 523 c 1
 169 523 l 2
 120 523 105 478 92 441 c 0
 91 438 90 437 80 436 c 0
 70 435 61 439 57 443 c 1
 70 491 93 591 100 621 c 1
 116 621 381 622 381 622 c 2
EndSplineSet
EndChar

StartChar: eight
Encoding: 56 56 24
Width: 532
Flags: W
HStem: -6 41<223 320> 578 40<221 298>
VStem: 62 128<69 222> 76 126<434 540> 324 122<412 546> 343 128<87 183>
LayerCount: 2
Fore
SplineSet
270 35 m 3xe4
 318 35 343 71 343 115 c 3
 343 190 263 248 234 269 c 0
 229 273 228 273 226 273 c 0
 224 273 222 274 221 272 c 0
 200 246 189 201 189 152 c 27
 189 96 212 35 270 35 c 3xe4
262 578 m 3
 226 578 202 543 202 500 c 3
 202 433 262 390 286 377 c 0
 289 375 294 372 298 372 c 0
 301 372 303 374 304 375 c 0
 322 401 324 436 324 475 c 3xd8
 324 519 306 578 262 578 c 3
264 618 m 27
 354 618 446 571 446 478 c 3xd8
 446 416 394 369 338 346 c 0
 336 345 336 342 338 341 c 0
 374 320 471 251 471 163 c 3
 471 59 366 -6 262 -6 c 27
 163 -6 62 32 62 149 c 3xe4
 62 230 128 281 187 299 c 0
 189 300 189 301 185 304 c 0
 151 333 76 383 76 475 c 3
 76 561 172 618 264 618 c 27
EndSplineSet
EndChar

StartChar: nine
Encoding: 57 57 25
Width: 532
Flags: W
HStem: -6 25<100 125> 229 58<233 317> 589 41<224 300>
VStem: 63 128<336 508> 341 128<301 494>
LayerCount: 2
Fore
SplineSet
334 305 m 1
 340 333 341 377 341 408 c 0
 341 490 321 589 259 589 c 0
 221 589 191 534 191 446 c 0
 191 363 216 286 285 286 c 0
 297 286 320 291 334 305 c 1
99 20 m 1
 222 71 291 154 322 253 c 1
 297 238 266 229 242 229 c 0
 147 229 63 280 63 422 c 0
 63 536 166 630 270 630 c 0
 379 630 469 515 469 388 c 3
 469 280 413 186 355 125 c 0
 271 36 171 3 105 -6 c 1
 97 0 97 10 99 20 c 1
EndSplineSet
EndChar

StartChar: colon
Encoding: 58 58 26
Width: 255
Flags: W
HStem: -11 146<76 179> 274 146<76 179>
VStem: 55 146<12 113 297 398>
LayerCount: 2
Fore
SplineSet
55 350 m 0
 55 389 88 421 128 421 c 27
 169 421 201 386 201 347 c 0
 201 308 169 274 129 274 c 27
 88 274 55 308 55 350 c 0
55 64 m 0
 55 103 88 136 128 136 c 27
 169 136 201 101 201 62 c 0
 201 23 169 -11 129 -11 c 27
 88 -11 55 22 55 64 c 0
EndSplineSet
Substitution2: "'smcp' Lowercase to Small Capitals in Latin lookup 0 subtable" colon.sc
EndChar

StartChar: semicolon
Encoding: 59 59 27
Width: 248
Flags: W
HStem: 274 147<72 169>
VStem: 48 144<298 400> 107 85<-35 68>
LayerCount: 2
Fore
SplineSet
136 136 m 0xa0
 153 136 168 128 179 120 c 1
 187 105 192 80 192 57 c 0
 192 -36 127 -119 59 -153 c 1
 48 -150 38 -136 38 -130 c 1
 57 -118 107 -74 107 -26 c 0
 107 6 61 3 61 66 c 0
 61 82 75 136 136 136 c 0xa0
48 351 m 0xc0
 48 390 82 422 122 422 c 27
 161 422 191 390 191 351 c 0
 191 312 162 274 122 274 c 27
 81 274 48 312 48 351 c 0xc0
EndSplineSet
Substitution2: "'smcp' Lowercase to Small Capitals in Latin lookup 0 subtable" semicolon.sc
EndChar

StartChar: less
Encoding: 60 60 28
Width: 483
Flags: HW
LayerCount: 2
Fore
SplineSet
434 44 m 0
 434 37 424 -15 418 -15 c 0
 417 -15 415 -14 413 -13 c 2
 47 173 l 2
 32 181 29 195 29 212 c 0
 29 223 37 230 47 235 c 2
 411 418 l 2
 413 419 415 420 416 420 c 0
 419 420 426 400 433 364 c 0
 434 358 430 355 430 355 c 1
 119 204 l 1
 431 50 l 1
 431 50 434 49 434 44 c 0
EndSplineSet
Substitution2: "'smcp' Lowercase to Small Capitals in Latin lookup 0 subtable" less.sc
EndChar

StartChar: equal
Encoding: 61 61 29
Width: 545
Flags: W
HStem: 131 58<78 472> 271 58<78 472>
LayerCount: 2
Fore
SplineSet
465 131 m 1
 308 131 237 131 69 131 c 1
 57 131 71 183 85 188 c 9
 478 188 l 17
 492 188 479 138 465 131 c 1
465 271 m 1
 308 271 237 271 69 271 c 1
 57 271 71 324 85 329 c 9
 478 329 l 17
 492 329 479 278 465 271 c 1
EndSplineSet
Substitution2: "'smcp' Lowercase to Small Capitals in Latin lookup 0 subtable" equal.sc
EndChar

StartChar: greater
Encoding: 62 62 30
Width: 483
Flags: HW
LayerCount: 2
Fore
SplineSet
50 44 m 0
 50 49 53 50 53 50 c 1
 364 204 l 1
 54 355 l 1
 54 355 50 358 51 364 c 0
 58 400 64 420 67 420 c 0
 68 420 70 419 72 418 c 2
 437 235 l 2
 447 230 454 223 454 212 c 0
 454 195 452 181 437 173 c 2
 70 -13 l 2
 68 -14 66 -15 65 -15 c 0
 59 -15 50 37 50 44 c 0
EndSplineSet
Substitution2: "'smcp' Lowercase to Small Capitals in Latin lookup 0 subtable" greater.sc
EndChar

StartChar: question
Encoding: 63 63 31
Width: 389
Flags: W
HStem: -11 146<89 188> 566 65<131 244>
VStem: 65 144<13 115> 111 37<192 250> 273 83<417 537>
LayerCount: 2
Fore
SplineSet
65 64 m 0xe8
 65 105 99 136 136 136 c 0
 177 136 209 104 209 64 c 0
 209 24 179 -11 140 -11 c 0
 104 -11 65 20 65 64 c 0xe8
113 506 m 0
 76 506 53 538 53 570 c 0
 53 587 60 609 67 615 c 1
 81 623 107 632 155 632 c 0
 199 632 356 596 356 460 c 0
 356 374 285 341 233 309 c 0
 207 292 170 274 153 250 c 0
 146 240 148 219 148 209 c 1
 146 203 139 191 134 191 c 0
 126 191 115 199 111 203 c 1xd8
 104 219 92 262 92 301 c 0
 92 358 135 389 170 412 c 0
 219 444 273 487 273 520 c 0
 273 541 256 566 221 566 c 0
 186 566 154 506 113 506 c 0
EndSplineSet
Substitution2: "'smcp' Lowercase to Small Capitals in Latin lookup 0 subtable" question.sc
EndChar

StartChar: at
Encoding: 64 64 32
Width: 749
Flags: W
HStem: -121 20<259 285> -7 61<475 575> -5 97<244 354> 380 53<386 491> 525 39<332 539>
VStem: 45 47<54 278> 174 120<97 213> 403 119<54 158> 672 43<167 392>
LayerCount: 2
Fore
SplineSet
436 564 m 0xdf80
 627 564 715 435 715 283 c 0
 715 134 613 -7 499 -7 c 0xdf80
 451 -7 403 17 403 77 c 0
 403 85 404 97 407 105 c 1
 388 69 329 -5 269 -5 c 3xbf80
 219 -5 174 15 174 117 c 3
 174 260 335 433 474 433 c 0
 508 433 561 427 580 420 c 9
 525 124 l 2
 524 120 522 105 522 100 c 0
 522 86 519 54 545 54 c 0
 594 54 672 154 672 276 c 0
 672 408 606 525 436 525 c 0
 237 525 92 336 92 166 c 0
 92 52 154 -34 224 -75 c 0
 259 -96 280 -99 299 -102 c 1
 299 -110 276 -121 260 -121 c 0
 243 -121 229 -117 216 -112 c 0
 126 -79 45 23 45 161 c 0
 45 352 209 564 436 564 c 0xdf80
433 380 m 3
 352 380 294 257 294 145 c 0
 294 109 311 92 333 92 c 3xbf80
 374 92 417 161 438 268 c 2
 458 367 l 17
 449 377 446 380 433 380 c 3
EndSplineSet
Substitution2: "'smcp' Lowercase to Small Capitals in Latin lookup 0 subtable" at.sc
EndChar

StartChar: A
Encoding: 65 65 33
Width: 659
Flags: W
HStem: -4 36<138 205 382 442 604 664> 4 28<144 202> 220 47<205 369> 627 20G<331 341>
LayerCount: 2
Fore
SplineSet
92 131 m 2xb0
 300 609 l 2
 306 622 325 646 336 646 c 0
 345 646 355 643 357 640 c 1
 557 145 l 2
 570 115 575 95 584 74 c 0
 601 34 653 32 661 32 c 1
 666 23 667 0 663 -4 c 1xb0
 624 -2 575 4 532 4 c 0x70
 487 4 420 -2 385 -4 c 1
 380 1 380 32 385 32 c 1
 402 32 429 38 443 50 c 0
 449 55 451 59 451 66 c 0
 451 75 393 215 393 215 c 1
 393 215 389 219 386 219 c 0
 349 221 316 220 292 220 c 0
 252 220 225 220 191 219 c 0
 188 219 185 216 184 214 c 1
 184 214 160 159 149 132 c 0
 139 108 127 72 127 65 c 0
 127 40 194 32 202 32 c 1
 208 25 206 0 203 -4 c 1xb0
 169 0 141 4 98 4 c 0x70
 53 4 25 0 -9 -4 c 1
 -13 0 -15 20 -11 31 c 1
 1 31 48 46 58 62 c 0
 75 89 80 104 92 131 c 2xb0
288 465 m 1
 205 273 l 1
 205 273 205 270 207 270 c 0
 227 268 266 267 288 267 c 0
 318 267 336 267 366 269 c 0
 368 269 369 273 369 273 c 1
 288 465 l 1
EndSplineSet
Substitution2: "'c2sc' Capitals to Small Capitals in Latin lookup 0 subtable" a.sc
EndChar

StartChar: B
Encoding: 66 66 34
Width: 604
Flags: W
HStem: -3 41<36 103 253 372> 324 38<245 344> 605 39<36 102 247 347>
VStem: 108 137<50 324 362 602> 379 145<424 566> 417 153<110 262>
LayerCount: 2
Fore
SplineSet
245 324 m 1xf4
 245 106 l 2
 245 100 244 62 252 50 c 0
 260 39 289 38 314 38 c 0
 359 38 417 71 417 172 c 0
 417 245 388 324 295 324 c 2
 245 324 l 1xf4
245 362 m 1
 295 362 l 2
 344 362 379 403 379 476 c 0xf8
 379 569 348 605 298 605 c 0
 276 605 254 605 249 594 c 0
 244 582 245 562 245 534 c 2
 245 362 l 1
327 645 m 0
 418 645 524 603 524 490 c 0xf8
 524 412 444 367 418 357 c 0
 410 354 412 352 413 352 c 0
 462 346 571 290 571 188 c 0xf4
 571 124 529 65 468 29 c 0
 410 -5 337 -4 265 -3 c 0
 224 -3 75 -2 37 -3 c 1
 33 3 32 26 37 33 c 1
 50 34 95 37 100 50 c 0
 108 70 108 100 108 142 c 2
 108 501 l 2
 108 543 108 573 100 593 c 0
 95 606 50 607 37 608 c 1
 32 615 33 639 37 645 c 1
 81 642 136 642 177 642 c 0
 218 642 270 645 327 645 c 0
EndSplineSet
Substitution2: "'c2sc' Capitals to Small Capitals in Latin lookup 0 subtable" b.sc
EndChar

StartChar: C
Encoding: 67 67 35
Width: 658
Flags: W
HStem: -7 43<322 497> 609 42<302 481>
VStem: 39 156<200 431> 595 34<156 192>
LayerCount: 2
Fore
SplineSet
377 651 m 0
 441 651 522 645 580 633 c 1
 582 622 613 497 613 485 c 0
 613 479 600 471 588 471 c 3
 583 471 578 471 574 475 c 1
 564 513 524 609 386 609 c 0
 248 609 195 481 195 344 c 0
 195 192 258 36 405 36 c 0
 464 36 500 54 526 78 c 0
 567 115 593 191 595 199 c 1
 610 199 621 195 629 188 c 1
 629 177 604 45 589 39 c 0
 527 17 465 -7 375 -7 c 0
 191 -7 39 129 39 314 c 0
 39 502 191 651 377 651 c 0
EndSplineSet
Substitution2: "'c2sc' Capitals to Small Capitals in Latin lookup 0 subtable" c.sc
EndChar

StartChar: D
Encoding: 68 68 36
Width: 743
Flags: W
HStem: -3 41<36 103 254 423> 605 39<36 102 247 398>
VStem: 108 137<48 602> 546 155<202 448>
LayerCount: 2
Fore
SplineSet
245 534 m 2
 245 138 l 2
 245 132 244 81 252 61 c 0
 258 47 289 38 314 38 c 0
 473 38 546 127 546 317 c 0
 546 508 443 605 298 605 c 0
 276 605 254 605 249 594 c 0
 244 582 245 562 245 534 c 2
327 645 m 0
 553 645 702 528 702 328 c 0
 702 99 531 -3 320 -3 c 0
 279 -3 75 -2 37 -3 c 1
 33 3 32 26 37 33 c 1
 50 34 95 37 100 50 c 0
 108 70 108 100 108 142 c 2
 108 501 l 2
 108 543 108 573 100 593 c 0
 95 606 50 607 37 608 c 1
 32 615 33 639 37 645 c 1
 81 642 136 642 177 642 c 0
 218 642 269 644 327 645 c 0
EndSplineSet
Substitution2: "'c2sc' Capitals to Small Capitals in Latin lookup 0 subtable" d.sc
EndChar

StartChar: E
Encoding: 69 69 37
Width: 587
Flags: W
HStem: -3 36<35 100> -2 43<252 458> 303 46<245 388> 605 36<36 102 247 433>
VStem: 108 137<49 300 350 602> 424 30<378 425>
LayerCount: 2
Fore
SplineSet
177 642 m 0xbc
 218 642 437 647 495 648 c 1
 502 599 514 548 523 504 c 1
 520 501 507 499 500 499 c 0
 493 499 487 502 485 507 c 0
 464 561 439 605 379 605 c 2
 298 605 l 0
 276 605 254 605 249 594 c 0
 244 582 245 562 245 534 c 2
 245 359 l 2
 245 353 266 349 287 349 c 2
 338 349 l 2
 396 349 408 360 424 417 c 0
 425 422 429 425 436 425 c 0
 443 425 451 423 454 420 c 1
 454 232 l 1
 452 230 444 229 437 229 c 0
 430 229 424 231 423 236 c 0
 411 283 398 292 389 296 c 0
 377 301 352 303 315 303 c 0
 288 303 245 301 245 289 c 2
 245 138 l 2
 245 132 244 81 252 61 c 0
 258 47 291 41 316 41 c 0
 380 41 l 2
 417 41 449 51 471 73 c 0
 492 94 507 122 524 166 c 0
 525 170 530 172 537 172 c 0
 547 172 564 169 567 166 c 1
 548 113 521 41 514 -2 c 1x7c
 473 -2 75 -2 37 -3 c 1
 33 3 32 26 37 33 c 1
 50 34 95 37 100 50 c 0
 108 70 108 100 108 142 c 2
 108 501 l 2
 108 543 108 573 100 593 c 0
 95 606 50 607 37 608 c 1
 32 615 33 639 37 645 c 1
 81 642 136 642 177 642 c 0xbc
EndSplineSet
Substitution2: "'c2sc' Capitals to Small Capitals in Latin lookup 0 subtable" e.sc
EndChar

StartChar: F
Encoding: 70 70 38
Width: 536
Flags: W
HStem: -4 36<35 100 252 326> 299 46<245 388> 605 36<36 102 247 433>
VStem: 108 137<41 296 346 602> 424 30<374 421>
LayerCount: 2
Fore
SplineSet
177 642 m 0
 218 642 437 647 495 648 c 1
 502 599 514 548 523 504 c 1
 520 501 507 499 500 499 c 0
 493 499 487 502 485 507 c 0
 464 561 439 605 379 605 c 2
 298 605 l 0
 276 605 254 605 249 594 c 0
 244 582 245 562 245 534 c 2
 245 355 l 2
 245 349 266 345 287 345 c 2
 338 345 l 2
 396 345 408 356 424 413 c 0
 425 418 429 421 436 421 c 0
 443 421 451 419 454 416 c 1
 454 229 l 1
 452 227 444 225 437 225 c 0
 430 225 424 227 423 232 c 0
 411 279 398 288 389 292 c 0
 377 297 352 299 315 299 c 0
 288 299 245 297 245 285 c 2
 245 142 l 2
 245 100 244 70 252 50 c 0
 257 37 311 33 324 32 c 1
 329 25 328 2 324 -4 c 1
 286 0 216 3 175 3 c 0
 134 3 75 0 37 -4 c 1
 33 2 32 25 37 32 c 1
 50 33 95 37 100 50 c 0
 108 70 108 100 108 142 c 2
 108 501 l 2
 108 543 108 573 100 593 c 0
 95 606 50 607 37 608 c 1
 32 615 33 639 37 645 c 1
 81 642 136 642 177 642 c 0
EndSplineSet
Substitution2: "'c2sc' Capitals to Small Capitals in Latin lookup 0 subtable" f.sc
EndChar

StartChar: G
Encoding: 71 71 39
Width: 705
Flags: W
HStem: -7 42<323 483> 255 36<415 477 634 688> 609 42<301 483>
VStem: 39 156<201 428> 487 135<46 242>
LayerCount: 2
Fore
SplineSet
487 179 m 0
 487 199 488 208 482 229 c 0
 475 253 430 255 418 255 c 0
 413 255 412 286 417 291 c 1
 467 289 516 285 566 285 c 0
 607 285 648 289 687 291 c 1
 691 278 689 255 686 255 c 1
 678 255 645 249 634 242 c 0
 628 238 622 219 622 200 c 0
 622 164 622 129 622 96 c 0
 622 87 628 72 628 67 c 0
 628 56 607 47 594 42 c 0
 532 19 465 -7 375 -7 c 0
 190 -7 39 129 39 314 c 0
 39 497 191 651 377 651 c 0
 441 651 522 645 580 633 c 1
 582 622 613 497 613 485 c 0
 613 479 600 471 588 471 c 3
 583 471 578 471 574 475 c 1
 564 513 526 609 388 609 c 0
 243 609 195 476 195 339 c 0
 195 187 264 35 402 35 c 0
 439 35 461 43 479 51 c 0
 483 53 487 56 487 65 c 0
 487 80 487 132 487 179 c 0
EndSplineSet
Substitution2: "'c2sc' Capitals to Small Capitals in Latin lookup 0 subtable" g.sc
EndChar

StartChar: H
Encoding: 72 72 40
Width: 723
Flags: W
HStem: -4 36<35 100 252 317 407 472 624 689> 310 50<246 480> 610 36<35 100 252 317 407 472 624 689>
VStem: 108 137<40 306 359 602> 480 137<40 308 359 602>
LayerCount: 2
Fore
SplineSet
177 640 m 0
 218 640 277 642 315 646 c 1
 319 640 320 617 315 610 c 1
 302 609 257 606 252 593 c 0
 244 573 245 543 245 501 c 2
 245 362 l 1
 245 360 246 359 246 359 c 1
 284 358 321 356 365 356 c 0
 401 356 444 358 479 359 c 1
 479 359 481 361 481 363 c 0
 480 501 l 2
 480 543 480 573 472 593 c 0
 467 606 423 609 410 610 c 1
 405 617 406 640 410 646 c 1
 448 642 508 640 549 640 c 0
 590 640 649 642 687 646 c 1
 691 640 692 617 687 610 c 1
 674 609 629 606 624 593 c 0
 616 573 617 543 617 501 c 2
 617 142 l 2
 617 100 616 70 624 50 c 0
 629 37 674 33 687 32 c 1
 692 25 691 2 687 -4 c 1
 649 0 588 3 547 3 c 0
 506 3 448 0 410 -4 c 1
 406 2 405 25 410 32 c 1
 423 33 467 37 472 50 c 0
 480 70 480 100 480 142 c 2
 480 303 l 0
 480 305 478 308 478 308 c 1
 442 309 405 310 365 310 c 0
 257 310 248 308 245 306 c 1
 244 305 245 302 245 302 c 1
 245 142 l 2
 245 100 244 70 252 50 c 0
 257 37 302 33 315 32 c 1
 320 25 319 2 315 -4 c 1
 277 0 216 3 175 3 c 0
 134 3 75 0 37 -4 c 1
 33 2 32 25 37 32 c 1
 50 33 95 37 100 50 c 0
 108 70 108 100 108 142 c 2
 108 501 l 2
 108 543 108 573 100 593 c 0
 95 606 50 609 37 610 c 1
 32 617 33 640 37 646 c 1
 75 642 136 640 177 640 c 0
EndSplineSet
Substitution2: "'c2sc' Capitals to Small Capitals in Latin lookup 0 subtable" h.sc
EndChar

StartChar: I
Encoding: 73 73 41
Width: 351
Flags: W
HStem: -4 36<35 100 252 317> 610 36<35 100 252 317>
VStem: 108 137<40 602>
LayerCount: 2
Fore
SplineSet
177 640 m 0
 218 640 277 642 315 646 c 1
 319 640 320 617 315 610 c 1
 302 609 257 606 252 593 c 0
 244 573 245 543 245 501 c 2
 245 142 l 2
 245 100 244 70 252 50 c 0
 257 37 302 33 315 32 c 1
 320 25 319 2 315 -4 c 1
 277 0 216 3 175 3 c 0
 134 3 75 0 37 -4 c 1
 33 2 32 25 37 32 c 1
 50 33 95 37 100 50 c 0
 108 70 108 100 108 142 c 2
 108 501 l 2
 108 543 108 573 100 593 c 0
 95 606 50 609 37 610 c 1
 32 617 33 640 37 646 c 1
 75 642 136 640 177 640 c 0
EndSplineSet
Substitution2: "'c2sc' Capitals to Small Capitals in Latin lookup 0 subtable" i.sc
EndChar

StartChar: J
Encoding: 74 74 42
Width: 336
Flags: W
HStem: -213 60<-60 64> 610 36<29 94 246 311>
VStem: 102 137<-9 602>
LayerCount: 2
Fore
SplineSet
171 640 m 0
 212 640 271 642 309 646 c 1
 313 640 314 617 309 610 c 1
 296 609 251 606 246 593 c 0
 238 573 238 543 238 501 c 2
 238 140 l 2
 238 -83 127 -213 -51 -213 c 3
 -70 -213 -97 -202 -106 -195 c 1
 -113 -184 -122 -174 -122 -153 c 3
 -122 -120 -94 -88 -63 -88 c 3
 -41 -88 -24 -104 -8 -120 c 0
 8 -136 23 -153 38 -153 c 3
 100 -153 102 -30 102 132 c 2
 102 501 l 2
 102 543 102 573 94 593 c 0
 89 606 44 609 31 610 c 1
 26 617 27 640 31 646 c 1
 69 642 130 640 171 640 c 0
EndSplineSet
Substitution2: "'c2sc' Capitals to Small Capitals in Latin lookup 0 subtable" j.sc
EndChar

StartChar: K
Encoding: 75 75 43
Width: 702
Flags: W
HStem: -4 36<36 98 253 316 648 714> 610 36<35 100 252 317 426 482 597 674>
VStem: 108 137<40 299 329 602>
LayerCount: 2
Fore
SplineSet
177 640 m 0
 218 640 277 642 315 646 c 1
 319 640 320 617 315 610 c 1
 302 609 257 606 252 593 c 0
 244 573 245 543 245 501 c 2
 245 329 l 1
 288 363 323 394 346 418 c 0
 405 478 432 502 473 557 c 0
 483 570 483 582 483 589 c 0
 483 610 442 611 428 611 c 1
 423 619 423 637 426 646 c 1
 462 644 517 640 553 640 c 0
 596 640 638 642 674 646 c 1
 677 639 677 618 672 612 c 1
 663 611 597 604 562 569 c 2
 562 569 451 457 378 380 c 0
 372 373 372 369 375 364 c 0
 446 268 551 127 551 127 c 1
 623 35 705 32 713 32 c 1
 718 25 714 -2 713 -4 c 1
 685 -6 625 -8 585 -8 c 0
 510 -8 460 32 436 65 c 0
 411 100 307 237 264 295 c 0
 261 298 256 299 254 299 c 0
 250 299 247 297 245 293 c 1
 245 142 l 2
 245 100 244 70 252 50 c 0
 257 37 302 33 315 32 c 1
 320 25 319 2 315 -4 c 1
 277 0 216 3 175 3 c 0
 134 3 75 0 37 -4 c 1
 33 2 32 25 37 32 c 1
 50 33 95 37 100 50 c 0
 108 70 108 100 108 142 c 2
 108 501 l 2
 108 543 108 573 100 593 c 0
 95 606 50 609 37 610 c 1
 32 617 33 640 37 646 c 1
 75 642 136 640 177 640 c 0
EndSplineSet
Substitution2: "'c2sc' Capitals to Small Capitals in Latin lookup 0 subtable" k.sc
EndChar

StartChar: L
Encoding: 76 76 44
Width: 565
Flags: W
HStem: -3 36<35 100> -2 43<252 458> 610 36<35 100 252 317>
VStem: 108 137<49 602>
LayerCount: 2
Fore
SplineSet
245 138 m 2xb0
 245 132 244 81 252 61 c 0
 258 47 291 41 316 41 c 0
 380 41 l 2
 417 41 449 51 471 73 c 0
 492 94 507 122 524 166 c 0
 525 170 530 172 537 172 c 0
 547 172 564 169 567 166 c 1
 548 113 521 41 514 -2 c 1
 487 -2 308 -2 177 -2 c 0x70
 107 -2 50 -3 37 -3 c 1
 33 3 32 26 37 33 c 1
 50 34 95 37 100 50 c 0
 108 70 108 100 108 142 c 2
 108 501 l 2
 108 543 108 573 100 593 c 0
 95 606 50 609 37 610 c 1
 32 617 33 640 37 646 c 1
 75 642 136 640 177 640 c 0
 218 640 277 642 315 646 c 1
 319 640 320 617 315 610 c 1
 302 609 257 606 252 593 c 0
 244 573 245 543 245 501 c 2
 245 138 l 2xb0
EndSplineSet
Substitution2: "'c2sc' Capitals to Small Capitals in Latin lookup 0 subtable" l.sc
EndChar

StartChar: M
Encoding: 77 77 45
Width: 885
Flags: W
HStem: -4 36<18 84 191 263 571 637 797 860> 610 36<60 122 783 832>
LayerCount: 2
Fore
SplineSet
167 641 m 0
 200 641 231 644 270 646 c 1
 298 584 381 398 454 232 c 1
 454 232 457 230 458 230 c 0
 459 230 462 235 462 236 c 2
 462 236 535 416 577 533 c 24
 592 575 610 643 610 643 c 1
 619 642 696 640 715 640 c 0
 748 640 790 644 829 646 c 1
 833 642 838 617 833 609 c 1
 825 609 792 606 782 599 c 0
 772 592 768 585 769 559 c 0
 772 491 777 273 783 148 c 0
 785 110 786 75 796 50 c 0
 802 36 850 32 858 32 c 1
 862 23 863 6 860 -4 c 1
 821 -2 770 4 727 4 c 0
 682 4 618 -2 573 -4 c 1
 569 0 568 24 571 32 c 1
 583 32 631 37 640 51 c 0
 645 59 648 75 648 85 c 0
 648 95 648 127 647 145 c 2
 637 485 l 2
 637 488 637 511 630 511 c 0
 628 511 627 509 625 504 c 2
 453 39 l 2
 450 30 429 -2 411 -2 c 0
 408 -2 405 -1 402 0 c 1
 185 511 l 1
 178 308 178 284 172 131 c 0
 171 110 174 70 176 63 c 0
 182 42 253 32 261 32 c 1
 264 25 266 6 263 -4 c 1
 224 -2 185 4 142 4 c 0
 97 4 65 -2 20 -4 c 1
 16 3 16 21 19 31 c 1
 31 31 91 41 102 66 c 0
 106 76 112 136 113 152 c 0
 119 266 128 521 130 567 c 0
 130 574 130 582 125 589 c 0
 117 600 79 610 62 610 c 1
 56 618 60 644 62 646 c 1
 107 644 122 641 167 641 c 0
EndSplineSet
Substitution2: "'c2sc' Capitals to Small Capitals in Latin lookup 0 subtable" m.sc
EndChar

StartChar: N
Encoding: 78 78 46
Width: 742
Flags: W
HStem: -4 36<29 101 200 274> 610 37<35 101 478 556 642 722> 610 29<38 96>
VStem: 121 60<49 506> 569 60<243 598>
LayerCount: 2
Fore
SplineSet
147 640 m 0xb8
 181 640 223 642 254 646 c 1
 291 570 447 391 567 242 c 1
 569 249 569 268 569 282 c 2
 569 465 l 0
 569 502 565 575 558 590 c 0
 550 608 491 611 479 611 c 1
 477 611 474 638 479 647 c 1xd8
 524 645 553 640 598 640 c 0xb8
 641 640 682 645 721 647 c 1
 723 641 725 620 719 610 c 1
 711 610 646 609 638 588 c 0
 633 574 629 503 629 468 c 2
 629 136 l 2
 629 79 631 50 633 -1 c 1
 630 -4 611 -5 608 -5 c 0
 599 -5 588 5 578 18 c 2
 180 507 l 1
 180 153 l 2
 180 118 186 73 191 59 c 0
 198 40 263 33 271 33 c 1
 277 23 275 2 273 -4 c 1
 234 -2 193 4 150 4 c 0
 105 4 76 -2 31 -4 c 1
 26 5 29 32 31 32 c 1
 43 32 101 40 109 58 c 0
 116 73 121 119 121 156 c 0
 121 284 121 374 121 502 c 0
 121 529 116 571 103 590 c 0
 94 603 51 610 39 610 c 0xd8
 34 610 32 641 37 646 c 1
 67 644 102 640 147 640 c 0xb8
EndSplineSet
Substitution2: "'c2sc' Capitals to Small Capitals in Latin lookup 0 subtable" n.sc
EndChar

StartChar: O
Encoding: 79 79 47
Width: 742
Flags: W
HStem: -10 42<315 460> 609 42<282 426>
VStem: 39 156<207 434> 547 156<207 434>
LayerCount: 2
Fore
SplineSet
348 609 m 3
 233 609 195 472 195 354 c 3
 195 205 246 32 392 32 c 3
 508 32 547 167 547 285 c 3
 547 434 494 609 348 609 c 3
371 651 m 0
 543 651 703 503 703 320 c 0
 703 137 543 -10 371 -10 c 0
 199 -10 39 137 39 320 c 0
 39 503 199 651 371 651 c 0
EndSplineSet
Substitution2: "'c2sc' Capitals to Small Capitals in Latin lookup 0 subtable" o.sc
EndChar

StartChar: P
Encoding: 80 80 48
Width: 571
Flags: W
HStem: -4 36<35 100 252 317> 280 50<289 371> 605 39<36 102 247 350>
VStem: 108 137<40 602> 407 146<382 546>
LayerCount: 2
Fore
SplineSet
552 471 m 0
 552 354 455 280 356 280 c 0
 321 280 295 296 288 303 c 0
 284 307 281 319 281 327 c 0
 281 331 283 334 285 334 c 1
 295 331 310 330 325 330 c 0
 373 330 407 382 407 457 c 0
 407 534 363 605 298 605 c 0
 276 605 254 605 249 594 c 0
 244 582 245 562 245 534 c 2
 245 142 l 2
 245 100 244 70 252 50 c 0
 257 37 302 33 315 32 c 1
 320 25 319 2 315 -4 c 1
 277 0 216 3 175 3 c 0
 134 3 75 0 37 -4 c 1
 33 2 32 25 37 32 c 1
 50 33 95 37 100 50 c 0
 108 70 108 100 108 142 c 2
 108 501 l 2
 108 543 108 573 100 593 c 0
 95 606 50 607 37 608 c 1
 32 615 33 639 37 645 c 1
 81 642 136 642 177 642 c 0
 218 642 270 645 328 645 c 0
 450 645 552 582 552 471 c 0
EndSplineSet
Substitution2: "'c2sc' Capitals to Small Capitals in Latin lookup 0 subtable" p.sc
EndChar

StartChar: Q
Encoding: 81 81 49
Width: 742
Flags: W
HStem: -140 67<527 695> 609 42<282 426>
VStem: 39 156<209 434> 547 156<208 434>
LayerCount: 2
Fore
SplineSet
371 651 m 0
 543 651 703 503 703 320 c 0
 703 174 600 50 471 7 c 1
 561 -37 588 -72 688 -72 c 0
 727 -72 751 -64 758 -64 c 1
 764 -64 775 -69 780 -77 c 0
 782 -80 782 -82 782 -82 c 1
 728 -110 642 -140 582 -140 c 0
 475 -140 399 -32 294 0 c 0
 153 37 39 166 39 320 c 0
 39 503 199 651 371 651 c 0
348 609 m 0
 233 609 195 472 195 354 c 0
 195 205 246 32 392 32 c 0
 508 32 547 167 547 285 c 0
 547 434 494 609 348 609 c 0
EndSplineSet
Substitution2: "'c2sc' Capitals to Small Capitals in Latin lookup 0 subtable" q.sc
EndChar

StartChar: R
Encoding: 82 82 50
Width: 676
Flags: W
HStem: -4 36<36 98 253 316 647 713> 292 38<245 279> 605 39<36 102 247 356>
VStem: 108 137<40 292 330 602> 396 146<397 554>
LayerCount: 2
Fore
SplineSet
328 645 m 0
 450 645 541 584 541 467 c 0
 541 387 456 321 409 309 c 1
 480 213 550 127 550 127 c 1
 622 35 704 32 712 32 c 1
 717 25 713 -2 712 -4 c 1
 684 -6 624 -8 584 -8 c 0
 509 -8 459 32 435 65 c 0
 277 277 l 0
 277 277 267 292 259 292 c 0
 245 292 l 9
 245 142 l 2
 245 100 244 70 252 50 c 0
 257 37 302 33 315 32 c 1
 320 25 319 2 315 -4 c 1
 277 0 216 3 175 3 c 0
 134 3 75 0 37 -4 c 1
 33 2 32 25 37 32 c 1
 50 33 95 37 100 50 c 0
 108 70 108 100 108 142 c 2
 108 501 l 2
 108 543 108 573 100 593 c 0
 95 606 50 607 37 608 c 1
 32 615 33 639 37 645 c 1
 81 642 136 642 177 642 c 0
 218 642 270 645 328 645 c 0
396 457 m 0
 396 534 378 605 298 605 c 0
 276 605 254 605 249 594 c 0
 244 582 245 562 245 534 c 2
 245 330 l 17
 289 330 l 0
 345 330 396 382 396 457 c 0
EndSplineSet
Substitution2: "'c2sc' Capitals to Small Capitals in Latin lookup 0 subtable" r.sc
EndChar

StartChar: S
Encoding: 83 83 51
Width: 508
Flags: W
HStem: -10 41<181 310> 613 41<208 322>
VStem: 46 41<134 193> 53 130<473 552> 340 128<92 183> 396 40<459 526>
LayerCount: 2
Fore
SplineSet
261 654 m 0xd8
 319 654 365 640 425 627 c 1
 430 575 433 525 436 465 c 1
 433 461 429 459 425 459 c 0
 422 459 398 458 396 466 c 0
 388 521 341 613 266 613 c 0
 228 613 183 593 183 528 c 0xd4
 183 467 264 412 324 372 c 0
 388 329 468 287 468 171 c 0
 468 64 362 -10 255 -10 c 0
 197 -10 128 2 69 16 c 1
 59 59 48 155 46 182 c 1
 50 188 69 195 74 195 c 0
 81 195 86 194 87 188 c 0xe8
 96 135 157 31 245 31 c 0
 295 31 340 57 340 126 c 0
 340 195 244 252 195 285 c 0
 124 333 53 376 53 478 c 0
 53 579 160 654 261 654 c 0xd8
EndSplineSet
Substitution2: "'c2sc' Capitals to Small Capitals in Latin lookup 0 subtable" s.sc
EndChar

StartChar: T
Encoding: 84 84 52
Width: 619
Flags: W
HStem: -4 36<169 233 386 450> 599 43<100 241 378 519>
VStem: 8 38<472 525> 241 137<40 599> 573 38<472 525>
LayerCount: 2
Fore
SplineSet
472 642 m 0
 542 642 555 660 573 660 c 0
 581 660 581 659 585 657 c 1
 611 478 l 1
 608 475 592 471 583 471 c 0
 578 471 574 472 573 476 c 0
 563 539 519 599 469 599 c 2
 378 599 l 1
 378 142 l 2
 378 100 378 70 386 50 c 0
 391 37 435 33 448 32 c 1
 453 25 452 2 448 -4 c 1
 410 0 350 3 309 3 c 0
 268 3 209 0 171 -4 c 1
 167 2 166 25 171 32 c 1
 184 33 228 37 233 50 c 0
 241 70 241 100 241 142 c 2
 241 599 l 1
 150 599 l 2
 100 599 56 539 46 476 c 0
 45 472 41 471 36 471 c 0
 27 471 11 475 8 478 c 1
 34 657 l 1
 38 659 38 660 46 660 c 0
 64 660 77 642 147 642 c 0
 234 642 385 642 472 642 c 0
EndSplineSet
Substitution2: "'c2sc' Capitals to Small Capitals in Latin lookup 0 subtable" t.sc
EndChar

StartChar: U
Encoding: 85 85 53
Width: 712
Flags: W
HStem: -9 70<315 466> 610 36<20 84 237 301 471 542 638 712>
VStem: 92 137<163 602> 560 61<171 595>
LayerCount: 2
Fore
SplineSet
162 640 m 0
 203 640 261 642 299 646 c 1
 303 640 304 617 299 610 c 1
 286 609 242 606 237 593 c 0
 229 573 229 543 229 501 c 2
 229 322 l 2
 229 256 231 207 253 155 c 0
 290 69 364 62 402 62 c 0
 480 62 560 131 560 302 c 2
 560 468 l 2
 560 510 554 567 546 587 c 0
 538 606 486 609 473 610 c 1
 468 617 469 640 473 646 c 1
 519 642 550 640 595 640 c 0
 638 640 669 644 709 646 c 1
 713 640 714 617 709 610 c 1
 696 609 642 608 634 587 c 0
 626 567 620 511 620 469 c 2
 620 279 l 2
 620 80 494 -9 353 -9 c 0
 271 -9 194 18 147 77 c 0
 109 125 92 192 92 294 c 2
 92 501 l 2
 92 543 92 573 84 593 c 0
 79 606 35 609 22 610 c 1
 17 617 18 640 22 646 c 1
 60 642 121 640 162 640 c 0
EndSplineSet
Substitution2: "'c2sc' Capitals to Small Capitals in Latin lookup 0 subtable" u.sc
EndChar

StartChar: V
Encoding: 86 86 54
Width: 667
Flags: W
HStem: -11 21G<320 330> 610 36<-5 51 218 277 454 532 614 684>
LayerCount: 2
Fore
SplineSet
137 640 m 0
 178 640 237 642 275 646 c 1
 279 640 280 617 275 610 c 1
 262 609 215 608 215 584 c 0
 215 568 227 538 239 511 c 0
 296 381 384 182 384 182 c 1
 384 182 503 482 513 509 c 0
 522 534 535 566 535 587 c 0
 535 605 469 609 456 610 c 1
 451 617 452 640 456 646 c 1
 502 642 528 640 573 640 c 0
 616 640 642 644 682 646 c 1
 686 640 687 617 682 610 c 1
 669 609 626 609 614 593 c 0
 599 573 588 544 574 512 c 0
 494 316 446 210 371 29 c 0
 363 11 337 -11 325 -11 c 0
 316 -11 316 -4 311 3 c 1
 98 498 l 2
 86 526 73 558 64 578 c 0
 52 603 10 609 -3 610 c 1
 -8 617 -7 640 -3 646 c 1
 35 642 96 640 137 640 c 0
EndSplineSet
Substitution2: "'c2sc' Capitals to Small Capitals in Latin lookup 0 subtable" v.sc
EndChar

StartChar: W
Encoding: 87 87 55
Width: 928
Flags: W
HStem: -11 21G<288 299 626 637> 610 36<-5 52 218 277 710 786 870 940>
LayerCount: 2
Fore
SplineSet
137 640 m 0
 178 640 237 642 275 646 c 1
 279 640 280 617 275 610 c 1
 262 609 216 608 216 584 c 0
 216 568 228 539 239 511 c 0
 282 392 335 245 335 245 c 1
 335 245 442 547 465 610 c 0
 472 629 484 646 495 646 c 0
 499 646 503 642 507 631 c 0
 571 467 674 209 674 209 c 1
 674 209 759 478 769 509 c 0
 777 534 789 566 789 587 c 0
 789 605 726 609 713 610 c 1
 708 617 709 640 713 646 c 1
 759 642 784 640 829 640 c 0
 872 640 898 644 938 646 c 1
 942 640 943 617 938 610 c 1
 925 609 882 609 870 593 c 0
 855 573 841 546 830 512 c 0
 769 327 732 220 670 39 c 0
 661 15 643 -11 631 -11 c 0
 622 -11 617 -4 612 3 c 1
 451 408 l 1
 451 408 375 184 327 43 c 0
 323 32 305 -11 293 -11 c 0
 284 -11 279 -4 274 3 c 1
 98 498 l 2
 88 527 73 558 64 578 c 0
 52 603 11 609 -2 610 c 1
 -8 617 -6 640 -2 646 c 1
 36 642 96 640 137 640 c 0
EndSplineSet
Substitution2: "'c2sc' Capitals to Small Capitals in Latin lookup 0 subtable" w.sc
EndChar

StartChar: X
Encoding: 88 88 56
Width: 693
Flags: W
HStem: -4 36<-8 69 173 249 382 435 628 696> 610 36<17 85 259 313 429 497 611 680>
LayerCount: 2
Fore
SplineSet
172 641 m 0
 220 641 273 644 312 646 c 1
 314 640 315 610 310 610 c 1
 296 610 260 605 259 590 c 0
 259 584 262 574 266 568 c 2
 375 404 l 1
 418 460 487 538 502 570 c 0
 504 574 505 578 505 580 c 0
 505 597 465 610 432 610 c 1
 427 610 426 641 431 646 c 1
 465 642 525 640 561 640 c 0
 612 640 650 642 678 646 c 1
 681 640 682 610 677 610 c 1
 669 610 610 609 568 559 c 2
 401 360 l 1
 483 236 582 91 597 74 c 0
 625 40 680 32 694 32 c 1
 698 23 699 4 694 -4 c 1
 655 -2 578 2 538 2 c 0
 483 2 439 -2 384 -4 c 1
 379 1 380 32 385 32 c 0
 396 32 440 42 440 60 c 0
 440 63 439 67 437 70 c 2
 307 267 l 1
 292 247 201 127 173 81 c 0
 168 73 165 67 165 64 c 0
 165 41 217 32 246 32 c 1
 251 25 252 7 249 -4 c 1
 217 -2 156 2 120 2 c 0
 69 2 34 -2 -5 -4 c 1
 -10 2 -10 25 -5 32 c 1
 3 32 70 34 101 77 c 2
 275 314 l 1
 138 524 l 2
 120 550 100 586 86 596 c 0
 72 606 31 610 19 610 c 1
 14 610 14 641 19 646 c 1
 67 644 124 641 172 641 c 0
EndSplineSet
Substitution2: "'c2sc' Capitals to Small Capitals in Latin lookup 0 subtable" x.sc
EndChar

StartChar: Y
Encoding: 89 89 57
Width: 609
Flags: W
HStem: -4 36<155 220 372 437> 610 36<1 56 224 283 399 470 554 623>
VStem: 228 137<40 319>
LayerCount: 2
Fore
SplineSet
228 142 m 2
 228 277 l 0
 228 284 226 289 222 297 c 0
 197 350 100 524 100 524 c 2
 85 551 82 558 70 578 c 0
 55 602 16 609 3 610 c 1
 -2 617 -1 640 3 646 c 1
 41 642 102 640 143 640 c 0
 184 640 243 642 281 646 c 1
 285 640 286 617 281 610 c 1
 268 609 221 608 221 584 c 0
 221 580 224 575 228 568 c 2
 345 353 l 1
 350 348 426 486 468 564 c 0
 472 572 473 580 473 587 c 0
 473 605 414 609 401 610 c 1
 396 617 397 640 401 646 c 1
 447 642 466 640 511 640 c 0
 554 640 580 644 620 646 c 1
 624 640 625 617 620 610 c 1
 607 609 563 608 548 586 c 0
 529 557 398 349 370 291 c 0
 367 284 365 278 365 272 c 0
 365 142 l 2
 365 100 364 70 372 50 c 0
 377 37 422 33 435 32 c 1
 440 25 439 2 435 -4 c 1
 397 0 336 3 295 3 c 0
 254 3 196 0 158 -4 c 1
 154 2 153 25 158 32 c 1
 171 33 215 37 220 50 c 0
 228 70 228 100 228 142 c 2
EndSplineSet
Substitution2: "'c2sc' Capitals to Small Capitals in Latin lookup 0 subtable" y.sc
EndChar

StartChar: Z
Encoding: 90 90 58
Width: 625
Flags: W
HStem: 0 46<202 490> 596 44<151 404> 627 20G<76 88 531 574>
LayerCount: 2
Fore
SplineSet
228 596 m 2xc0
 124 596 108 524 86 463 c 0
 85 460 84 457 74 457 c 0
 63 457 48 459 45 462 c 1
 56 519 70 584 80 646 c 1xa0
 96 642 194 640 208 640 c 2
 345 641 l 2
 427 642 490 644 572 650 c 1
 576 649 581 628 581 618 c 1
 579 610 202 46 202 46 c 17
 412 46 l 2
 449 46 483 58 505 80 c 0
 526 101 540 122 557 166 c 0
 558 170 564 172 571 172 c 0
 581 172 597 169 600 166 c 1
 584 114 556 43 547 1 c 1
 506 1 45 0 45 0 c 1
 32 0 17 17 20 21 c 2
 407 596 l 1
 228 596 l 2xc0
EndSplineSet
Substitution2: "'c2sc' Capitals to Small Capitals in Latin lookup 0 subtable" z.sc
EndChar

StartChar: bracketleft
Encoding: 91 91 59
Width: 301
Flags: W
VStem: 73 104<-78 711>
LayerCount: 2
Fore
SplineSet
92 752 m 0
 193 752 257 761 292 768 c 1
 294 768 298 765 298 759 c 0
 298 746 290 734 288 733 c 0
 259 718 204 713 178 707 c 9
 178 -74 l 1
 204 -80 259 -86 288 -101 c 0
 290 -102 298 -113 298 -126 c 0
 298 -132 294 -135 292 -135 c 1
 257 -128 193 -119 92 -119 c 0
 79 -118 73 -108 73 -97 c 0
 73 729 l 0
 73 740 79 751 92 752 c 0
EndSplineSet
Substitution2: "'smcp' Lowercase to Small Capitals in Latin lookup 0 subtable" bracketleft.sc
EndChar

StartChar: backslash
Encoding: 92 92 60
Width: 409
Flags: HW
LayerCount: 2
Fore
SplineSet
26 737 m 1
 30 742 37 743 45 743 c 0
 68 743 79 736 82 728 c 2
 82 728 381 -19 381 -25 c 1
 380 -29 368 -35 354 -35 c 0
 346 -35 330 -32 324 -18 c 0
 210 270 115 513 26 737 c 1
EndSplineSet
Substitution2: "'smcp' Lowercase to Small Capitals in Latin lookup 0 subtable" backslash.sc
EndChar

StartChar: bracketright
Encoding: 93 93 61
Width: 301
Flags: W
VStem: 124 104<-78 711>
LayerCount: 2
Fore
SplineSet
210 752 m 0
 223 751 229 740 229 729 c 0
 229 -97 l 0
 229 -108 223 -118 210 -119 c 0
 109 -119 45 -128 10 -135 c 1
 8 -135 4 -132 4 -126 c 0
 4 -113 12 -102 14 -101 c 0
 43 -86 98 -80 124 -74 c 1
 124 707 l 17
 98 713 43 718 14 733 c 0
 12 734 4 746 4 759 c 0
 4 765 8 768 10 768 c 1
 45 761 109 752 210 752 c 0
EndSplineSet
Substitution2: "'smcp' Lowercase to Small Capitals in Latin lookup 0 subtable" bracketright.sc
EndChar

StartChar: asciicircum
Encoding: 94 94 62
Width: 381
Flags: W
HStem: 409 244
VStem: 37 288
LayerCount: 2
Fore
SplineSet
182 653 m 0
 188 653 196 649 201 640 c 0
 251 553 272 509 325 427 c 1
 325 416 315 409 307 409 c 1
 250 462 182 543 182 543 c 25
 182 543 114 462 57 409 c 1
 49 409 37 416 37 427 c 1
 90 509 113 553 163 640 c 0
 168 649 176 653 182 653 c 0
EndSplineSet
Substitution2: "'smcp' Lowercase to Small Capitals in Latin lookup 0 subtable" asciicircum.sc
EndChar

StartChar: underscore
Encoding: 95 95 63
Width: 481
Flags: W
HStem: -42 55<12 459>
LayerCount: 2
Fore
SplineSet
8 -32 m 1
 8 -32 12 13 22 13 c 2
 461 13 l 2
 463 13 465 12 465 8 c 0
 465 -1 461 -15 455 -36 c 0
 453 -42 449 -42 449 -42 c 1
 15 -42 l 1
 15 -42 8 -42 8 -32 c 1
EndSplineSet
EndChar

StartChar: a
Encoding: 97 97 65
Width: 460
Flags: W
HStem: -8 68<121 234 327 419> 401 37<170 283>
VStem: 30 132<76 169> 42 105<285 363> 262 127<67 218 250 369>
LayerCount: 2
Fore
SplineSet
222 61 m 0xe8
 246 61 262 75 262 81 c 2
 262 218 l 1
 242 208 217 200 197 187 c 0
 170 169 161 142 162 121 c 0
 163 79 197 61 222 61 c 0xe8
242 438 m 0
 323 438 389 377 389 289 c 2
 389 106 l 2
 389 80 399 66 412 66 c 0
 426 66 436 74 440 76 c 1
 444 74 447 66 447 60 c 3
 447 53 446 50 443 45 c 1
 429 32 384 -6 343 -6 c 0
 311 -6 278 20 269 43 c 1
 260 35 193 -8 158 -8 c 0
 84 -8 30 53 30 111 c 0xe8
 30 149 56 181 81 189 c 0
 118 201 212 239 262 258 c 1
 262 265 262 271 262 278 c 2
 262 304 l 2
 262 353 238 401 204 401 c 0
 167 401 157 363 147 319 c 0
 142 297 127 276 93 276 c 0
 67 276 42 296 42 323 c 0xd8
 42 336 48 349 56 363 c 1
 69 376 156 438 242 438 c 0
EndSplineSet
Substitution2: "'smcp' Lowercase to Small Capitals in Latin lookup 0 subtable" a.sc
EndChar

StartChar: b
Encoding: 98 98 66
Width: 529
Flags: W
HStem: -8 43<207 308> 366 72<236 309> 609 31<-1 55> 659 20G<188 193>
VStem: 67 127<49 345 392 600> 359 141<131 309>
LayerCount: 2
Fore
SplineSet
238 -8 m 0
 187 -8 140 15 115 15 c 0
 97 15 86 11 79 8 c 1
 76 8 55 25 55 32 c 1
 62 50 67 84 67 148 c 2
 67 545 l 2
 67 562 67 575 60 592 c 0
 55 604 13 609 1 609 c 1
 -3 609 -4 637 1 641 c 1
 110 651 187 679 190 679 c 1
 196 678 203 667 204 662 c 1
 204 662 194 618 194 563 c 2
 194 405 l 2
 194 400 194 388 200 393 c 0
 215 405 263 438 296 438 c 0
 409 438 499 350 499 230 c 0
 499 74 365 -8 238 -8 c 0
247 366 m 0
 220 366 206 355 197 345 c 0
 194 342 194 339 194 336 c 2
 194 96 l 2
 194 63 217 35 258 35 c 0
 320 35 359 119 359 191 c 0
 359 325 308 366 247 366 c 0
EndSplineSet
Substitution2: "'smcp' Lowercase to Small Capitals in Latin lookup 0 subtable" b.sc
EndChar

StartChar: c
Encoding: 99 99 67
Width: 436
Flags: W
HStem: -9 82<221 325> 387 51<188 312>
VStem: 30 123<148 284>
LayerCount: 2
Fore
SplineSet
403 373 m 0
 403 345 382 312 347 312 c 0
 321 312 304 338 288 356 c 0
 271 375 246 387 222 387 c 0
 179 387 153 312 153 252 c 0
 153 115 232 73 294 73 c 0
 351 73 382 100 403 122 c 1
 410 120 415 110 415 104 c 3
 415 97 414 89 412 86 c 0
 394 59 328 -9 235 -9 c 0
 126 -9 30 67 30 195 c 0
 30 314 150 438 285 438 c 0
 339 438 373 427 384 420 c 1
 393 410 403 398 403 373 c 0
EndSplineSet
Substitution2: "'smcp' Lowercase to Small Capitals in Latin lookup 0 subtable" c.sc
EndChar

StartChar: d
Encoding: 100 100 68
Width: 534
Flags: W
HStem: -8 62<161 288> 27 31<467 513> 386 50<206 317> 609 31<263 319> 659 20G<453 457>
VStem: 31 139<119 291> 331 127<69 370 434 600>
LayerCount: 2
Fore
SplineSet
287 436 m 0xbe
 308 436 318 435 326 434 c 1
 330 434 331 448 331 456 c 0
 331 480 331 513 331 545 c 0
 331 564 331 575 324 592 c 0
 319 604 278 609 266 609 c 1
 262 609 261 637 266 641 c 1
 375 651 451 679 454 679 c 1
 460 678 468 667 469 662 c 1
 469 662 458 618 458 563 c 2
 458 105 l 26
 458 90 458 78 467 68 c 0
 476 58 502 59 511 59 c 1
 513 57 514 53 514 46 c 0
 514 40 512 33 508 27 c 1x7e
 450 21 353 -7 340 -7 c 0
 336 -7 331 2 331 17 c 2
 331 32 l 18
 331 34 331 39 328 37 c 0
 312 26 260 -8 208 -8 c 0
 114 -8 31 80 31 195 c 0
 31 361 198 436 287 436 c 0xbe
255 386 m 0
 193 386 170 315 170 237 c 0
 170 130 208 55 269 55 c 0xbe
 296 55 331 78 331 91 c 2
 331 342 l 2
 331 360 296 386 255 386 c 0
EndSplineSet
Substitution2: "'smcp' Lowercase to Small Capitals in Latin lookup 0 subtable" d.sc
EndChar

StartChar: e
Encoding: 101 101 69
Width: 449
Flags: W
HStem: -9 82<225 326> 236 39<159 284> 396 40<196 276>
VStem: 31 127<144 236 275 290> 298 121<283 362>
LayerCount: 2
Fore
SplineSet
159 275 m 1
 168 274 262 280 285 283 c 0
 297 284 298 293 298 299 c 11
 298 344 282 396 238 396 c 3
 180 396 159 308 159 275 c 1
158 236 m 1
 158 99 251 73 295 73 c 0
 352 73 383 100 404 122 c 1
 411 120 416 110 416 104 c 3
 416 97 415 89 413 86 c 0
 395 59 329 -9 236 -9 c 0
 127 -9 31 67 31 195 c 0
 31 318 136 437 248 437 c 0
 376 437 419 346 419 289 c 0
 419 268 408 249 393 248 c 0
 327 242 230 238 158 236 c 1
EndSplineSet
Substitution2: "'smcp' Lowercase to Small Capitals in Latin lookup 0 subtable" e.sc
EndChar

StartChar: f
Encoding: 102 102 70
Width: 346
Flags: HW
HStem: -4 36<24 89 231 296> 372 46<31 97 224 337> 611 70<235 314>
VStem: 97 127<40 372 418 528>
LayerCount: 2
Back
SplineSet
298.828125 681.640625 m 0
 317.708007812 681.640625 338.541992188 678.385742188 361.328125 671.875 c 1
 386.71875 658.528320312 399.4140625 643.5546875 399.4140625 626.953125 c 0
 399.4140625 609.375 394.938476562 593.75 385.986328125 580.078125 c 128
 377.034179688 566.40625 364.909179688 559.5703125 349.609375 559.5703125 c 0
 342.7734375 559.5703125 336.018554688 560.954101562 329.345703125 563.720703125 c 128
 322.672851562 566.487304688 317.463867188 569.3359375 313.720703125 572.265625 c 128
 309.977539062 575.1953125 304.931640625 579.508789062 298.583984375 585.205078125 c 128
 292.236328125 590.901367188 287.760742188 594.7265625 285.15625 596.6796875 c 0
 273.112304688 606.4453125 260.090820312 611.328125 246.09375 611.328125 c 0
 238.28125 611.328125 231.4453125 601.969726562 225.5859375 583.251953125 c 128
 219.7265625 564.534179688 216.796875 543.9453125 216.796875 521.484375 c 0
 216.796875 483.073242188 218.098632812 443.684570312 220.703125 403.3203125 c 1
 334.9609375 403.3203125 l 2
 338.8671875 403.3203125 340.8203125 399.088867188 340.8203125 390.625 c 0
 340.8203125 386.393554688 338.37890625 380.696289062 333.49609375 373.53515625 c 128
 328.61328125 366.374023438 323.567382812 361.002929688 318.359375 357.421875 c 1
 223.6328125 357.421875 l 1
 223.6328125 141.6015625 l 2
 223.6328125 94.4658203125 226.237304688 63.8671875 231.4453125 49.8046875 c 0
 234.700195312 41.015625 255.534179688 35.15625 293.9453125 32.2265625 c 1
 296.223632812 28.6455078125 297.282226562 22.4609375 297.119140625 13.671875 c 128
 296.956054688 4.8828125 295.8984375 -0.9765625 293.9453125 -3.90625 c 1
 249.674804688 0.6513671875 205.078125 2.9296875 160.15625 2.9296875 c 128
 115.234375 2.9296875 70.6376953125 0.6513671875 26.3671875 -3.90625 c 1
 24.4140625 -0.9765625 23.3564453125 4.8828125 23.193359375 13.671875 c 128
 23.0302734375 22.4609375 24.0888671875 28.6455078125 26.3671875 32.2265625 c 1
 64.7783203125 35.15625 85.6123046875 41.015625 88.8671875 49.8046875 c 0
 94.0751953125 62.8251953125 96.6796875 93.4248046875 96.6796875 141.6015625 c 2
 96.6796875 357.421875 l 1
 27.34375 357.421875 l 1
 24.0888671875 358.723632812 22.4609375 362.956054688 22.4609375 370.1171875 c 1
 30.9248046875 381.8359375 41.3408203125 392.903320312 53.7109375 403.3203125 c 1
 96.6796875 403.3203125 l 1
 96.6796875 432.6171875 l 2
 96.6796875 464.518554688 103.759765625 496.174804688 117.919921875 527.587890625 c 128
 132.080078125 559.000976562 149.495117188 585.693359375 170.166015625 607.666015625 c 128
 190.836914062 629.638671875 212.809570312 647.4609375 236.083984375 661.1328125 c 128
 259.358398438 674.8046875 280.2734375 681.640625 298.828125 681.640625 c 0
EndSplineSet
Fore
SplineSet
299 682 m 0
 330 682 347 676 361 672 c 1
 378 663 399 650 399 627 c 27
 399 595 382 560 350 560 c 19
 321 560 304 582 285 597 c 0
 274 606 262 611 246 611 c 0
 230 611 217 577 217 531 c 0
 217 486 219 433 221 403 c 1
 228 403 303 403 335 403 c 0
 339 403 341 395 341 390 c 0
 341 381 328 364 318 357 c 1
 289 357 256 357 224 357 c 1
 224 142 l 2
 224 100 223 70 231 50 c 0
 236 37 281 33 294 32 c 1
 299 25 298 2 294 -4 c 1
 256 0 201 3 160 3 c 0
 119 3 64 0 26 -4 c 1
 22 2 21 25 26 32 c 1
 39 33 84 37 89 50 c 0
 97 70 97 100 97 142 c 2
 97 142 97 270 97 357 c 1
 71 357 52 357 27 357 c 1
 22 359 22 366 22 370 c 1
 32 384 42 393 54 403 c 1
 67 403 87 403 97 403 c 9
 97 433 l 2
 97 567 226 682 299 682 c 0
EndSplineSet
Substitution2: "'smcp' Lowercase to Small Capitals in Latin lookup 0 subtable" f.sc
EndChar

StartChar: g
Encoding: 103 103 71
Width: 466
Flags: W
HStem: -213 55<172 302> -14 108<143 339> 145 36<186 262> 357 60<380 448> 396 36<173 248>
VStem: 23 107<-119 -53> 38 118<216 357> 48 95<69 120> 275 118<221 361> 363 85<-92 3>
LayerCount: 2
Fore
SplineSet
210 396 m 0xea80
 159 396 156 344 156 300 c 0
 156 245 175 181 226 181 c 0
 277 181 275 235 275 278 c 0
 275 332 261 396 210 396 c 0xea80
254 -14 m 0
 218 -14 165 -14 146 -14 c 1
 139 -22 131 -35 131 -57 c 0
 131 -121 180 -158 248 -158 c 0
 342 -158 363 -109 363 -77 c 0xe440
 363 -36 316 -14 254 -14 c 0
318 94 m 0
 408 89 448 19 448 -14 c 0
 448 -132 320 -213 187 -213 c 0
 91 -213 23 -167 23 -101 c 0xf440
 23 -62 70 -24 106 -6 c 1
 73 3 48 49 48 90 c 0xf1
 48 108 92 140 129 161 c 1
 73 183 38 231 38 287 c 0
 38 368 115 433 215 433 c 0xea
 259 433 292 427 319 408 c 0
 322 405 323 405 325 405 c 2
 447 417 l 1
 450 416 458 412 458 406 c 0
 458 399 444 364 434 357 c 1
 413 359 404 360 379 363 c 0
 377 363 373 362 373 360 c 1
 389 339 394 319 394 292 c 0
 394 211 318 145 217 145 c 0
 199 145 182 146 166 149 c 1
 155 140 143 129 143 119 c 0xf180
 143 104 166 95 189 95 c 0
 226 95 284 96 318 94 c 0
EndSplineSet
Substitution2: "'smcp' Lowercase to Small Capitals in Latin lookup 0 subtable" g.sc
EndChar

StartChar: h
Encoding: 104 104 72
Width: 569
Flags: W
HStem: -4 36<14 79 221 279 304 357 499 564> 356 1<214 299> 609 31<18 74> 659 20G<208 212>
VStem: 86 127<40 331 357 601> 365 127<40 327>
LayerCount: 2
Fore
SplineSet
359 436 m 0
 470 436 492 359 492 205 c 2
 492 142 l 2
 492 100 491 70 499 50 c 0
 504 37 549 33 562 32 c 1
 567 25 566 2 562 -4 c 1
 524 0 469 3 428 3 c 0
 387 3 344 0 306 -4 c 1
 302 2 301 25 306 32 c 1
 319 33 352 37 357 50 c 0
 365 70 365 100 365 142 c 2
 365 219 l 2
 365 289 351 356 299 356 c 0
 260 356 213 322 213 302 c 2
 213 142 l 2
 213 106 213 70 221 50 c 0
 226 37 264 33 277 32 c 1
 282 25 281 2 277 -4 c 1
 239 0 191 3 150 3 c 0
 109 3 54 0 16 -4 c 1
 12 2 11 25 16 32 c 1
 29 33 74 37 79 50 c 0
 87 70 86 100 86 142 c 2
 86 545 l 2
 86 562 86 575 79 592 c 0
 74 604 33 609 21 609 c 1
 17 609 16 637 21 641 c 1
 130 651 206 679 209 679 c 1
 215 678 223 667 224 662 c 1
 224 662 213 601 213 562 c 0
 213 363 l 0
 213 360 213 358 214 357 c 1
 216 357 219 360 221 362 c 0
 248 393 314 436 359 436 c 0
EndSplineSet
Substitution2: "'smcp' Lowercase to Small Capitals in Latin lookup 0 subtable" h.sc
EndChar

StartChar: i
Encoding: 105 105 73
Width: 307
Flags: W
HStem: -4 36<26 91 234 292> 354 30<27 86> 416 20G<202 224> 531 141<102 204>
VStem: 82 142<552 651> 99 127<40 344>
LayerCount: 2
Fore
SplineSet
226 302 m 2xf4
 226 142 l 2
 226 106 226 70 234 50 c 0
 239 37 276 33 289 32 c 1
 294 25 293 2 289 -4 c 1
 251 0 203 3 162 3 c 0
 121 3 67 0 29 -4 c 1
 25 2 24 25 29 32 c 1
 42 33 86 37 91 50 c 0
 99 70 99 100 99 142 c 2
 99 254 l 2
 99 264 98 319 90 334 c 0
 82 349 36 354 29 354 c 1
 26 356 25 384 30 384 c 1
 104 390 183 417 220 436 c 1
 227 434 237 422 237 419 c 1
 234 411 228 377 227 363 c 0
 226 342 226 308 226 302 c 2xf4
82 602 m 0xf8
 82 641 114 672 153 672 c 0
 192 672 224 641 224 602 c 0
 224 563 192 531 153 531 c 0
 114 531 82 563 82 602 c 0xf8
EndSplineSet
Substitution2: "'ccmp' Turkish i-1" i.TRK
Substitution2: "'smcp' Lowercase to Small Capitals in Latin lookup 0 subtable" i.sc
EndChar

StartChar: j
Encoding: 106 106 74
Width: 279
Flags: W
HStem: -213 23<-10 4> 354 30<15 73> 416 20G<189 211> 529 145<91 194>
VStem: 70 145<550 653> 87 127<-42 344>
LayerCount: 2
Fore
SplineSet
87 62 m 2xf4
 87 254 l 2xf4
 87 264 86 319 78 334 c 0
 70 349 24 354 17 354 c 1
 14 356 13 384 18 384 c 1
 92 390 171 417 208 436 c 1
 215 434 225 422 225 419 c 1
 222 411 216 377 215 363 c 0xf8
 214 342 214 308 214 302 c 2
 214 117 l 2
 214 35 203 -47 167 -100 c 0
 121 -166 35 -213 2 -213 c 1
 -5 -209 -12 -202 -12 -196 c 0
 -12 -194 -12 -190 -11 -189 c 0
 -7 -187 87 -139 87 62 c 2xf4
70 602 m 0xf8
 70 642 103 674 143 674 c 0
 183 674 215 642 215 602 c 0
 215 562 183 529 143 529 c 0
 103 529 70 562 70 602 c 0xf8
EndSplineSet
Substitution2: "'smcp' Lowercase to Small Capitals in Latin lookup 0 subtable" j.sc
EndChar

StartChar: k
Encoding: 107 107 75
Width: 576
Flags: W
HStem: -4 36<14 77 222 285 511 573> 396 34<308 369 474 549> 609 31<18 74> 659 20G<208 212>
VStem: 86 127<40 196 230 601>
LayerCount: 2
Fore
SplineSet
213 142 m 2
 213 100 213 70 221 50 c 0
 226 37 271 33 284 32 c 1
 289 25 288 2 284 -4 c 1
 246 0 191 3 150 3 c 0
 109 3 54 0 16 -4 c 1
 12 2 11 25 16 32 c 1
 29 33 74 37 79 50 c 0
 87 70 86 100 86 142 c 2
 86 545 l 2
 86 562 86 575 79 592 c 0
 74 604 33 609 21 609 c 1
 17 609 16 637 21 641 c 1
 130 651 206 679 209 679 c 1
 215 678 223 667 224 662 c 1
 224 662 213 601 213 562 c 0
 212 230 l 1
 229 236 252 251 286 280 c 0
 354 339 371 359 371 374 c 0
 371 386 327 395 309 396 c 1
 306 405 306 427 311 429 c 1
 311 429 398 425 439 425 c 0
 474 425 503 428 547 430 c 1
 553 420 550 399 544 396 c 1
 514 393 473 383 448 365 c 0
 427 350 379 303 319 250 c 1
 388 169 402 158 457 96 c 0
 511 36 543 35 574 35 c 1
 580 24 575 8 574 6 c 1
 558 0 512 -6 475 -6 c 0
 418 -6 370 18 341 52 c 2
 341 52 274 124 226 184 c 0
 222 190 213 196 213 196 c 1
 213 142 l 2
EndSplineSet
Substitution2: "'smcp' Lowercase to Small Capitals in Latin lookup 0 subtable" k.sc
EndChar

StartChar: l
Encoding: 108 108 76
Width: 298
Flags: W
HStem: -4 36<14 79 221 286> 609 31<18 74> 659 20G<208 212>
VStem: 86 127<40 601>
LayerCount: 2
Fore
SplineSet
86 545 m 2
 86 562 86 575 79 592 c 0
 74 604 33 609 21 609 c 1
 17 609 16 637 21 641 c 1
 130 651 206 679 209 679 c 1
 215 678 223 667 224 662 c 1
 224 662 213 601 213 562 c 0
 213 142 l 18
 213 100 213 70 221 50 c 0
 226 37 271 33 284 32 c 1
 289 25 288 2 284 -4 c 1
 246 0 191 3 150 3 c 0
 109 3 54 0 16 -4 c 1
 12 2 11 25 16 32 c 1
 29 33 74 37 79 50 c 0
 87 70 86 100 86 142 c 2
 86 545 l 2
EndSplineSet
Substitution2: "'smcp' Lowercase to Small Capitals in Latin lookup 0 subtable" l.sc
EndChar

StartChar: m
Encoding: 109 109 77
Width: 862
Flags: W
HStem: -4 36<26 91 234 292 315 370 512 575 597 650 792 857> 354 30<27 86> 356 79<303 393 579 698>
VStem: 99 127<40 331> 377 127<40 331> 658 127<40 327>
LayerCount: 2
Fore
SplineSet
371 436 m 0xbc
 433 436 469 414 492 352 c 1
 535 394 607 436 652 436 c 0
 763 436 785 359 785 205 c 2
 785 142 l 2
 785 100 784 70 792 50 c 0
 797 37 842 33 855 32 c 1
 860 25 859 2 855 -4 c 1
 817 0 762 3 721 3 c 0
 680 3 637 0 599 -4 c 1
 595 2 594 25 599 32 c 1
 612 33 645 37 650 50 c 0
 658 70 658 100 658 142 c 2
 658 219 l 2
 658 289 644 356 592 356 c 0
 553 356 500 323 500 303 c 8
 500 301 500 299 500 297 c 0
 502 270 504 239 504 205 c 2
 504 142 l 2
 504 100 504 70 512 50 c 0
 517 37 560 33 573 32 c 1
 578 25 577 2 573 -4 c 1
 535 0 482 3 441 3 c 0
 400 3 355 0 317 -4 c 1
 313 2 312 25 317 32 c 1
 330 33 365 37 370 50 c 0
 378 70 377 100 377 142 c 2
 377 219 l 2
 377 289 364 356 312 356 c 0xbc
 273 356 226 322 226 302 c 2
 226 142 l 2
 226 106 226 70 234 50 c 0
 239 37 276 33 289 32 c 1
 294 25 293 2 289 -4 c 1
 251 0 203 3 162 3 c 0
 121 3 67 0 29 -4 c 1
 25 2 24 25 29 32 c 1
 42 33 86 37 91 50 c 0
 99 70 99 100 99 142 c 2
 99 254 l 2
 99 264 98 319 90 334 c 0
 82 349 36 354 29 354 c 1
 26 356 25 384 30 384 c 1xdc
 104 390 183 417 220 436 c 1
 227 434 237 422 237 419 c 1
 234 411 226 364 227 363 c 0
 227 360 227 358 228 357 c 1
 230 357 233 360 235 362 c 0
 262 393 326 436 371 436 c 0xbc
EndSplineSet
Substitution2: "'smcp' Lowercase to Small Capitals in Latin lookup 0 subtable" m.sc
EndChar

StartChar: n
Encoding: 110 110 78
Width: 582
Flags: W
HStem: -4 36<26 91 234 292 317 370 512 577> 354 30<27 86> 356 1<228 312> 416 20G<202 223>
VStem: 99 127<40 331> 377 127<40 327>
LayerCount: 2
Fore
SplineSet
371 436 m 0xbc
 482 436 504 359 504 205 c 2
 504 142 l 2
 504 100 504 70 512 50 c 0
 517 37 562 33 575 32 c 1
 580 25 579 2 575 -4 c 1
 537 0 482 3 441 3 c 0
 400 3 357 0 319 -4 c 1
 315 2 314 25 319 32 c 1
 332 33 365 37 370 50 c 0
 378 70 377 100 377 142 c 2
 377 219 l 2
 377 289 364 356 312 356 c 0xbc
 273 356 226 322 226 302 c 2
 226 142 l 2
 226 106 226 70 234 50 c 0
 239 37 276 33 289 32 c 1
 294 25 293 2 289 -4 c 1
 251 0 203 3 162 3 c 0
 121 3 67 0 29 -4 c 1
 25 2 24 25 29 32 c 1
 42 33 86 37 91 50 c 0
 99 70 99 100 99 142 c 2
 99 254 l 2
 99 264 98 319 90 334 c 0
 82 349 36 354 29 354 c 1
 26 356 25 384 30 384 c 1xdc
 104 390 183 417 220 436 c 1
 226 436 237 424 237 419 c 1
 235 411 227 364 227 363 c 0
 227 360 227 358 228 357 c 1
 230 357 233 360 235 362 c 0
 262 393 326 436 371 436 c 0xbc
EndSplineSet
Substitution2: "'smcp' Lowercase to Small Capitals in Latin lookup 0 subtable" n.sc
EndChar

StartChar: o
Encoding: 111 111 79
Width: 519
Flags: W
HStem: -7 41<224 315> 396 40<204 292>
VStem: 31 139<116 306> 350 139<124 315>
LayerCount: 2
Fore
SplineSet
248 396 m 3
 177 396 170 302 170 231 c 27
 170 145 200 34 271 34 c 3
 342 34 350 127 350 197 c 27
 350 284 319 396 248 396 c 3
259 437 m 0
 394 437 488 344 488 220 c 0
 488 97 390 -7 261 -7 c 0
 125 -7 31 89 31 212 c 0
 31 335 131 437 259 437 c 0
EndSplineSet
Substitution2: "'smcp' Lowercase to Small Capitals in Latin lookup 0 subtable" o.sc
EndChar

StartChar: p
Encoding: 112 112 80
Width: 540
Flags: W
HStem: -213 36<11 76 218 283> -8 43<224 318> 354 30<11 70> 366 71<259 324>
VStem: 83 127<-169 1 49 344> 369 141<132 316>
LayerCount: 2
Fore
SplineSet
318 438 m 0xdc
 436 438 509 337 509 229 c 0
 509 80 377 -8 270 -8 c 0
 243 -8 217 1 213 1 c 1
 210 1 210 -3 210 -15 c 2
 210 -67 l 2
 210 -109 210 -139 218 -159 c 0
 223 -172 268 -176 281 -177 c 1
 286 -184 285 -207 281 -213 c 1
 243 -209 188 -206 147 -206 c 0
 106 -206 51 -209 13 -213 c 1
 9 -207 8 -184 13 -177 c 1
 26 -176 71 -172 76 -159 c 0
 84 -139 83 -109 83 -67 c 2
 83 254 l 2
 83 264 83 319 75 334 c 0
 67 349 20 354 13 354 c 1
 10 356 9 384 14 384 c 1xec
 88 390 167 417 204 436 c 1
 211 434 221 422 221 419 c 1
 219 413 212 402 212 386 c 0
 212 380 214 378 216 380 c 0
 245 411 288 438 318 438 c 0xdc
264 366 m 0xdc
 228 366 210 344 210 339 c 2
 210 94 l 2
 210 55 243 35 277 35 c 0
 309 35 369 81 369 194 c 0
 369 295 343 366 264 366 c 0xdc
EndSplineSet
Substitution2: "'smcp' Lowercase to Small Capitals in Latin lookup 0 subtable" p.sc
EndChar

StartChar: q
Encoding: 113 113 81
Width: 521
Flags: W
HStem: -213 36<256 320 463 528> -8 62<162 295> 385 51<206 312>
VStem: 31 139<116 286> 328 127<-169 30 62 367>
LayerCount: 2
Fore
SplineSet
256 385 m 0
 188 385 170 306 170 237 c 0
 170 156 195 55 270 55 c 0
 305 55 328 74 328 78 c 2
 328 336 l 2
 328 346 307 385 256 385 c 0
293 436 m 0
 330 436 379 413 408 413 c 0
 429 413 437 418 443 420 c 1
 449 418 467 403 467 396 c 1
 462 384 455 351 455 284 c 2
 455 -67 l 2
 455 -109 455 -139 463 -159 c 0
 468 -172 512 -176 525 -177 c 1
 530 -184 529 -207 525 -213 c 1
 487 -209 433 -206 392 -206 c 0
 351 -206 296 -209 258 -213 c 1
 254 -207 253 -184 258 -177 c 1
 271 -176 315 -172 320 -159 c 0
 328 -139 328 -109 328 -67 c 2
 328 17 l 2
 328 23 328 34 322 29 c 0
 307 18 257 -8 211 -8 c 0
 112 -8 31 83 31 188 c 0
 31 341 169 436 293 436 c 0
EndSplineSet
Substitution2: "'smcp' Lowercase to Small Capitals in Latin lookup 0 subtable" q.sc
EndChar

StartChar: r
Encoding: 114 114 82
Width: 438
Flags: W
HStem: -4 36<26 91 234 308> 340 97<271 367> 354 30<27 86>
VStem: 99 127<41 313>
LayerCount: 2
Fore
SplineSet
355 437 m 11xd0
 380 437 403 432 416 420 c 1
 420 414 427 393 427 372 c 0
 427 339 402 295 369 295 c 3
 351 295 339 309 327 319 c 0
 316 329 308 340 291 340 c 11xd0
 251 340 226 282 226 261 c 2
 226 142 l 2
 226 106 226 70 234 50 c 0
 239 37 293 33 306 32 c 1
 311 25 310 2 306 -4 c 1
 268 0 203 3 162 3 c 0
 121 3 67 0 29 -4 c 1
 25 2 24 25 29 32 c 1
 42 33 86 37 91 50 c 0
 99 70 99 100 99 142 c 2
 99 254 l 2
 99 264 98 319 90 334 c 0
 82 349 36 354 29 354 c 1
 26 356 25 384 30 384 c 1xb0
 104 390 183 417 220 436 c 1
 227 434 237 422 237 419 c 1
 234 411 227 356 227 342 c 0
 227 337 232 337 233 339 c 0
 256 381 293 437 355 437 c 11xd0
EndSplineSet
Substitution2: "'smcp' Lowercase to Small Capitals in Latin lookup 0 subtable" r.sc
EndChar

StartChar: s
Encoding: 115 115 83
Width: 394
Flags: W
HStem: -8 39<125 227> 398 39<165 268>
VStem: 37 116<268 371> 44 36<84 146> 241 117<55 169>
LayerCount: 2
Fore
SplineSet
219 438 m 0xe8
 265 438 296 426 328 419 c 1
 336 386 349 316 349 299 c 0
 349 295 338 292 331 292 c 0
 323 292 318 296 312 300 c 1
 302 344 277 398 209 398 c 0
 177 398 153 381 153 346 c 0xe8
 153 295 210 280 253 259 c 0
 304 234 358 210 358 127 c 0
 358 29 268 -8 166 -8 c 0
 123 -8 76 7 52 13 c 1
 48 35 44 129 44 140 c 0
 44 146 54 146 59 146 c 0
 66 146 77 143 80 137 c 1xd8
 94 52 147 31 186 31 c 0
 220 31 241 57 241 84 c 0
 241 133 187 146 141 171 c 0
 84 202 37 237 37 303 c 0
 37 401 142 438 219 438 c 0xe8
EndSplineSet
Substitution2: "'smcp' Lowercase to Small Capitals in Latin lookup 0 subtable" s.sc
EndChar

StartChar: t
Encoding: 116 116 84
Width: 333
Flags: W
HStem: -7 62<177 271> 372 46<15 80 207 320>
VStem: 80 127<67 372 418 488>
LayerCount: 2
Fore
SplineSet
207 418 m 1
 214 418 286 418 318 418 c 0
 322 418 324 410 324 405 c 0
 324 396 312 379 302 372 c 1
 273 372 239 372 207 372 c 1
 207 130 l 2
 207 78 224 56 260 56 c 0
 283 56 309 76 312 79 c 1
 314 77 318 70 318 65 c 0
 318 60 313 49 311 47 c 0
 302 37 258 -7 207 -7 c 0
 146 -7 80 27 80 136 c 2
 80 372 l 1
 54 372 36 372 11 372 c 1
 6 374 6 381 6 385 c 1
 16 399 25 408 37 418 c 1
 50 418 70 418 80 418 c 9
 80 418 80 450 80 470 c 1
 117 501 153 543 183 573 c 1
 194 580 206 579 207 573 c 1
 207 520 207 470 207 418 c 1
EndSplineSet
Substitution2: "'smcp' Lowercase to Small Capitals in Latin lookup 0 subtable" t.sc
EndChar

StartChar: u
Encoding: 117 117 85
Width: 552
Flags: W
HStem: -5 60<159 307> 27 31<483 530> 354 30<9 68 275 334> 416 20G<184 206 450 472>
VStem: 82 127<85 344> 347 127<69 344>
LayerCount: 2
Fore
SplineSet
347 254 m 2xbc
 347 264 346 319 338 334 c 0
 330 349 284 354 277 354 c 1
 274 356 273 384 278 384 c 1
 352 390 431 417 468 436 c 1
 475 434 485 422 485 419 c 1
 482 411 476 377 475 363 c 0
 474 342 474 308 474 302 c 2
 474 105 l 10
 474 90 474 78 483 68 c 0
 492 58 518 59 527 59 c 1
 529 57 530 53 530 46 c 0
 530 40 528 33 524 27 c 1x7c
 466 21 369 -7 356 -7 c 0
 352 -7 347 2 347 17 c 2
 347 32 l 18
 347 34 347 39 344 37 c 0
 328 26 275 -5 207 -5 c 3
 112 -5 82 78 82 170 c 2
 82 254 l 2
 82 264 81 319 73 334 c 0
 65 349 18 354 11 354 c 1
 8 356 7 384 12 384 c 1
 86 390 166 417 203 436 c 1
 210 434 219 422 219 419 c 1
 216 411 210 377 209 363 c 0
 208 342 208 308 208 302 c 2
 208 214 l 2
 208 110 224 55 285 55 c 0
 312 55 347 76 347 91 c 2
 347 254 l 2xbc
EndSplineSet
Substitution2: "'smcp' Lowercase to Small Capitals in Latin lookup 0 subtable" u.sc
EndChar

StartChar: v
Encoding: 118 118 86
Width: 520
Flags: W
HStem: -11 21G<246 254> 396 36<-3 46 201 257 315 384 455 524>
LayerCount: 2
Fore
SplineSet
132 426 m 0
 173 426 231 430 255 433 c 1
 260 428 260 402 255 396 c 1
 243 396 197 387 197 370 c 0
 197 367 197 360 199 355 c 0
 234 287 300 163 300 163 c 1
 300 163 345 262 377 334 c 0
 382 344 387 359 387 370 c 0
 387 394 326 396 318 396 c 1
 313 401 313 426 317 433 c 1
 346 429 382 426 420 426 c 0
 461 426 506 431 521 433 c 1
 525 428 526 403 521 396 c 1
 509 396 456 392 442 364 c 2
 292 44 l 2
 272 6 260 -11 248 -11 c 0
 245 -11 239 -6 236 -3 c 1
 179 114 126 224 61 359 c 1
 48 388 8 396 -0 396 c 1
 -6 404 -4 427 -0 433 c 1
 25 430 94 426 132 426 c 0
EndSplineSet
Substitution2: "'smcp' Lowercase to Small Capitals in Latin lookup 0 subtable" v.sc
EndChar

StartChar: w
Encoding: 119 119 87
Width: 770
Flags: W
HStem: -11 21G<244 250 510 516> 396 36<-3 46 201 257 285 332 488 544 573 642 713 773>
VStem: 358 126<313 375>
LayerCount: 2
Fore
SplineSet
125 426 m 0
 166 426 231 430 255 433 c 1
 260 428 260 402 255 396 c 1
 243 396 197 387 197 370 c 0
 197 367 197 360 199 355 c 0
 234 287 294 168 294 168 c 1
 294 168 358 312 358 327 c 0
 358 338 352 353 349 359 c 0
 334 387 296 396 288 396 c 1
 281 404 283 427 287 433 c 1
 326 428 381 427 419 426 c 1
 460 426 518 430 542 433 c 1
 547 428 547 402 542 396 c 1
 530 396 484 387 484 370 c 0
 484 367 484 360 486 355 c 0
 517 285 568 176 568 176 c 1
 568 176 604 263 635 334 c 0
 639 344 645 359 645 370 c 0
 645 394 584 396 576 396 c 1
 571 401 571 426 575 433 c 1
 604 429 640 426 678 426 c 0
 719 426 755 431 770 433 c 1
 774 428 775 403 770 396 c 1
 758 396 717 395 704 366 c 8
 649 239 618 168 560 43 c 16
 542 5 521 -11 512 -11 c 0
 509 -11 503 -6 500 -3 c 1
 500 -3 423 194 391 270 c 1
 361 194 295 43 295 43 c 2
 278 5 255 -11 246 -11 c 0
 243 -11 237 -6 234 -3 c 1
 166 143 127 225 61 359 c 1
 47 388 8 396 -0 396 c 1
 -6 404 -4 427 -0 433 c 1
 25 430 87 426 125 426 c 0
EndSplineSet
Substitution2: "'smcp' Lowercase to Small Capitals in Latin lookup 0 subtable" w.sc
EndChar

StartChar: x
Encoding: 120 120 88
Width: 544
Flags: W
HStem: -4 36<6 69 168 237 275 324 487 540> 396 36<15 70 229 277 303 372 461 528>
LayerCount: 2
Fore
SplineSet
152 426 m 1
 193 426 251 430 275 433 c 1
 280 428 280 402 275 396 c 1
 263 396 228 392 228 375 c 0
 228 372 234 366 238 361 c 10
 300 281 l 17
 328 311 375 361 375 370 c 0
 375 394 314 396 306 396 c 1
 301 401 301 426 305 433 c 1
 334 429 370 426 408 426 c 0
 449 426 511 431 526 433 c 1
 530 428 531 403 526 396 c 1
 508 396 472 393 445 365 c 0
 410 328 380 295 332 240 c 9
 386 172 418 131 471 64 c 0
 491 39 529 32 537 32 c 1
 544 24 541 2 537 -4 c 1
 498 1 440 2 402 3 c 1
 361 3 302 -1 278 -4 c 1
 273 1 273 26 278 32 c 1
 290 32 325 37 325 54 c 0
 325 57 319 62 315 67 c 10
 245 152 l 17
 223 129 188 94 172 73 c 0
 167 67 164 62 164 59 c 0
 164 35 226 32 234 32 c 1
 239 27 239 3 235 -4 c 1
 206 0 170 3 132 3 c 0
 91 3 23 -2 8 -4 c 1
 4 1 3 25 8 32 c 1
 26 32 67 43 90 65 c 0
 138 111 165 144 213 194 c 25
 163 260 138 298 85 365 c 0
 65 390 26 396 18 396 c 1
 11 404 13 427 17 433 c 1
 56 428 114 427 152 426 c 1
EndSplineSet
Substitution2: "'smcp' Lowercase to Small Capitals in Latin lookup 0 subtable" x.sc
EndChar

StartChar: y
Encoding: 121 121 89
Width: 521
Flags: W
HStem: -213 98<17 132> 396 36<-3 46 201 257 315 384 455 524>
LayerCount: 2
Fore
SplineSet
132 426 m 0
 173 426 231 430 255 433 c 1
 260 428 260 402 255 396 c 1
 243 396 197 387 197 370 c 0
 197 367 197 360 199 355 c 0
 234 287 300 163 300 163 c 1
 300 163 345 262 377 334 c 0
 382 344 387 359 387 370 c 0
 387 394 326 396 318 396 c 1
 313 401 313 426 317 433 c 1
 346 429 382 426 420 426 c 0
 461 426 506 431 521 433 c 1
 525 428 526 403 521 396 c 1
 509 396 456 392 442 364 c 2
 442 364 342 153 281 24 c 0
 251 -39 236 -81 195 -132 c 0
 144 -196 101 -213 71 -213 c 0
 30 -213 6 -187 6 -161 c 3
 6 -139 15 -124 28 -115 c 1
 105 -115 149 -105 189 -39 c 0
 207 -10 210 1 223 30 c 1
 183 111 61 359 61 359 c 1
 48 388 8 396 -0 396 c 1
 -6 404 -4 427 -0 433 c 1
 25 430 94 426 132 426 c 0
EndSplineSet
Substitution2: "'smcp' Lowercase to Small Capitals in Latin lookup 0 subtable" y.sc
EndChar

StartChar: z
Encoding: 122 122 90
Width: 449
Flags: W
HStem: 0 45<173 341> 373 45<104 251>
VStem: 36 34<275 325>
LayerCount: 2
Fore
SplineSet
146 418 m 2
 281 418 l 2
 334 418 367 421 407 426 c 1
 412 418 410 407 410 402 c 1
 173 45 l 25
 284 45 l 2
 344 45 379 107 387 144 c 0
 388 149 395 150 399 150 c 0
 410 150 423 142 424 141 c 1
 411 103 385 0 385 0 c 1
 38 0 l 1
 38 0 28 8 28 17 c 0
 28 22 30 29 32 33 c 2
 251 372 l 1
 251 372 180 373 149 373 c 0
 99 373 81 315 70 281 c 0
 69 277 58 274 48 274 c 0
 42 274 36 276 36 278 c 1
 39 294 51 372 54 424 c 1
 54 424 111 418 146 418 c 2
EndSplineSet
Substitution2: "'smcp' Lowercase to Small Capitals in Latin lookup 0 subtable" z.sc
EndChar

StartChar: braceleft
Encoding: 123 123 91
Width: 291
Flags: W
HStem: -141 25<249 264> 717 25<249 264>
VStem: 78 111<-22 101 501 624> 104 112<89 225 376 512>
LayerCount: 2
Fore
SplineSet
104 414 m 0xd0
 104 444 96 467 88 492 c 0
 83 510 78 529 78 553 c 0
 78 655 211 738 259 742 c 1
 262 742 272 725 266 717 c 1
 239 702 189 658 189 595 c 0xe0
 189 557 198 540 205 521 c 0
 211 505 217 486 217 448 c 0
 217 363 131 301 96 301 c 1
 131 301 217 238 217 153 c 0xd0
 217 115 211 96 205 80 c 0
 198 61 189 45 189 7 c 0
 189 -56 239 -100 266 -115 c 1
 272 -123 262 -141 259 -141 c 1
 211 -137 78 -53 78 49 c 0xe0
 78 79 85 101 92 123 c 0
 98 143 104 164 104 188 c 0
 104 240 60 277 19 290 c 1
 17 292 16 298 16 301 c 0
 16 305 17 310 19 312 c 1
 60 325 104 362 104 414 c 0xd0
EndSplineSet
Substitution2: "'smcp' Lowercase to Small Capitals in Latin lookup 0 subtable" braceleft.sc
EndChar

StartChar: bar
Encoding: 124 124 92
Width: 197
Flags: W
VStem: 73 52<-115 747>
LayerCount: 2
Fore
SplineSet
124 -105 m 2
 124 -113 79 -120 77 -120 c 0
 70 -120 73 -116 73 -112 c 2
 73 739 l 1
 73 739 71 745 77 747 c 0
 94 752 112 752 115 752 c 0
 124 752 123 746 123 746 c 1
 124 -105 l 2
EndSplineSet
Substitution2: "'smcp' Lowercase to Small Capitals in Latin lookup 0 subtable" bar.sc
EndChar

StartChar: braceright
Encoding: 125 125 93
Width: 291
Flags: W
HStem: -141 25<28 43> 717 25<28 43>
VStem: 75 112<89 225 376 512> 102 111<-22 101 501 624>
LayerCount: 2
Fore
SplineSet
33 742 m 1xd0
 81 738 214 655 214 553 c 0xd0
 214 527 208 505 202 486 c 0
 195 463 187 442 187 414 c 0
 187 362 232 325 273 312 c 1
 275 310 276 305 276 301 c 0
 276 298 275 292 273 290 c 1
 232 277 187 240 187 188 c 0xe0
 187 163 193 142 200 121 c 0
 207 100 214 78 214 49 c 0
 214 -53 81 -137 33 -141 c 1
 30 -141 20 -123 26 -115 c 1
 53 -100 102 -56 102 7 c 0xd0
 102 44 95 60 88 78 c 0
 81 95 75 114 75 153 c 0
 75 238 161 301 196 301 c 1
 161 301 75 363 75 448 c 0xe0
 75 495 84 513 92 533 c 0
 98 548 102 565 102 595 c 0
 102 658 53 702 26 717 c 1
 20 725 30 742 33 742 c 1xd0
EndSplineSet
Substitution2: "'smcp' Lowercase to Small Capitals in Latin lookup 0 subtable" braceright.sc
EndChar

StartChar: asciitilde
Encoding: 126 126 94
Width: 537
Flags: W
HStem: 233 59<314 441> 299 59<102 228>
LayerCount: 2
Fore
SplineSet
255 267 m 0
 221 281 182 299 138 299 c 0
 100 299 66 269 54 253 c 1
 51 254 48 257 47 261 c 1
 47 300 109 357 167 357 c 0
 213 357 254 339 288 324 c 0
 321 310 361 292 405 292 c 0
 443 292 477 322 489 338 c 1
 492 337 495 334 496 330 c 1
 496 291 434 233 376 233 c 0
 330 233 289 253 255 267 c 0
EndSplineSet
EndChar

StartChar: exclamdown
Encoding: 161 161 96
Width: 241
Flags: W
HStem: 286 146<70 173>
VStem: 48 146<309 410> 57 125<-190 60>
LayerCount: 2
Fore
SplineSet
48 360 m 0xc0
 48 399 80 433 120 433 c 27
 161 433 194 399 194 357 c 0
 194 318 161 286 121 286 c 27
 80 286 48 321 48 360 c 0xc0
117 -205 m 0
 87 -205 57 -181 57 -139 c 0
 57 -112 85 120 98 206 c 1
 102 219 105 227 117 231 c 1
 122 231 134 225 140 215 c 1
 151 150 182 -90 182 -140 c 0xa0
 182 -181 152 -205 117 -205 c 0
EndSplineSet
Substitution2: "'smcp' Lowercase to Small Capitals in Latin lookup 0 subtable" exclamdown.sc
EndChar

StartChar: cent
Encoding: 162 162 97
Width: 470
Flags: W
HStem: -9 82<234 338> 387 51<200 325>
VStem: 43 123<148 284> 274 34<427 467>
LayerCount: 2
Fore
SplineSet
274 470 m 17
 282 470 309 469 309 462 c 1
 228 -37 l 1
 219 -37 196 -34 193 -28 c 9
 274 470 l 17
EndSplineSet
Refer: 67 99 N 1 0 0 1 13 0 2
EndChar

StartChar: sterling
Encoding: 163 163 98
Width: 466
UnlinkRmOvrlpSave: 1
Flags: W
HStem: -8 100<286 363> 50 84<122 251> 300 41<57 370> 566 55<236 326>
VStem: 97 103<350 471> 127 111<187 299>
LayerCount: 2
Fore
SplineSet
309 621 m 0xb8
 343 621 359 612 378 600 c 1
 382 596 387 578 387 568 c 0
 387 533 365 511 339 511 c 0
 312 511 300 522 289 536 c 0
 277 551 265 566 247 566 c 0
 208 566 199 515 199 448 c 0xb8
 199 376 239 331 239 276 c 0
 239 203 193 141 169 119 c 1
 187 129 211 134 233 134 c 0x74
 270 134 302 92 353 92 c 0
 390 92 404 123 412 138 c 1
 416 140 424 136 428 131 c 24
 433 125 433 118 433 112 c 1
 422 81 377 -8 301 -8 c 0xb4
 235 -8 208 50 136 50 c 0x74
 111 50 78 10 61 -6 c 1
 53 -6 45 7 45 16 c 0
 45 44 80 76 94 92 c 0
 118 119 127 179 127 227 c 0xb4
 127 276 97 348 97 375 c 0
 97 508 217 621 309 621 c 0xb8
66 341 m 1
 82 341 363 341 374 341 c 1
 388 330 371 304 365 300 c 1
 46 300 l 17
 40 306 57 341 66 341 c 1
EndSplineSet
EndChar

StartChar: currency
Encoding: 164 164 99
Width: 549
Flags: W
HStem: 117 39<236 325> 445 39<224 312>
VStem: 95 91<213 388> 360 91<213 388>
LayerCount: 2
Fore
SplineSet
281 156 m 0
 330 156 360 214 360 287 c 0
 360 377 319 445 268 445 c 0
 219 445 186 385 186 312 c 0
 186 222 230 156 281 156 c 0
384 444 m 1
 441 498 l 2
 449 506 474 478 481 455 c 1
 423 400 l 1
 441 371 451 336 451 300 c 0
 451 261 440 224 419 194 c 1
 472 138 l 2
 480 130 452 105 429 98 c 1
 378 151 l 1
 349 130 313 117 274 117 c 0
 232 117 193 132 163 156 c 1
 111 107 l 2
 103 99 78 127 71 150 c 1
 124 200 l 1
 105 229 95 264 95 300 c 0
 95 343 109 382 132 413 c 1
 81 468 l 2
 73 476 101 501 124 508 c 1
 175 454 l 1
 203 474 237 484 274 484 c 0
 316 484 354 469 384 444 c 1
EndSplineSet
EndChar

StartChar: yen
Encoding: 165 165 100
Width: 675
UnlinkRmOvrlpSave: 1
Flags: W
HStem: -4 36<183 247 400 465> 146 41<170 483> 224 41<170 483> 592 36<28 83 251 310 426 498 581 650>
VStem: 255 137<40 299>
LayerCount: 2
Fore
SplineSet
178 187 m 1
 194 187 476 187 487 187 c 1
 501 176 483 150 477 146 c 1
 159 146 l 17
 153 152 169 187 178 187 c 1
178 265 m 1
 194 265 476 265 487 265 c 1
 501 254 483 228 477 224 c 1
 159 224 l 17
 153 230 169 265 178 265 c 1
255 142 m 2
 255 258 l 2
 255 259 254 268 252 273 c 0
 232 320 127 506 127 506 c 2
 112 533 109 540 97 560 c 0
 82 584 44 591 31 592 c 1
 26 599 27 622 31 628 c 1
 69 624 129 621 170 621 c 0
 211 621 270 624 308 628 c 1
 312 622 313 599 308 592 c 1
 295 591 248 589 248 565 c 0
 248 561 251 557 255 550 c 2
 372 334 l 1
 377 329 453 468 495 546 c 0
 499 554 500 561 500 568 c 0
 500 586 441 591 428 592 c 1
 423 599 424 622 428 628 c 1
 474 624 493 621 538 621 c 0
 581 621 608 626 648 628 c 1
 652 622 653 599 648 592 c 1
 635 591 591 589 576 567 c 0
 557 538 425 327 398 271 c 0
 395 265 393 255 393 253 c 2
 392 142 l 2
 392 100 392 70 400 50 c 0
 405 37 449 33 462 32 c 1
 467 25 466 2 462 -4 c 1
 424 0 364 3 323 3 c 0
 282 3 223 0 185 -4 c 1
 181 2 180 25 185 32 c 1
 198 33 242 37 247 50 c 0
 255 70 255 100 255 142 c 2
EndSplineSet
EndChar

StartChar: brokenbar
Encoding: 166 166 101
Width: 205
Flags: W
VStem: 77 52<-115 251 381 747>
LayerCount: 2
Fore
SplineSet
129 391 m 2
 129 383 84 376 82 376 c 0
 75 376 77 380 77 384 c 2
 77 739 l 1
 77 739 76 745 82 747 c 0
 99 752 118 752 121 752 c 0
 130 752 129 746 129 746 c 1
 129 391 l 2
77 -112 m 2
 77 243 l 1
 77 243 76 249 82 251 c 0
 99 256 118 256 121 256 c 0
 130 256 129 250 129 250 c 1
 129 -105 l 2
 129 -113 84 -120 82 -120 c 0
 75 -120 77 -116 77 -112 c 2
EndSplineSet
EndChar

StartChar: section
Encoding: 167 167 102
Width: 456
UnlinkRmOvrlpSave: 1
Flags: W
HStem: -90 49<136 233> 589 49<224 320>
VStem: 35 69<340 440> 122 57<441 555> 277 57<-7 106> 352 69<108 208>
LayerCount: 2
Fore
SplineSet
313 638 m 0
 204 638 122 553 122 475 c 0
 122 409 194 355 241 312 c 0
 294 263 352 208 352 127 c 0
 352 84 336 64 313 36 c 0
 313 36 293 15 286 -3 c 24
 281 -14 285 -21 284 -33 c 17
 321 -8 421 103 421 180 c 0
 421 270 366 317 304 375 c 0
 258 417 179 491 179 536 c 0
 179 573 223 589 253 589 c 0
 268 589 282 584 291 576 c 0
 300 568 312 557 331 557 c 0
 359 557 369 575 369 596 c 0
 369 602 367 615 362 625 c 1
 348 631 327 638 313 638 c 0
143 -90 m 0
 252 -90 334 -5 334 73 c 0
 334 139 262 192 215 235 c 0
 162 284 104 340 104 421 c 0
 104 464 118 481 143 511 c 0
 143 511 163 533 170 551 c 24
 175 562 171 569 172 581 c 17
 135 556 35 445 35 368 c 0
 35 278 90 231 152 173 c 0
 198 131 277 57 277 12 c 0
 277 -25 233 -41 203 -41 c 0
 188 -41 176 -38 168 -30 c 0
 159 -21 145 -9 126 -9 c 0
 98 -9 87 -30 87 -51 c 0
 87 -57 90 -69 94 -76 c 1
 106 -82 129 -90 143 -90 c 0
EndSplineSet
EndChar

StartChar: copyright
Encoding: 169 169 104
Width: 637
Flags: W
HStem: 37 43<227 410> 159 24<295 378> 419 25<290 374> 525 45<224 413>
VStem: 52 44<209 397> 180 70<218 375> 412 19<229 249> 541 45<209 397>
LayerCount: 2
Fore
SplineSet
431 246 m 1
 431 241 420 187 414 185 c 0
 389 176 358 159 321 159 c 0
 238 159 180 212 180 298 c 0
 180 385 249 444 325 444 c 0
 351 444 387 434 410 429 c 1
 411 424 424 373 424 368 c 0
 424 366 414 362 409 362 c 3
 407 362 405 361 403 363 c 1
 399 379 385 419 328 419 c 0
 271 419 250 360 250 303 c 0
 250 241 276 184 333 184 c 0
 357 184 373 190 384 200 c 0
 401 216 411 247 412 250 c 1
 418 250 428 249 431 246 c 1
96 303 m 0
 96 180 195 80 318 80 c 0
 441 80 541 180 541 303 c 0
 541 426 441 525 318 525 c 0
 195 525 96 426 96 303 c 0
52 304 m 0
 52 451 171 570 318 570 c 0
 465 570 586 451 586 304 c 0
 586 157 465 37 318 37 c 0
 171 37 52 157 52 304 c 0
EndSplineSet
EndChar

StartChar: ordfeminine
Encoding: 170 170 105
Width: 377
Flags: W
HStem: 242 47<109 199 258 326> 515 29<141 226>
VStem: 42 96<295 367> 51 77<437 493> 210 93<295 390 417 504>
LayerCount: 2
Fore
SplineSet
182 289 m 0xe8
 197 289 210 300 210 304 c 2
 210 390 l 1
 196 385 177 379 162 370 c 0
 142 358 138 344 138 329 c 0
 139 301 163 289 182 289 c 0xe8
196 544 m 0
 255 544 303 501 303 441 c 2
 303 319 l 2
 303 301 311 295 320 295 c 0
 330 295 340 303 343 304 c 1
 346 303 350 294 350 290 c 3
 350 285 348 281 346 278 c 1
 336 269 300 243 270 243 c 0
 247 243 222 257 215 273 c 1
 208 268 161 242 136 242 c 0
 82 242 42 283 42 322 c 0xe8
 42 347 61 370 79 377 c 0
 105 387 174 412 210 425 c 1
 210 430 210 430 210 435 c 2
 210 452 l 2
 210 485 193 515 169 515 c 0
 142 515 135 491 128 462 c 0
 124 447 112 434 88 434 c 0
 68 434 51 446 51 465 c 0xd8
 51 474 55 484 61 493 c 1
 70 502 134 544 196 544 c 0
EndSplineSet
EndChar

StartChar: guillemotleft
Encoding: 171 171 106
Width: 490
Flags: HW
LayerCount: 2
Fore
SplineSet
208 242 m 0
 208 247 211 253 215 257 c 1
 343 334 415 409 420 413 c 1
 426 412 442 405 446 395 c 1
 442 389 351 277 315 242 c 1
 351 207 442 96 446 90 c 1
 442 80 426 72 420 71 c 1
 415 75 343 151 215 228 c 1
 211 232 208 237 208 242 c 0
25 242 m 0
 25 247 28 253 32 257 c 1
 160 334 232 409 237 413 c 1
 243 412 260 405 264 395 c 1
 260 389 169 277 133 242 c 1
 169 207 260 96 264 90 c 1
 260 80 243 72 237 71 c 1
 232 75 160 151 32 228 c 1
 28 232 25 237 25 242 c 0
EndSplineSet
EndChar

StartChar: logicalnot
Encoding: 172 172 107
Width: 575
Flags: W
HStem: 354 57<49 438>
VStem: 438 70<160 354>
LayerCount: 2
Fore
SplineSet
508 410 m 17
 508 165 l 1
 507 164 471 156 450 156 c 0
 440 156 438 163 438 163 c 1
 438 163 438 319 438 354 c 1
 51 354 l 1
 51 354 45 353 45 363 c 1
 45 363 50 410 60 410 c 2
 508 410 l 17
EndSplineSet
EndChar

StartChar: registered
Encoding: 174 174 108
Width: 637
Flags: W
HStem: 87 43<227 410> 229 16<197 224 287 314 445 464> 347 19<284 299> 471 19<197 224 286 329> 575 45<224 413>
VStem: 52 44<259 447> 227 58<252 347 365 466> 347 61<376 465> 541 45<259 447>
LayerCount: 2
Fore
SplineSet
317 489 m 0
 366 489 407 464 407 417 c 0
 407 385 367 359 348 354 c 1
 376 316 408 281 408 281 c 0
 436 249 461 245 464 245 c 1
 466 242 464 230 464 229 c 1
 452 228 436 227 420 227 c 0
 390 227 373 240 355 262 c 0
 297 341 l 0
 297 341 293 347 290 347 c 0
 284 347 l 9
 284 288 l 2
 284 271 284 260 287 252 c 0
 289 247 307 244 312 244 c 1
 314 241 314 231 312 229 c 1
 296 231 273 231 256 231 c 0
 239 231 214 231 198 229 c 1
 196 231 196 241 198 244 c 1
 203 244 222 247 224 252 c 0
 227 260 227 271 227 288 c 2
 227 431 l 2
 227 448 227 459 224 467 c 0
 222 472 203 473 198 473 c 1
 196 476 196 487 198 489 c 1
 216 488 240 488 257 488 c 0
 274 488 294 489 317 489 c 0
347 414 m 0
 347 445 332 471 306 471 c 0
 297 471 288 471 286 467 c 0
 284 462 284 454 284 442 c 2
 284 365 l 17
 300 365 l 0
 325 365 347 384 347 414 c 0
96 353 m 0
 96 230 195 130 318 130 c 0
 441 130 541 230 541 353 c 0
 541 476 441 575 318 575 c 0
 195 575 96 476 96 353 c 0
52 354 m 0
 52 501 171 620 318 620 c 0
 465 620 586 501 586 354 c 0
 586 207 465 87 318 87 c 0
 171 87 52 207 52 354 c 0
EndSplineSet
EndChar

StartChar: macron
Encoding: 175 175 109
Width: 458
Flags: W
HStem: 534 49<550 769>
VStem: 549 227<534 583>
LayerCount: 2
Fore
SplineSet
549 543 m 0
 549 545 550 583 561 583 c 2
 771 583 l 2
 773 583 775 582 775 576 c 0
 775 571 775 559 770 541 c 0
 768 535 763 534 763 534 c 1
 555 534 l 1
 555 534 549 533 549 543 c 0
EndSplineSet
EndChar

StartChar: degree
Encoding: 176 176 110
Width: 283
Flags: W
HStem: 415 45<95 189> 588 44<94 189>
VStem: 33 46<477 572> 205 45<477 572>
LayerCount: 2
Fore
SplineSet
79 524 m 0
 79 489 107 460 142 460 c 0
 177 460 205 489 205 524 c 0
 205 559 177 588 142 588 c 0
 107 588 79 559 79 524 c 0
33 524 m 0
 33 584 82 632 142 632 c 0
 202 632 250 584 250 524 c 0
 250 464 202 415 142 415 c 0
 82 415 33 464 33 524 c 0
EndSplineSet
EndChar

StartChar: plusminus
Encoding: 177 177 111
Width: 568
Flags: W
HStem: 9 57<52 516> 299 57<52 254 311 516>
VStem: 254 57<98 299 355 558>
LayerCount: 2
Fore
SplineSet
60 65 m 1
 510 65 l 2
 516 65 519 58 519 52 c 0
 519 31 512 19 504 9 c 1
 55 9 l 2
 50 9 49 14 49 24 c 0
 49 28 52 53 60 65 c 1
60 355 m 1
 254 355 l 1
 254 550 l 1
 265 559 291 561 295 561 c 0
 305 561 311 559 311 552 c 2
 311 355 l 1
 510 355 l 2
 516 355 519 348 519 342 c 0
 519 321 512 309 504 299 c 1
 311 299 l 1
 311 105 l 1
 299 97 275 95 265 95 c 0
 259 95 254 99 254 103 c 2
 254 299 l 1
 55 299 l 2
 50 299 49 304 49 314 c 0
 49 318 52 343 60 355 c 1
EndSplineSet
EndChar

StartChar: uni00B2
Encoding: 178 178 112
Width: 343
Flags: W
HStem: 248 69<120 263> 575 52<111 185>
VStem: 199 93<459 560>
LayerCount: 2
Fore
SplineSet
303 373 m 1
 296 345 270 259 266 248 c 9
 44 248 l 1
 41 251 38 259 37 262 c 1
 84 314 106 338 153 399 c 0
 187 443 199 476 199 513 c 0
 199 552 170 575 137 575 c 0
 94 575 72 532 67 527 c 1
 64 527 52 529 52 541 c 1
 63 563 111 627 179 627 c 0
 247 627 292 592 292 525 c 0
 292 472 250 428 213 394 c 0
 184 368 156 343 120 317 c 1
 229 317 l 2
 258 317 268 350 278 371 c 0
 279 374 285 376 289 376 c 0
 293 376 300 375 303 373 c 1
EndSplineSet
EndChar

StartChar: uni00B3
Encoding: 179 179 113
Width: 330
Flags: W
HStem: 239 26<116 185> 582 45<102 179>
VStem: 190 78<490 571> 209 88<304 407>
LayerCount: 2
Fore
SplineSet
175 627 m 0xe0
 210 627 269 605 269 545 c 0xe0
 269 485 218 470 197 466 c 1
 217 465 297 441 297 368 c 0
 297 281 201 239 125 239 c 0
 86 239 56 250 44 260 c 1
 40 266 35 277 35 286 c 0
 35 301 45 320 66 320 c 0
 83 320 94 307 105 290 c 0
 115 274 133 266 149 266 c 0
 186 266 209 292 209 346 c 0xd0
 209 391 179 433 139 433 c 0
 135 433 117 433 107 430 c 1
 105 433 102 439 102 444 c 0
 102 446 103 454 104 456 c 1
 134 460 190 476 190 525 c 0
 190 557 168 582 132 582 c 0
 100 582 73 555 69 550 c 1
 65 551 54 556 56 566 c 1
 78 595 128 627 175 627 c 0xe0
EndSplineSet
EndChar

StartChar: mu
Encoding: 181 181 115
Width: 499
Flags: W
HStem: -8 119<276 366> -4 105<478 555> 416 20G<174 185 427 438>
VStem: 144 101<-200 4> 152 104<263 414> 403 109<322 414> 412 52<158 270>
LayerCount: 2
Fore
SplineSet
225 215 m 1xa8
 231 175 251 111 301 111 c 0
 359 111 412 161 412 212 c 1xaa
 409 235 405 299 405 321 c 0
 405 334 404 375 403 412 c 1
 408 420 421 436 433 436 c 0
 443 436 513 409 513 396 c 0xa4
 513 365 498 318 487 275 c 0
 479 245 473 223 464 190 c 17
 463 110 497 102 515 102 c 0
 552 102 572 136 582 153 c 1
 588 153 598 133 600 126 c 0
 601 122 599 109 598 106 c 0
 584 65 558 -4 519 -4 c 0x62
 472 -3 444 57 435 119 c 1
 415 51 376 -8 321 -8 c 0
 272 -8 224 74 216 134 c 1
 218 110 223 -83 244 -198 c 1
 239 -206 221 -222 203 -222 c 0
 184 -222 144 -184 144 -171 c 0xb2
 144 -153 156 109 168 211 c 1
 168 234 152 349 152 371 c 0
 152 384 153 406 155 414 c 1
 159 425 168 436 180 436 c 0
 190 436 257 409 257 396 c 0
 257 359 249 328 243 301 c 0
 235 263 231 242 225 215 c 1xa8
EndSplineSet
EndChar

StartChar: paragraph
Encoding: 182 182 116
Width: 516
Flags: W
HStem: -4 36<166 230 407 473> 3 43<296 340> 281 44<291 346> 292 44<396 424> 589 44<291 346> 602 36<399 446>
VStem: 32 259<369 547> 242 49<51 280> 347 49<50 285 336 582>
LayerCount: 2
Fore
SplineSet
347 330 m 1x2980
 347 365 347 571 347 584 c 1
 343 588 328 589 318 589 c 0
 308 589 297 589 291 583 c 1
 291 583 291 425 291 325 c 1
 297 325 343 327 347 330 c 1x2980
346 285 m 1
 332 284 307 282 291 281 c 1
 291 225 291 171 291 115 c 0
 291 80 291 65 296 51 c 0
 297 48 307 46 318 46 c 0x6180
 328 46 339 47 340 50 c 0
 347 65 346 88 346 109 c 2
 346 109 346 218 346 285 c 1
395 292 m 1x1680
 395 223 395 175 395 114 c 0
 395 79 394 73 399 59 c 0
 406 40 463 33 471 33 c 1
 477 23 475 2 473 -4 c 1x9680
 438 -2 380 3 320 3 c 24x4280
 260 3 208 -2 168 -4 c 1
 163 5 166 32 168 32 c 0
 180 32 228 40 236 58 c 0
 243 73 242 92 242 113 c 2
 242 113 242 215 242 280 c 1x8180
 117 280 32 341 32 458 c 0
 32 594 142 637 222 637 c 0
 280 637 269 633 327 633 c 0x8a80
 392 633 444 638 444 638 c 1
 449 633 448 605 443 602 c 1
 428 602 403 594 398 582 c 0
 396 575 396 570 396 520 c 0
 396 460 396 355 396 336 c 1
 401 335 443 349 443 349 c 1
 448 349 447 343 447 339 c 0
 446 329 432 305 425 302 c 0
 414 297 403 293 395 292 c 1x1680
EndSplineSet
EndChar

StartChar: periodcentered
Encoding: 183 183 117
Width: 235
Flags: W
HStem: 185 146<69 168>
VStem: 46 144<207 309>
LayerCount: 2
Fore
SplineSet
46 259 m 0
 46 298 78 330 118 330 c 27
 157 330 189 298 189 259 c 0
 189 220 159 185 120 185 c 27
 79 185 46 220 46 259 c 0
EndSplineSet
EndChar

StartChar: cedilla
Encoding: 184 184 118
Width: 443
Flags: W
HStem: -152 27<159 239> -63 62<199 240>
VStem: 245 53<-122 -64>
LayerCount: 2
Fore
SplineSet
228 -24 m 1
 236 -23 240 -22 249 -22 c 27
 275 -22 298 -45 298 -70 c 0
 298 -116 263 -152 203 -152 c 0
 182 -152 163 -144 156 -137 c 1
 154 -134 152 -121 152 -117 c 0
 152 -111 153 -110 155 -110 c 1
 159 -112 181 -125 202 -125 c 0
 235 -125 245 -110 245 -96 c 0
 245 -82 241 -63 220 -63 c 0
 214 -63 204 -66 194 -70 c 1
 191 -70 182 -62 182 -56 c 1
 191 -41 203 -17 209 -2 c 1
 240 -2 l 1
 240 -2 233 -15 228 -24 c 1
EndSplineSet
EndChar

StartChar: uni00B9
Encoding: 185 185 119
Width: 284
Flags: W
HStem: 246 25<53 100 206 253> 606 20G<190 194>
VStem: 111 85<285 544>
LayerCount: 2
Fore
SplineSet
111 499 m 2
 111 525 105 545 93 545 c 0
 84 545 60 534 49 529 c 1
 44 530 38 541 38 549 c 0
 38 550 38 555 39 556 c 1
 108 585 189 626 191 626 c 2
 192 626 l 2
 196 626 207 609 208 606 c 1
 205 595 196 561 196 523 c 2
 196 338 l 2
 196 320 199 291 206 284 c 0
 214 275 247 271 252 271 c 1
 254 271 253 247 252 246 c 1
 229 247 177 250 154 250 c 0
 131 250 78 247 55 246 c 1
 52 249 52 271 55 271 c 1
 63 271 95 277 102 285 c 0
 107 291 111 328 111 339 c 2
 111 499 l 2
EndSplineSet
EndChar

StartChar: ordmasculine
Encoding: 186 186 120
Width: 396
Flags: W
HStem: 245 30<171 240> 511 29<155 224>
VStem: 34 100<317 465> 263 100<321 469>
LayerCount: 2
Fore
SplineSet
189 511 m 3
 137 511 134 450 134 403 c 27
 134 346 154 275 206 275 c 3
 258 275 263 335 263 381 c 27
 263 438 241 511 189 511 c 3
197 540 m 0
 294 540 362 478 362 396 c 0
 362 314 291 245 198 245 c 0
 101 245 34 309 34 391 c 0
 34 473 105 540 197 540 c 0
EndSplineSet
EndChar

StartChar: guillemotright
Encoding: 187 187 121
Width: 490
Flags: HW
LayerCount: 2
Fore
SplineSet
282 242 m 0
 282 237 279 232 275 228 c 1
 147 151 75 75 70 71 c 1
 64 72 48 80 44 90 c 1
 48 96 139 207 175 242 c 1
 139 277 48 389 44 395 c 1
 48 405 64 412 70 413 c 1
 75 409 147 334 275 257 c 1
 279 253 282 247 282 242 c 0
465 242 m 0
 465 237 462 232 458 228 c 1
 330 151 258 75 253 71 c 1
 247 72 231 80 227 90 c 1
 231 96 321 207 357 242 c 1
 321 277 231 389 227 395 c 1
 231 405 247 412 253 413 c 1
 258 409 330 334 458 257 c 1
 462 253 465 247 465 242 c 0
EndSplineSet
EndChar

StartChar: onequarter
Encoding: 188 188 122
Width: 719
Flags: W
HStem: -3 21G<592 616> 90 45<464 564 649 679> 246 25<46 94 200 246> 606 20G<185 201>
VStem: 105 85<285 544> 564 85<-2 90 135 256>
LayerCount: 2
Fore
SplineSet
629 377 m 0
 633 377 649 368 649 358 c 10
 649 135 l 25
 673 135 l 17
 686 123 689 108 683 90 c 1
 649 90 l 25
 649 2 l 17
 649 2 629 -3 603 -3 c 0
 582 -3 564 0 564 5 c 2
 564 90 l 25
 414 90 l 17
 409 92 402 98 402 106 c 1
 475 194 553 291 616 369 c 0
 620 374 624 377 629 377 c 0
564 135 m 1
 564 256 l 17
 542 230 476 149 464 135 c 1
 459 135 533 135 564 135 c 1
190 523 m 2
 190 338 l 2
 190 320 192 291 199 284 c 0
 207 275 240 271 245 271 c 1
 247 271 246 247 245 246 c 1
 222 247 171 250 148 250 c 0
 125 250 71 247 48 246 c 1
 45 249 45 271 48 271 c 1
 56 271 88 277 95 285 c 0
 100 291 105 328 105 339 c 2
 105 499 l 2
 105 525 98 545 86 545 c 0
 77 545 53 534 42 529 c 1
 37 530 31 555 32 556 c 1
 101 585 184 626 186 626 c 9
 186 626 200 609 201 606 c 1
 198 595 190 561 190 523 c 2
214 -33 m 0
 199 -36 197 -24 197 -24 c 1
 534 647 l 1
 540 656 552 664 569 668 c 0
 578 670 586 666 587 661 c 1
 250 -11 l 2
 247 -18 231 -29 214 -33 c 0
EndSplineSet
EndChar

StartChar: onehalf
Encoding: 189 189 123
Width: 730
Flags: W
HStem: -2 69<515 658> 246 25<47 95 201 247> 325 52<506 580> 606 20G<186 190>
VStem: 106 85<285 544> 594 93<209 310>
LayerCount: 2
Fore
SplineSet
574 377 m 0
 642 377 687 342 687 275 c 0
 687 222 645 178 608 144 c 0
 579 118 551 93 515 67 c 1
 624 67 l 2
 653 67 663 100 673 121 c 0
 674 124 680 126 684 126 c 0
 688 126 695 125 698 123 c 1
 691 95 664 9 660 -2 c 9
 439 -2 l 1
 436 1 433 9 432 12 c 1
 479 64 501 88 548 149 c 0
 582 193 594 226 594 263 c 0
 594 302 565 325 532 325 c 0
 489 325 467 282 462 277 c 1
 459 277 447 279 447 291 c 1
 458 313 506 377 574 377 c 0
191 523 m 2
 191 338 l 2
 191 320 194 291 201 284 c 0
 209 275 241 271 246 271 c 1
 248 271 247 247 246 246 c 1
 223 247 172 250 149 250 c 0
 126 250 72 247 49 246 c 1
 46 249 46 271 49 271 c 1
 57 271 89 277 96 285 c 0
 101 291 106 328 106 339 c 2
 106 499 l 2
 106 525 99 545 87 545 c 0
 78 545 54 534 43 529 c 1
 38 530 32 549 34 556 c 1
 103 585 185 626 187 626 c 1
 193 620 201 609 202 606 c 1
 199 595 191 561 191 523 c 2
567 661 m 1
 230 -11 l 2
 227 -18 211 -29 194 -33 c 0
 179 -36 177 -24 177 -24 c 1
 514 647 l 1
 520 656 532 664 549 668 c 0
 558 670 566 666 567 661 c 1
EndSplineSet
EndChar

StartChar: threequarters
Encoding: 190 190 124
Width: 722
Flags: W
HStem: -3 21G<595 619> 90 45<467 566 651 682> 239 26<114 183> 582 45<100 177>
VStem: 188 78<490 571> 207 88<304 407> 566 85<-2 90 135 256>
LayerCount: 2
Fore
SplineSet
632 377 m 0xf2
 636 377 651 368 651 358 c 10
 651 135 l 25
 676 135 l 17
 689 123 692 108 686 90 c 1
 651 90 l 25
 651 2 l 17
 651 2 631 -3 605 -3 c 0
 584 -3 566 0 566 5 c 2
 566 90 l 25
 417 90 l 17
 412 92 405 98 405 106 c 1
 478 194 556 291 619 369 c 0
 623 374 627 377 632 377 c 0xf2
566 135 m 1
 566 256 l 17
 544 230 479 149 467 135 c 1
 462 135 535 135 566 135 c 1
173 627 m 0
 208 627 267 605 267 545 c 0xfa
 267 485 216 470 195 466 c 1
 215 465 295 441 295 368 c 0
 295 281 199 239 123 239 c 0
 84 239 54 250 42 260 c 1
 38 266 33 277 33 286 c 0
 33 301 43 320 64 320 c 0
 81 320 93 307 104 290 c 0
 114 274 131 266 147 266 c 0
 184 266 207 292 207 346 c 0xf6
 207 391 177 433 137 433 c 0
 133 433 115 433 105 430 c 1
 103 433 100 439 100 444 c 0
 100 446 101 454 102 456 c 1
 132 460 188 476 188 525 c 0xfa
 188 557 166 582 130 582 c 0
 98 582 71 555 67 550 c 1
 63 551 52 556 54 566 c 1
 76 595 126 627 173 627 c 0
600 661 m 1
 263 -11 l 2
 260 -18 244 -29 227 -33 c 0
 212 -36 210 -24 210 -24 c 1
 547 647 l 1
 553 656 565 664 582 668 c 0
 591 670 599 666 600 661 c 1
EndSplineSet
EndChar

StartChar: questiondown
Encoding: 191 191 125
Width: 378
Flags: W
HStem: -209 65<143 256> 287 146<200 299>
VStem: 31 83<-114 6> 179 144<308 410> 239 37<173 231>
LayerCount: 2
Fore
SplineSet
322 358 m 0xf0
 322 317 289 287 252 287 c 0
 211 287 179 318 179 358 c 0
 179 398 209 434 248 434 c 0
 284 434 322 402 322 358 c 0xf0
276 220 m 1xe8
 283 204 296 161 296 122 c 0
 296 65 253 34 218 11 c 0
 169 -21 114 -64 114 -97 c 0
 114 -118 132 -144 167 -144 c 0
 202 -144 233 -83 274 -83 c 0
 311 -83 335 -115 335 -147 c 0
 335 -164 327 -186 320 -192 c 1
 306 -200 280 -209 232 -209 c 0
 188 -209 31 -173 31 -37 c 0
 31 49 102 82 154 114 c 0
 180 131 217 149 234 173 c 0
 241 183 239 204 239 214 c 1
 241 220 249 231 254 231 c 0
 262 231 272 224 276 220 c 1xe8
EndSplineSet
Substitution2: "'smcp' Lowercase to Small Capitals in Latin lookup 0 subtable" questiondown.sc
EndChar

StartChar: AE
Encoding: 198 198 132
Width: 879
Flags: W
HStem: -4 36<-21 39 138 196 327 391> -2 43<543 749> 4 27<-19 87> 220 47<252 399> 303 46<536 680> 605 36<328 392 539 725>
VStem: 399 137<49 220 267 300 350 508 590 602> 716 30<378 425>
LayerCount: 2
Fore
SplineSet
399 269 m 1x1f
 399 508 l 1
 252 273 l 1
 252 273 251 270 253 270 c 0
 273 268 305 267 327 267 c 0
 355 267 373 267 399 269 c 1x1f
469 642 m 0
 510 642 728 647 786 648 c 1
 793 599 805 548 814 504 c 1
 811 501 799 499 792 499 c 0
 785 499 778 502 776 507 c 0
 755 561 731 605 671 605 c 2
 590 605 l 2
 568 605 546 605 541 594 c 0
 536 582 536 562 536 534 c 2
 536 359 l 2
 536 353 557 349 578 349 c 2
 630 349 l 2
 688 349 700 360 716 417 c 0
 717 422 720 425 727 425 c 0
 734 425 743 423 746 420 c 1
 746 232 l 1
 744 230 735 229 728 229 c 0
 721 229 716 231 715 236 c 0
 703 283 690 292 681 296 c 0
 669 301 643 303 606 303 c 0
 579 303 536 301 536 289 c 2
 536 138 l 2
 536 132 536 81 544 61 c 0
 550 47 582 41 607 41 c 2
 672 41 l 2
 709 41 741 51 763 73 c 0
 784 94 798 122 815 166 c 0
 816 170 822 172 829 172 c 0
 839 172 855 169 858 166 c 1
 839 113 813 41 806 -2 c 1
 780 -2 605 -2 474 -2 c 0x5f
 402 -2 343 -3 329 -3 c 1
 325 3 324 26 329 33 c 1
 342 34 386 37 391 50 c 0
 399 70 399 100 399 142 c 2
 399 220 l 1
 369 221 343 220 322 220 c 0
 282 220 260 220 226 219 c 0
 223 219 220 216 219 214 c 2
 219 214 181 156 165 129 c 0
 150 105 133 71 132 64 c 0
 127 39 186 32 194 32 c 1
 199 25 199 0 195 -4 c 1x9f
 162 0 130 4 87 4 c 0x3f
 42 4 15 0 -20 -4 c 1x9f
 -23 0 -25 20 -19 31 c 1x3f
 -7 31 45 46 58 62 c 0
 80 89 88 104 105 131 c 2
 392 590 l 0
 392 591 392 592 391 593 c 0
 384 607 342 607 329 608 c 1
 324 615 325 639 329 645 c 1
 373 642 428 642 469 642 c 0
EndSplineSet
EndChar

StartChar: Eth
Encoding: 208 208 142
Width: 747
Flags: W
HStem: -3 41<41 107 258 427> 301 39<31 376> 605 39<40 106 251 402>
VStem: 112 137<48 602> 550 155<202 448>
LayerCount: 2
Fore
SplineSet
374 301 m 1
 346 301 46 301 32 301 c 1
 28 301 27 331 33 340 c 1
 61 340 360 340 374 340 c 1
 378 340 378 310 374 301 c 1
EndSplineSet
Refer: 36 68 N 1 0 0 1 4 0 2
EndChar

StartChar: multiply
Encoding: 215 215 149
Width: 454
Flags: HW
LayerCount: 2
Fore
SplineSet
191 242 m 1
 53 381 l 1
 53 395 71 421 80 421 c 0
 83 421 85 421 87 419 c 2
 87 419 228 282 230 280 c 9
 370 419 l 2
 371 420 373 421 376 421 c 0
 385 421 401 388 401 378 c 1
 401 378 270 247 267 244 c 1
 268 243 401 104 401 104 c 1
 401 89 387 62 376 62 c 0
 374 62 371 62 369 64 c 2
 369 64 229 205 228 206 c 1
 84 62 l 2
 82 60 80 61 78 61 c 0
 69 61 53 94 53 104 c 1
 53 104 187 238 191 242 c 1
EndSplineSet
Substitution2: "'smcp' Lowercase to Small Capitals in Latin lookup 0 subtable" multiply.sc
EndChar

StartChar: Oslash
Encoding: 216 216 150
Width: 741
Flags: W
HStem: -10 42<315 460> 609 42<282 426>
VStem: 39 156<207 434> 547 156<207 434>
LayerCount: 2
Fore
SplineSet
528 660 m 17
 536 657 567 647 565 640 c 9
 197 -18 l 17
 189 -15 158 -3 160 4 c 9
 528 660 l 17
EndSplineSet
Refer: 47 79 N 1 0 0 1 0 0 2
EndChar

StartChar: Thorn
Encoding: 222 222 156
Width: 569
Flags: W
HStem: -4 36<35 100 252 317> 3 193<155 304> 143 50<289 371> 468 37<248 350> 610 36<35 100 252 317>
VStem: 108 137<40 466 505 602> 410 139<244 407>
LayerCount: 2
Fore
SplineSet
177 640 m 0x9e
 218 640 277 642 315 646 c 1
 319 640 320 617 315 610 c 1
 302 609 257 606 252 593 c 0
 246 578 245 555 245 526 c 0
 245 519 245 513 245 505 c 1
 270 506 299 507 328 507 c 0
 450 507 548 444 548 333 c 0
 548 216 455 143 356 143 c 0xbe
 321 143 295 158 288 165 c 0
 284 169 281 181 281 189 c 0
 281 193 283 196 285 196 c 1x5e
 295 193 310 192 325 192 c 0
 373 192 410 244 410 319 c 0
 410 396 363 468 298 468 c 0
 276 468 254 467 249 456 c 0
 244 444 245 396 245 396 c 1
 245 142 l 2
 245 100 244 70 252 50 c 0
 257 37 302 33 315 32 c 1
 320 25 319 2 315 -4 c 1xbe
 277 0 216 3 175 3 c 0x5e
 134 3 75 0 37 -4 c 1
 33 2 32 25 37 32 c 1
 50 33 95 37 100 50 c 0
 108 70 108 100 108 142 c 2
 108 501 l 2
 108 543 108 573 100 593 c 0
 95 606 50 609 37 610 c 1
 32 617 33 640 37 646 c 1
 75 642 136 640 177 640 c 0x9e
EndSplineSet
EndChar

StartChar: germandbls
Encoding: 223 223 157
Width: 576
Flags: W
HStem: -10 43<21 85 225 269 367 455> 372 46<38 92> 636 46<260 342>
VStem: 92 127<40 372 418 526> 375 9<393 513> 459 90<72 179>
LayerCount: 2
Fore
SplineSet
321 682 m 0
 405 682 492 628 492 550 c 0
 492 503 464 479 442 459 c 0
 420 439 384 415 384 393 c 0
 384 357 450 307 479 279 c 0
 514 245 549 209 549 149 c 0
 549 50 457 -10 383 -10 c 0
 350 -10 310 0 294 17 c 1
 289 27 286 39 286 53 c 0
 286 84 304 119 333 119 c 0
 367 119 380 86 389 68 c 0
 398 50 409 33 428 33 c 0
 450 33 459 52 459 80 c 0
 459 128 416 166 377 205 c 0
 337 245 284 283 284 340 c 0
 284 368 311 392 333 417 c 0
 358 445 375 468 375 513 c 0
 375 569 353 636 296 636 c 0
 257 636 219 573 219 475 c 0
 219 142 l 2
 219 100 219 70 227 50 c 0
 232 37 256 33 269 32 c 1
 274 25 273 2 269 -4 c 1
 231 0 197 3 156 3 c 0
 115 3 60 0 22 -4 c 1
 18 2 17 25 22 32 c 1
 35 33 79 37 84 50 c 0
 92 70 92 100 92 142 c 2
 92 142 92 285 92 372 c 1
 66 372 60 372 35 372 c 1
 30 374 30 381 30 385 c 1
 40 399 49 408 61 418 c 1
 74 418 82 418 92 418 c 9
 92 433 l 2
 92 567 218 682 321 682 c 0
EndSplineSet
Substitution2: "'smcp' Lowercase to Small Capitals in Latin lookup 0 subtable" germandbls.sc
EndChar

StartChar: ae
Encoding: 230 230 164
Width: 679
Flags: W
HStem: -9 82<454 556> -8 68<121 231> 236 39<390 514> 396 40<166 253 427 507>
VStem: 30 132<76 169> 42 105<285 363> 528 121<283 362>
LayerCount: 2
Fore
SplineSet
197 187 m 0x7a
 170 169 161 142 162 121 c 0
 163 79 197 61 222 61 c 0
 246 61 289 83 289 100 c 1
 282 121 274 157 274 189 c 0
 274 201 274 203 275 218 c 1
 256 211 217 200 197 187 c 0x7a
469 396 m 3
 411 396 390 308 390 275 c 1
 399 274 493 280 516 283 c 0
 528 284 528 293 528 299 c 11
 528 344 513 396 469 396 c 3
479 437 m 0
 607 437 649 346 649 289 c 0
 649 268 638 249 623 248 c 0
 557 242 461 238 389 236 c 1
 389 99 481 73 525 73 c 0
 582 73 614 100 635 122 c 1
 642 120 646 110 646 104 c 3
 646 97 646 89 644 86 c 0
 626 59 560 -9 467 -9 c 0xb6
 402 -9 345 15 311 62 c 1
 261 22 191 -8 158 -8 c 0
 84 -8 30 53 30 111 c 0x7a
 30 149 56 181 81 189 c 0
 118 201 228 239 278 257 c 1
 282 260 286 271 286 278 c 0
 286 291 286 300 284 311 c 0
 274 367 238 401 204 401 c 0
 167 401 157 363 147 319 c 0
 142 297 127 276 93 276 c 0
 67 276 42 296 42 323 c 0x76
 42 336 48 349 56 363 c 1
 69 376 156 438 242 438 c 0
 288 438 329 419 356 385 c 1
 390 416 434 437 479 437 c 0
EndSplineSet
Substitution2: "'smcp' Lowercase to Small Capitals in Latin lookup 0 subtable" ae.sc
EndChar

StartChar: eth
Encoding: 240 240 174
Width: 527
UnlinkRmOvrlpSave: 1
Flags: W
HStem: -6 41<218 300> 396 41<213 303> 647 27<96 122>
VStem: 32 135<113 317> 342 136<138 349>
LayerCount: 2
Fore
SplineSet
358 691 m 17
 363 685 384 663 379 658 c 9
 132 490 l 17
 126 497 107 519 112 524 c 9
 358 691 l 17
258 396 m 0
 189 396 167 296 167 207 c 0
 167 94 221 35 259 35 c 0
 324 35 342 132 342 220 c 0
 342 270 334 325 313 366 c 1
 301 383 285 396 258 396 c 0
240 438 m 0
 264 438 283 435 304 430 c 1
 279 504 218 592 95 647 c 1
 93 658 94 669 102 675 c 1
 168 665 292 613 376 518 c 0
 434 454 478 369 478 253 c 3
 478 105 386 -6 257 -6 c 0
 153 -6 32 58 32 213 c 0
 32 364 145 438 240 438 c 0
EndSplineSet
Substitution2: "'smcp' Lowercase to Small Capitals in Latin lookup 0 subtable" eth.sc
EndChar

StartChar: divide
Encoding: 247 247 181
Width: 578
Flags: W
HStem: 2 121<242 334> 218 57<58 522> 361 121<242 334>
VStem: 228 121<17 108 376 468>
LayerCount: 2
Fore
SplineSet
228 422 m 0
 228 455 255 482 288 482 c 0
 321 482 349 455 349 422 c 0
 349 389 321 361 288 361 c 0
 255 361 228 389 228 422 c 0
228 62 m 0
 228 95 255 123 288 123 c 0
 321 123 349 95 349 62 c 0
 349 29 321 2 288 2 c 0
 255 2 228 29 228 62 c 0
62 218 m 1
 57 218 56 223 56 233 c 0
 56 237 57 262 66 274 c 1
 516 274 l 2
 522 274 524 267 524 261 c 0
 524 240 519 228 511 218 c 1
 62 218 l 1
EndSplineSet
Substitution2: "'smcp' Lowercase to Small Capitals in Latin lookup 0 subtable" divide.sc
EndChar

StartChar: oslash
Encoding: 248 248 182
Width: 519
Flags: W
HStem: -7 41<224 315> 396 40<204 292>
VStem: 31 139<116 306> 350 139<124 315>
LayerCount: 2
Fore
SplineSet
364 444 m 17
 372 441 398 433 396 426 c 9
 148 -16 l 17
 140 -13 115 -3 117 4 c 9
 364 444 l 17
EndSplineSet
Refer: 79 111 N 1 0 0 1 0 0 2
Substitution2: "'smcp' Lowercase to Small Capitals in Latin lookup 0 subtable" oslash.sc
EndChar

StartChar: thorn
Encoding: 254 254 188
Width: 522
Flags: W
HStem: -213 36<-7 58 201 265> -8 43<207 301> 366 71<241 307> 609 31<-2 54> 659 20G<187 192>
VStem: 66 127<-169 1 49 359 379 601> 351 141<132 316>
LayerCount: 2
Fore
SplineSet
300 438 m 0
 418 438 492 337 492 229 c 0
 492 80 359 -8 252 -8 c 0
 225 -8 200 1 196 1 c 1
 193 1 193 -3 193 -15 c 2
 193 -67 l 2
 193 -109 193 -139 201 -159 c 0
 206 -172 250 -176 263 -177 c 1
 268 -184 267 -207 263 -213 c 1
 225 -209 170 -206 129 -206 c 0
 88 -206 33 -209 -5 -213 c 1
 -9 -207 -10 -184 -5 -177 c 1
 8 -176 53 -172 58 -159 c 0
 66 -139 66 -109 66 -67 c 2
 66 545 l 2
 66 562 66 575 59 592 c 0
 54 604 12 609 0 609 c 1
 -4 609 -5 637 0 641 c 1
 109 651 186 679 189 679 c 1
 195 678 203 667 204 662 c 1
 204 662 193 601 193 562 c 0
 193 398 193 401 193 385 c 0
 193 383 193 382 193 381 c 0
 194 378 196 378 197 379 c 0
 226 410 270 438 300 438 c 0
246 366 m 0
 210 366 193 344 193 339 c 2
 193 94 l 2
 193 55 225 35 259 35 c 0
 291 35 351 81 351 194 c 0
 351 295 325 366 246 366 c 0
EndSplineSet
Substitution2: "'smcp' Lowercase to Small Capitals in Latin lookup 0 subtable" thorn.sc
EndChar

StartChar: gravecomb
Encoding: 768 768 190
Width: 0
GlyphClass: 4
Flags: W
HStem: 485 161
VStem: -347 169
LayerCount: 2
Fore
SplineSet
-347 618 m 0
 -347 626 -336 646 -302 646 c 0
 -288 646 -274 643 -269 638 c 0
 -233 596 -178 508 -178 503 c 0
 -178 497 -187 485 -194 485 c 0
 -204 485 -347 580 -347 618 c 0
EndSplineSet
EndChar

StartChar: acutecomb
Encoding: 769 769 191
Width: 0
GlyphClass: 4
Flags: W
HStem: 486 161
VStem: -334 169
LayerCount: 2
Fore
SplineSet
-210 647 m 0
 -176 647 -165 627 -165 619 c 0
 -165 581 -307 486 -317 486 c 0
 -324 486 -334 498 -334 504 c 0
 -334 509 -279 597 -243 639 c 0
 -238 644 -224 647 -210 647 c 0
EndSplineSet
EndChar

StartChar: uni2010
Encoding: 8208 8208 197
Width: 365
Flags: W
HStem: 188 72<59 209> 199 73<163 306>
VStem: 56 255
LayerCount: 2
Fore
SplineSet
56 199 m 0x60
 56 246 64 261 67 261 c 2
 68 261 l 1xa0
 304 272 l 1
 305 272 l 2
 307 272 311 272 311 264 c 0
 311 216 298 199 298 199 c 1x60
 62 188 l 1xa0
 62 188 56 187 56 199 c 0x60
EndSplineSet
EndChar

StartChar: uni2011
Encoding: 8209 8209 198
Width: 365
Flags: W
HStem: 188 72<59 209> 199 73<163 306>
VStem: 56 255
LayerCount: 2
Fore
SplineSet
56 199 m 0x60
 56 246 64 261 67 261 c 2
 68 261 l 1xa0
 304 272 l 1
 305 272 l 2
 307 272 311 272 311 264 c 0
 311 216 298 199 298 199 c 1x60
 62 188 l 1xa0
 62 188 56 187 56 199 c 0x60
EndSplineSet
EndChar

StartChar: figuredash
Encoding: 8210 8210 199
Width: 543
Flags: W
HStem: 189 72<59 480>
LayerCount: 2
Fore
SplineSet
55 198 m 0
 55 200 57 262 68 262 c 2
 483 262 l 2
 485 262 489 261 489 253 c 0
 489 235 481 200 480 196 c 0
 478 190 474 189 474 189 c 1
 61 189 l 1
 61 189 55 188 55 198 c 0
EndSplineSet
EndChar

StartChar: endash
Encoding: 8211 8211 200
Width: 546
Flags: W
HStem: 189 72<61 482>
LayerCount: 2
Fore
SplineSet
57 198 m 0
 57 200 59 262 70 262 c 2
 485 262 l 2
 487 262 491 261 491 253 c 0
 491 235 483 200 482 196 c 0
 480 190 476 189 476 189 c 1
 62 189 l 1
 62 189 57 188 57 198 c 0
EndSplineSet
EndChar

StartChar: emdash
Encoding: 8212 8212 201
Width: 921
Flags: W
HStem: 189 72<61 858>
LayerCount: 2
Fore
SplineSet
57 198 m 0
 57 200 59 262 70 262 c 2
 861 262 l 2
 863 262 867 261 867 253 c 0
 867 235 859 200 858 196 c 0
 856 190 852 189 852 189 c 1
 62 189 l 1
 62 189 57 188 57 198 c 0
EndSplineSet
EndChar

StartChar: uni2015
Encoding: 8213 8213 202
Width: 1111
Flags: W
HStem: 189 72<61 1048>
LayerCount: 2
Fore
SplineSet
57 198 m 0
 57 200 59 262 70 262 c 2
 1051 262 l 2
 1053 262 1057 261 1057 253 c 0
 1057 235 1049 200 1048 196 c 0
 1046 190 1041 189 1041 189 c 1
 62 189 l 1
 62 189 57 188 57 198 c 0
EndSplineSet
EndChar

StartChar: quoteleft
Encoding: 8216 8216 203
Width: 205
Flags: HW
HStem: 440 272<87 155>
VStem: 26 83<517 622>
LayerCount: 2
Fore
SplineSet
44 535 m 0
 44 645 162 712 173 712 c 0
 183 712 193 704 198 691 c 1
 127 649 127 616 127 605 c 0
 127 575 139 555 151 541 c 0
 164 525 176 516 176 499 c 0
 176 471 142 440 105 440 c 0
 97 440 73 446 62 454 c 1
 51 470 44 500 44 535 c 0
EndSplineSet
EndChar

StartChar: dagger
Encoding: 8224 8224 209
Width: 387
Flags: W
HStem: 422 89<40 99 288 348> 452 24<101 170 217 287> 627 20G<183 205>
VStem: 148 90<557 640> 176 35<389 450 478 594> 185 19<-23 83>
LayerCount: 2
Fore
SplineSet
149 477 m 8x68
 162 477 168 480 178 493 c 1
 178 525 167 591 148 610 c 1
 148 631 172 646 194 646 c 0
 215 646 238 631 238 610 c 1
 219 591 209 525 209 493 c 1
 219 480 225 477 238 477 c 0x70
 270 477 298 492 317 511 c 1
 338 511 354 486 354 465 c 0
 354 444 338 422 317 422 c 1xb0
 298 441 271 451 238 452 c 24x70
 223 452 211 437 211 425 c 1x68
 218 408 231 384 243 356 c 1
 222 221 223 180 203 -10 c 1
 200 -17 199 -22 194 -23 c 1
 189 -22 188 -15 185 -10 c 1x64
 165 180 165 221 144 356 c 1
 155 380 169 408 176 425 c 1
 176 437 164 452 149 452 c 24x68
 116 451 89 441 70 422 c 1
 49 422 33 444 33 465 c 0
 33 486 49 511 70 511 c 1xa8
 89 492 117 477 149 477 c 8x68
EndSplineSet
EndChar

StartChar: daggerdbl
Encoding: 8225 8225 210
Width: 407
Flags: W
HStem: 112 89<50 109 298 357> 146 24<111 180 227 296> 422 89<50 109 298 357> 452 24<111 180 227 296> 627 20G<193 214>
VStem: 158 90<-17 66 557 640> 181 45<14 146 171 254 272 350 369 452 477 609>
LayerCount: 2
Fore
SplineSet
253 267 m 1x1a
 241 239 228 215 221 198 c 1
 221 186 233 171 248 171 c 24x5c
 281 172 308 182 327 201 c 1
 348 201 364 179 364 158 c 0
 364 137 348 112 327 112 c 1x8c
 308 131 280 146 248 146 c 0
 235 146 229 143 219 130 c 1
 219 98 229 32 248 13 c 1
 248 -8 225 -23 204 -23 c 0
 182 -23 158 -8 158 13 c 1
 177 32 188 98 188 130 c 1
 178 143 172 146 159 146 c 16x4c
 127 146 99 131 80 112 c 1
 59 112 43 137 43 158 c 0
 43 179 59 201 80 201 c 1x8c
 99 182 126 172 159 171 c 24
 174 171 186 186 186 198 c 1
 179 215 164 243 153 267 c 1
 167 279 181 304 181 312 c 1
 181 321 160 349 153 356 c 1
 164 380 179 408 186 425 c 1
 186 437 174 452 159 452 c 24x5a
 126 451 99 441 80 422 c 1
 59 422 43 444 43 465 c 0
 43 486 59 511 80 511 c 1x2a
 99 492 127 477 159 477 c 8
 172 477 178 480 188 493 c 1
 188 525 177 591 158 610 c 1
 158 631 182 646 204 646 c 0
 225 646 248 631 248 610 c 1
 229 591 219 525 219 493 c 1
 229 480 235 477 248 477 c 0x1c
 280 477 308 492 327 511 c 1
 348 511 364 486 364 465 c 0
 364 444 348 422 327 422 c 1x2c
 308 441 281 451 248 452 c 24x1c
 233 452 221 437 221 425 c 1
 228 408 241 384 253 356 c 1
 246 349 226 320 226 312 c 1
 226 304 239 279 253 267 c 1x1a
EndSplineSet
EndChar

StartChar: bullet
Encoding: 8226 8226 211
Width: 411
Flags: W
HStem: 120 274<133 279>
VStem: 69 272<183 331>
LayerCount: 2
Fore
SplineSet
69 257 m 0
 69 332 131 395 206 395 c 0
 281 395 342 332 342 257 c 0
 342 182 281 120 206 120 c 0
 131 120 69 182 69 257 c 0
EndSplineSet
EndChar

StartChar: onedotenleader
Encoding: 8228 8228 212
Width: 228
Flags: W
HStem: -11 146<63 165>
VStem: 41 146<12 113>
LayerCount: 2
Fore
SplineSet
188 62 m 0
 188 23 155 -11 115 -11 c 27
 74 -11 41 22 41 64 c 0
 41 103 74 136 114 136 c 27
 155 136 188 101 188 62 c 0
EndSplineSet
EndChar

StartChar: ellipsis
Encoding: 8230 8230 213
Width: 771
Flags: W
HStem: -11 146<63 165 334 436 606 708>
VStem: 41 146<12 113> 312 146<12 113> 584 146<12 113>
LayerCount: 2
Fore
SplineSet
730 62 m 0
 730 23 698 -11 658 -11 c 27
 617 -11 584 22 584 64 c 0
 584 103 617 136 657 136 c 27
 698 136 730 101 730 62 c 0
459 62 m 0
 459 23 427 -11 387 -11 c 27
 346 -11 312 22 312 64 c 0
 312 103 346 136 386 136 c 27
 427 136 459 101 459 62 c 0
188 62 m 0
 188 23 155 -11 115 -11 c 27
 74 -11 41 22 41 64 c 0
 41 103 74 136 114 136 c 27
 155 136 188 101 188 62 c 0
EndSplineSet
LCarets2: 2 0 0
EndChar

StartChar: perthousand
Encoding: 8240 8240 214
Width: 1000
Flags: W
HStem: 0 30<462 526 793 857> 268 29<447 511 778 842> 329 30<172 236> 597 29<157 221>
VStem: 44 93<399 552> 257 93<403 557> 334 93<69 223> 547 93<74 228> 665 93<69 223> 878 93<74 228>
LayerCount: 2
Fore
SplineSet
810 268 m 3xf9c0
 762 268 758 206 758 159 c 24
 758 102 777 30 825 30 c 3
 873 30 878 91 878 137 c 24
 878 195 858 268 810 268 c 3xf9c0
817 297 m 0
 907 297 971 234 971 151 c 0
 971 69 904 0 818 0 c 0
 727 0 665 64 665 146 c 0
 665 228 731 297 817 297 c 0
614 620 m 1
 110 -5 l 2
 106 -11 87 -20 70 -20 c 0
 55 -20 56 -8 56 -8 c 1
 560 617 l 1
 568 624 582 630 599 630 c 0
 608 630 614 625 614 620 c 1
479 268 m 3
 431 268 427 206 427 159 c 24xfbc0
 427 102 446 30 494 30 c 3
 542 30 547 91 547 137 c 24
 547 195 527 268 479 268 c 3
486 297 m 0
 576 297 640 234 640 151 c 0
 640 69 573 0 487 0 c 0
 396 0 334 64 334 146 c 0
 334 228 400 297 486 297 c 0
188 597 m 3
 140 597 137 535 137 488 c 24
 137 431 156 359 204 359 c 3
 252 359 257 420 257 466 c 24xfdc0
 257 524 236 597 188 597 c 3
196 626 m 0
 286 626 350 563 350 480 c 0
 350 398 283 329 197 329 c 0
 106 329 44 394 44 476 c 0
 44 558 110 626 196 626 c 0
EndSplineSet
EndChar

StartChar: minute
Encoding: 8242 8242 215
Width: 163
Flags: W
HStem: 473 210<64 77>
VStem: 44 102
LayerCount: 2
Fore
SplineSet
102 683 m 0
 122 683 146 671 146 651 c 0
 146 605 94 515 69 482 c 0
 65 477 60 473 56 473 c 0
 50 473 44 477 44 484 c 0
 44 487 51 597 59 650 c 0
 61 662 83 683 102 683 c 0
EndSplineSet
EndChar

StartChar: second
Encoding: 8243 8243 216
Width: 294
Flags: W
HStem: 473 210<64 77 196 209>
VStem: 44 232
LayerCount: 2
Fore
SplineSet
233 683 m 0
 253 683 276 671 276 651 c 0
 276 605 226 515 201 482 c 0
 197 477 192 473 188 473 c 0
 182 473 176 477 176 484 c 0
 176 487 182 597 190 650 c 0
 192 662 214 683 233 683 c 0
102 683 m 0
 122 683 145 671 145 651 c 0
 145 605 94 515 69 482 c 0
 65 477 60 473 56 473 c 0
 50 473 44 477 44 484 c 0
 44 487 51 597 59 650 c 0
 61 662 83 683 102 683 c 0
EndSplineSet
EndChar

StartChar: uni2038
Encoding: 8248 8248 217
Width: 391
Flags: W
HStem: -64 187
VStem: 48 307
LayerCount: 2
Fore
SplineSet
201 122 m 0
 206 122 212 120 215 117 c 1
 284 17 351 -39 354 -43 c 1
 353 -48 347 -61 338 -64 c 1
 332 -61 233 10 201 38 c 1
 169 10 70 -61 64 -64 c 1
 55 -61 49 -48 48 -43 c 1
 51 -39 119 17 188 117 c 1
 191 120 196 122 201 122 c 0
EndSplineSet
EndChar

StartChar: guilsinglleft
Encoding: 8249 8249 218
Width: 307
Flags: W
VStem: 25 238
LayerCount: 2
Fore
SplineSet
25 242 m 0
 25 247 28 253 32 257 c 1
 160 334 232 409 237 413 c 1
 243 412 260 405 264 395 c 1
 260 389 169 277 133 242 c 1
 169 207 260 96 264 90 c 1
 260 80 243 72 237 71 c 1
 232 75 160 151 32 228 c 1
 28 232 25 237 25 242 c 0
EndSplineSet
EndChar

StartChar: guilsinglright
Encoding: 8250 8250 219
Width: 307
Flags: W
VStem: 44 238
LayerCount: 2
Fore
SplineSet
282 242 m 0
 282 237 279 232 275 228 c 1
 147 151 75 75 70 71 c 1
 64 72 48 80 44 90 c 1
 48 96 139 207 175 242 c 1
 139 277 48 389 44 395 c 1
 48 405 64 412 70 413 c 1
 75 409 147 334 275 257 c 1
 279 253 282 247 282 242 c 0
EndSplineSet
EndChar

StartChar: Euro
Encoding: 8364 8364 221
Width: 699
UnlinkRmOvrlpSave: 1
Flags: W
HStem: -7 41<353 524> 246 41<50 419> 350 41<50 419> 587 40<333 510>
VStem: 77 146<197 346> 621 33<152 185>
LayerCount: 2
Fore
SplineSet
59 287 m 1
 75 287 412 287 423 287 c 1
 437 276 419 250 413 246 c 1
 39 246 l 17
 33 252 50 287 59 287 c 1
59 391 m 1
 75 391 412 391 423 391 c 1
 437 380 419 354 413 350 c 1
 39 350 l 17
 33 356 50 391 59 391 c 1
655 181 m 1
 655 170 630 43 615 37 c 0
 554 16 495 -7 406 -7 c 0
 225 -7 77 132 77 303 c 0
 77 479 224 627 407 627 c 0
 470 627 551 621 608 609 c 1
 610 598 640 479 640 467 c 0
 640 461 627 453 615 453 c 3
 610 453 606 453 602 457 c 1
 592 494 552 587 416 587 c 0
 280 587 223 463 223 331 c 0
 223 185 289 34 435 34 c 0
 493 34 528 52 554 75 c 0
 594 111 619 183 621 191 c 1
 636 191 647 188 655 181 c 1
EndSplineSet
EndChar

StartChar: arrowleft
Encoding: 8592 8592 222
Width: 752
Flags: W
HStem: 205 72<161 716>
LayerCount: 2
Fore
SplineSet
269 388 m 0
 269 380 249 362 196 311 c 0
 161 277 l 1
 717 277 l 1
 717 277 724 278 724 268 c 0
 724 250 717 216 716 212 c 0
 714 206 709 205 709 205 c 1
 160 205 l 1
 195 172 l 0
 248 121 268 103 268 95 c 0
 268 83 239 71 233 70 c 1
 232 72 176 128 32 221 c 1
 27 223 25 228 25 234 c 0
 25 244 26 253 33 261 c 1
 161 338 229 408 234 412 c 1
 240 411 269 400 269 388 c 0
EndSplineSet
EndChar

StartChar: arrowup
Encoding: 8593 8593 223
Width: 383
Flags: W
HStem: 0 21G<209 223>
VStem: 155 72<5 562>
LayerCount: 2
Fore
SplineSet
228 562 m 1
 228 6 l 1
 228 6 228 0 218 0 c 0
 200 0 167 7 163 8 c 0
 157 10 155 14 155 14 c 1
 155 563 l 1
 123 527 l 0
 72 474 53 455 45 455 c 0
 33 455 22 484 21 490 c 1
 23 491 79 547 172 691 c 1
 174 696 180 697 186 697 c 0
 196 697 203 696 211 689 c 1
 288 561 359 493 363 488 c 1
 362 482 350 455 338 455 c 0
 330 455 313 474 262 527 c 0
 228 562 l 1
EndSplineSet
EndChar

StartChar: arrowright
Encoding: 8594 8594 224
Width: 752
Flags: W
HStem: 205 72<36 591>
LayerCount: 2
Fore
SplineSet
591 277 m 1
 556 311 l 0
 503 362 483 380 483 388 c 0
 483 400 512 411 518 412 c 1
 523 408 591 338 719 261 c 1
 726 253 727 244 727 234 c 0
 727 228 725 223 720 221 c 1
 576 128 520 72 519 70 c 1
 513 71 484 83 484 95 c 0
 484 103 504 121 557 172 c 0
 592 205 l 1
 43 205 l 1
 43 205 38 206 36 212 c 0
 35 216 28 250 28 268 c 0
 28 278 35 277 35 277 c 1
 591 277 l 1
EndSplineSet
EndChar

StartChar: arrowdown
Encoding: 8595 8595 225
Width: 386
Flags: W
HStem: 0 21G<195 203>
VStem: 158 72<135 692>
LayerCount: 2
Fore
SplineSet
158 135 m 1
 158 691 l 1
 158 691 158 697 168 697 c 0
 186 697 219 690 223 689 c 0
 229 687 230 684 230 684 c 1
 230 134 l 1
 263 170 l 0
 314 223 333 242 341 242 c 0
 353 242 363 213 364 207 c 1
 362 206 307 150 214 6 c 1
 212 1 206 0 200 0 c 0
 190 0 183 1 175 8 c 1
 98 136 26 204 22 209 c 1
 23 215 36 242 48 242 c 0
 56 242 73 223 124 170 c 0
 158 135 l 1
EndSplineSet
EndChar

StartChar: partialdiff
Encoding: 8706 8706 227
Width: 491
Flags: W
HStem: 0 54<197 279> 310 52<187 284> 570 57<139 252>
VStem: 43 122<90 266> 308 132<149 363>
LayerCount: 2
Fore
SplineSet
308 214 m 1
 308 296 261 310 224 310 c 0
 186 310 165 264 165 204 c 0
 165 89 201 54 242 54 c 0
 298 54 308 142 308 214 c 1
215 0 m 0
 119 0 43 58 43 189 c 0
 43 287 135 361 239 361 c 0
 260 361 279 361 301 353 c 0
 306 351 311 355 312 360 c 0
 316 389 309 490 274 529 c 0
 245 561 216 570 187 570 c 3
 146 570 101 539 76 521 c 1
 71 525 62 550 74 562 c 0
 103 591 168 627 229 627 c 3
 405 627 439 398 439 275 c 3
 439 80 317 0 215 0 c 0
EndSplineSet
EndChar

StartChar: Delta
Encoding: 8710 8710 228
Width: 649
Flags: W
HStem: 0 74<113 477>
LayerCount: 2
Fore
SplineSet
479 81 m 2
 304 433 l 1
 300 436 295 437 292 431 c 2
 113 85 l 1
 111 78 116 74 121 74 c 2
 477 74 l 2
 481 74 481 77 479 81 c 2
337 599 m 1
 632 14 l 1
 632 14 626 8 624 0 c 1
 27 0 l 1
 23 6 23 9 19 16 c 1
 320 599 l 1
 337 599 l 1
EndSplineSet
EndChar

StartChar: gradient
Encoding: 8711 8711 229
Width: 665
Flags: W
HStem: 553 74<182 545>
LayerCount: 2
Fore
SplineSet
179 546 m 2
 354 194 l 1
 358 191 363 190 366 196 c 2
 545 542 l 1
 547 549 542 553 537 553 c 2
 182 553 l 2
 178 553 177 550 179 546 c 2
321 28 m 1
 26 613 l 1
 26 613 32 619 34 627 c 1
 631 627 l 1
 635 621 636 618 640 611 c 1
 338 28 l 1
 321 28 l 1
EndSplineSet
EndChar

StartChar: element
Encoding: 8712 8712 230
Width: 489
Flags: W
HStem: 11 59<174 435> 185 60<120 392> 361 59<171 436>
VStem: 48 72<170 306>
LayerCount: 2
Fore
SplineSet
399 215 m 0
 399 189 392 185 391 185 c 2
 125 185 l 2
 124 185 119 184 120 181 c 0
 132 119 174 69 239 69 c 2
 423 69 l 2
 423 69 438 62 438 28 c 0
 438 19 431 11 431 11 c 1
 241 11 l 2
 132 11 48 107 48 216 c 0
 48 322 125 420 231 420 c 2
 431 420 l 1
 431 420 438 411 438 399 c 0
 438 369 423 361 423 361 c 1
 231 361 l 2
 169 361 131 310 120 249 c 0
 120 246 122 244 125 244 c 2
 392 244 l 1
 392 243 399 232 399 215 c 0
EndSplineSet
EndChar

StartChar: notelement
Encoding: 8713 8713 231
Width: 485
Flags: W
HStem: -10 21G<130 134> 11 59<191 434> 185 60<118 188 283 390> 361 59<169 288 382 434>
VStem: 46 72<170 306>
LayerCount: 2
Fore
SplineSet
397 215 m 0xb8
 397 189 390 185 389 185 c 2
 249 185 l 1
 190 79 l 1
 204 73 219 69 237 69 c 2
 421 69 l 1
 421 69 436 62 436 28 c 0
 436 19 429 11 429 11 c 1
 239 11 l 2x78
 211 11 184 17 161 28 c 1
 142 -8 l 1
 139 -10 136 -10 132 -10 c 0
 129 -10 113 -6 100 10 c 0
 96 14 95 17 95 17 c 1
 117 57 l 1
 73 95 46 154 46 216 c 0
 46 322 123 420 229 420 c 2
 321 420 l 1
 351 473 l 1
 351 473 355 476 359 476 c 0
 371 476 382 468 390 459 c 0
 395 454 397 448 397 448 c 1
 382 420 l 1
 429 420 l 1
 429 420 436 411 436 399 c 0
 436 369 421 361 421 361 c 1
 349 361 l 1
 283 244 l 1
 390 244 l 1
 390 243 397 232 397 215 c 0xb8
223 244 m 1
 288 361 l 1
 229 361 l 2
 167 361 129 310 118 249 c 0
 118 246 120 244 123 244 c 2
 223 244 l 1
148 112 m 1
 188 185 l 1
 123 185 l 2
 122 185 117 184 118 181 c 0
 123 156 133 131 148 112 c 1
EndSplineSet
EndChar

StartChar: summation
Encoding: 8721 8721 232
Width: 610
Flags: W
HStem: 0 21G<478 535> 2 28<32 65> 594 47<239 434> 612 28<32 66>
LayerCount: 2
Fore
SplineSet
531 0 m 1xa0
 425 0 240 2 151 2 c 0
 86 2 36 -3 36 -3 c 1
 34 -1 32 7 32 15 c 0
 32 23 34 30 36 30 c 0
 47 30 79 51 88 63 c 2
 267 299 l 2
 271 304 270 310 267 314 c 0
 254 334 162 478 87 578 c 0
 74 595 48 612 36 612 c 0
 34 612 32 619 32 626 c 0
 32 633 34 641 36 643 c 1
 36 643 84 641 149 641 c 0x50
 240 641 396 646 502 646 c 1
 509 597 523 543 532 499 c 1
 529 496 517 494 510 494 c 0
 503 494 498 496 496 501 c 0
 472 550 423 594 359 594 c 27
 338 594 332 594 305 594 c 0
 271 594 241 589 239 581 c 1
 400 352 l 1
 402 346 404 339 404 333 c 0
 404 328 402 324 399 321 c 0
 316 221 198 82 198 69 c 0
 198 62 202 59 268 59 c 0
 301 59 304 59 330 59 c 0
 381 59 442 63 470 78 c 0
 489 88 516 122 533 166 c 0
 534 170 540 172 547 172 c 0
 557 172 573 169 576 166 c 1
 557 113 538 43 531 0 c 1xa0
EndSplineSet
EndChar

StartChar: minus
Encoding: 8722 8722 233
Width: 595
Flags: W
HStem: 204 72<69 522>
LayerCount: 2
Fore
SplineSet
64 214 m 1
 64 214 68 276 78 276 c 2
 524 276 l 2
 527 276 531 277 531 270 c 0
 531 262 527 227 522 210 c 0
 520 204 516 204 516 204 c 1
 70 204 l 1
 70 204 64 204 64 214 c 1
EndSplineSet
EndChar

StartChar: uni2213
Encoding: 8723 8723 234
Width: 574
Flags: W
HStem: 208 70<64 254 324 514> 506 70<65 508>
VStem: 254 70<17 208 278 469>
LayerCount: 2
Fore
SplineSet
324 205 m 2
 324 25 l 1
 324 25 310 16 266 10 c 0
 263 10 262 10 260 10 c 0
 254 10 254 13 254 17 c 2
 254 203 l 2
 254 205 253 208 248 208 c 2
 62 208 l 1
 62 208 56 208 56 218 c 0
 56 222 56 250 63 273 c 0
 65 279 70 278 70 278 c 1
 249 278 l 2
 252 278 254 282 254 284 c 2
 254 462 l 1
 254 462 253 467 259 469 c 0
 282 476 310 477 314 477 c 0
 324 477 324 471 324 471 c 1
 324 283 l 2
 324 280 325 278 328 278 c 2
 516 278 l 2
 520 278 523 278 523 271 c 0
 523 262 520 235 514 214 c 0
 512 208 507 208 507 208 c 1
 328 208 l 2
 325 208 324 207 324 205 c 2
508 576 m 1
 508 576 518 577 516 565 c 0
 509 518 503 509 500 506 c 1
 62 506 l 1
 62 506 55 505 57 519 c 0
 59 533 58 551 64 571 c 0
 66 577 71 576 71 576 c 1
 508 576 l 1
EndSplineSet
EndChar

StartChar: radical
Encoding: 8730 8730 235
Width: 514
Flags: HW
LayerCount: 2
Fore
SplineSet
14 146 m 1
 1 153 -12 170 -12 181 c 0
 -12 194 1 200 11 207 c 0
 43 229 142 304 156 316 c 0
 164 323 181 324 184 316 c 1
 194 285 195 273 206 248 c 2
 293 46 l 1
 301 88 438 772 438 772 c 1
 494 766 l 1
 494 766 336 -24 312 -149 c 1
 297 -167 271 -176 265 -176 c 0
 261 -176 257 -175 255 -171 c 2
 92 191 l 1
 14 146 l 1
EndSplineSet
EndChar

StartChar: proportional
Encoding: 8733 8733 236
Width: 707
Flags: W
HStem: 36 71<181 300 583 642> 344 72<178 287 574 647>
VStem: 50 87<153 299>
LayerCount: 2
Back
SplineSet
105.46875 223.6328125 m 0
 105.46875 188.4765625 116.455078125 158.203125 138.427734375 132.8125 c 0
 160.400390625 107.421875 188.151367188 94.7265625 221.6796875 94.7265625 c 0
 234.049804688 94.7265625 246.174804688 97.0869140625 258.056640625 101.806640625 c 0
 269.938476562 106.526367188 281.819335938 114.013671875 293.701171875 124.267578125 c 0
 305.583007812 134.521484375 315.348632812 143.473632812 322.998046875 151.123046875 c 0
 330.647460938 158.772460938 340.739257812 169.758789062 353.271484375 184.08203125 c 0
 365.803710938 198.405273438 374.348632812 208.0078125 378.90625 212.890625 c 0
 379.557617188 213.541992188 379.557617188 214.192382812 378.90625 214.84375 c 0
 375.651367188 218.75 368.327148438 228.190429688 356.93359375 243.1640625 c 0
 345.540039062 258.137695312 335.286132812 270.751953125 326.171875 281.005859375 c 0
 317.057617188 291.259765625 306.15234375 302.571289062 293.45703125 314.94140625 c 0
 280.76171875 327.311523438 267.741210938 336.833007812 254.39453125 343.505859375 c 0
 241.047851562 350.178710938 227.864257812 353.515625 214.84375 353.515625 c 0
 182.942382812 353.515625 156.73828125 340.576171875 136.23046875 314.697265625 c 0
 115.72265625 288.818359375 105.46875 258.463867188 105.46875 223.6328125 c 0
608.3984375 41.9921875 m 1
 584.635742188 41.9921875 561.686523438 46.5498046875 539.55078125 55.6640625 c 0
 517.415039062 64.7783203125 498.779296875 75.927734375 483.642578125 89.111328125 c 0
 468.505859375 102.294921875 455.159179688 115.478515625 443.603515625 128.662109375 c 0
 432.047851562 141.845703125 422.8515625 152.995117188 416.015625 162.109375 c 0
 409.1796875 171.223632812 404.948242188 175.78125 403.3203125 175.78125 c 2
 402.34375 175.78125 l 1
 370.520507812 137.953125 346.66796875 111.897460938 330.78515625 97.61328125 c 0
 288.110351562 59.23046875 242.953125 40.0390625 195.3125 40.0390625 c 0
 150.065429688 40.0390625 112.385742188 57.6982421875 82.275390625 93.017578125 c 0
 52.1650390625 128.336914062 37.109375 169.921875 37.109375 217.7734375 c 0
 37.109375 271.159179688 55.419921875 316.89453125 92.041015625 354.98046875 c 0
 128.662109375 393.06640625 173.502929688 412.109375 226.5625 412.109375 c 0
 248.046875 412.109375 268.717773438 408.366210938 288.57421875 400.87890625 c 0
 308.430664062 393.391601562 327.961914062 381.34765625 347.16796875 364.74609375 c 0
 366.374023438 348.14453125 380.126953125 335.530273438 388.427734375 326.904296875 c 0
 396.728515625 318.278320312 409.223632812 304.267578125 425.912109375 284.874023438 c 0
 428.103515625 282.458007812 429.6875 280.598632812 430.6640625 279.296875 c 0
 431.315429688 278.3203125 432.291992188 277.668945312 433.59375 277.34375 c 0
 434.895507812 277.018554688 435.872070312 277.34375 436.5234375 278.3203125 c 0
 446.940429688 291.340820312 455.241210938 301.513671875 461.42578125 308.837890625 c 0
 467.610351562 316.162109375 477.131835938 326.334960938 489.990234375 339.35546875 c 0
 502.848632812 352.375976562 514.6484375 362.79296875 525.390625 370.60546875 c 0
 536.1328125 378.41796875 549.072265625 386.067382812 564.208984375 393.5546875 c 0
 579.345703125 401.041992188 594.401367188 406.25 609.375 409.1796875 c 1
 611.328125 409.1796875 l 2
 616.536132812 409.1796875 619.140625 403.971679688 619.140625 393.5546875 c 0
 619.140625 389.323242188 618.65234375 384.27734375 617.67578125 378.41796875 c 0
 616.69921875 372.55859375 615.72265625 367.756835938 614.74609375 364.013671875 c 2
 613.28125 358.3984375 l 1
 603.840820312 358.3984375 593.75 356.120117188 583.0078125 351.5625 c 0
 572.265625 347.004882812 563.069335938 342.28515625 555.419921875 337.40234375 c 0
 547.770507812 332.51953125 538.0859375 324.462890625 526.3671875 313.232421875 c 0
 514.6484375 302.001953125 506.591796875 293.9453125 502.197265625 289.0625 c 0
 497.802734375 284.1796875 489.827148438 275.065429688 478.271484375 261.71875 c 0
 466.715820312 248.372070312 460.612304688 241.2109375 459.9609375 240.234375 c 0
 458.659179688 238.932617188 458.333007812 237.956054688 458.984375 237.3046875 c 0
 461.588867188 233.723632812 468.017578125 225.341796875 478.271484375 212.158203125 c 0
 488.525390625 198.974609375 496.012695312 189.616210938 500.732421875 184.08203125 c 0
 505.452148438 178.547851562 512.6953125 170.247070312 522.4609375 159.1796875 c 0
 532.2265625 148.112304688 540.52734375 139.811523438 547.36328125 134.27734375 c 0
 554.19921875 128.743164062 562.255859375 122.639648438 571.533203125 115.966796875 c 0
 580.810546875 109.293945312 590.006835938 104.573242188 599.12109375 101.806640625 c 0
 608.235351562 99.0400390625 617.512695312 97.65625 626.953125 97.65625 c 0
 632.161132812 97.65625 634.765625 94.7265625 634.765625 88.8671875 c 0
 634.765625 81.7060546875 631.510742188 72.509765625 625 61.279296875 c 0
 618.489257812 50.048828125 612.956054688 43.6201171875 608.3984375 41.9921875 c 1
EndSplineSet
Fore
SplineSet
640 109 m 1
 649 109 650 99 650 88 c 3
 650 67 637 48 628 41 c 1
 500 41 431 158 420 158 c 2
 419 158 l 1
 367 96 308 36 212 36 c 0
 119 36 50 125 50 218 c 0
 50 324 138 416 244 416 c 0
 339 416 408 341 448 294 c 0
 449 292 453 291 454 293 c 0
 495 345 559 417 635 417 c 0
 642 417 652 386 652 364 c 0
 652 357 651 344 646 344 c 0
 642 344 636 344 629 344 c 0
 564 344 489 235 490 234 c 0
 511 205 566 109 640 109 c 1
137 224 m 0
 137 156 187 107 239 107 c 0
 303 107 356 183 379 213 c 0
 380 215 306 344 232 344 c 0
 179 344 137 290 137 224 c 0
EndSplineSet
EndChar

StartChar: infinity
Encoding: 8734 8734 237
Width: 873
Flags: W
HStem: 38 72<178 303 589 697> 344 72<178 287 569 695>
VStem: 50 87<153 299> 736 87<154 299>
LayerCount: 2
Fore
SplineSet
630 349 m 0
 570 349 509 261 493 240 c 0
 492 239 492 239 493 238 c 0
 514 209 578 110 645 110 c 0
 695 110 736 163 736 228 c 0
 736 297 685 349 630 349 c 0
137 224 m 0
 137 156 187 107 239 107 c 0
 303 107 356 183 379 213 c 0
 380 214 380 214 379 215 c 0
 363 238 300 344 232 344 c 0
 179 344 137 290 137 224 c 0
244 416 m 0
 339 416 408 341 448 294 c 0
 449 292 453 291 454 293 c 0
 495 345 561 416 656 416 c 0
 749 416 823 329 823 236 c 0
 823 129 732 38 625 38 c 0
 497 38 431 158 420 158 c 2
 419 158 l 1
 367 96 308 36 212 36 c 0
 119 36 50 125 50 218 c 0
 50 324 138 416 244 416 c 0
EndSplineSet
EndChar

StartChar: notequal
Encoding: 8800 8800 238
Width: 558
Flags: W
HStem: 106 70<60 192 292 498> 245 70<56 270 370 498>
LayerCount: 2
Fore
SplineSet
370 315 m 1
 504 315 l 2
 506 315 508 315 508 311 c 0
 508 302 504 272 498 251 c 0
 496 245 492 245 492 245 c 1
 330 245 l 1
 292 177 l 1
 500 177 l 2
 504 177 508 179 508 172 c 0
 508 163 504 133 498 112 c 0
 496 106 492 106 492 106 c 1
 253 106 l 1
 202 16 l 1
 199 14 196 14 192 14 c 0
 189 14 173 17 160 33 c 0
 156 37 155 40 155 40 c 1
 192 106 l 1
 58 106 l 1
 58 106 51 106 51 116 c 0
 51 120 53 149 60 172 c 0
 62 178 66 177 66 177 c 1
 231 177 l 1
 270 245 l 1
 58 245 l 1
 58 245 51 245 51 255 c 1
 51 255 54 296 61 311 c 0
 62 314 63 315 65 315 c 2
 310 315 l 1
 362 410 l 1
 362 410 367 413 371 413 c 0
 383 413 393 405 401 396 c 0
 406 391 409 386 409 386 c 1
 370 315 l 1
EndSplineSet
EndChar

StartChar: lessequal
Encoding: 8804 8804 239
Width: 501
Flags: W
HStem: 6 55<43 425>
LayerCount: 2
Fore
SplineSet
422 61 m 1
 422 61 431 62 429 50 c 0
 422 3 417 9 414 6 c 1
 41 6 l 1
 41 6 32 5 34 19 c 0
 36 33 37 36 43 56 c 0
 45 62 50 61 50 61 c 1
 422 61 l 1
437 133 m 0
 437 126 427 84 421 84 c 0
 420 84 418 85 416 86 c 2
 50 272 l 2
 35 280 32 294 32 311 c 0
 32 322 40 329 50 334 c 2
 410 517 l 2
 412 518 414 519 415 519 c 0
 418 519 425 509 432 473 c 0
 433 467 429 464 429 464 c 1
 110 303 l 1
 434 139 l 1
 434 139 437 138 437 133 c 0
EndSplineSet
EndChar

StartChar: greaterequal
Encoding: 8805 8805 240
Width: 500
Flags: W
HStem: 6 55<72 455>
LayerCount: 2
Fore
SplineSet
70 472 m 0
 70 490 82 519 86 519 c 0
 87 519 89 518 91 517 c 2
 452 334 l 2
 462 329 469 322 469 311 c 0
 469 294 467 280 452 272 c 2
 86 86 l 2
 81 84 80 80 75 93 c 0
 69 108 64 129 64 133 c 0
 64 137 67 139 67 139 c 1
 391 303 l 1
 73 464 l 1
 73 464 70 465 70 472 c 0
68 15 m 0
 68 16 72 61 83 61 c 2
 457 61 l 2
 459 61 463 60 463 53 c 0
 463 45 460 29 455 13 c 0
 453 7 448 6 448 6 c 1
 75 6 l 1
 75 6 68 5 68 15 c 0
EndSplineSet
EndChar

StartChar: propersubset
Encoding: 8834 8834 241
Width: 490
Flags: W
HStem: 11 59<174 435> 361 59<171 436>
VStem: 48 68<132 302>
LayerCount: 2
Fore
SplineSet
231 361 m 2
 169 361 116 302 116 215 c 3
 116 127 174 69 239 69 c 2
 423 69 l 2
 423 69 438 62 438 28 c 0
 438 19 431 11 431 11 c 1
 241 11 l 2
 132 11 48 107 48 216 c 0
 48 322 125 420 231 420 c 2
 431 420 l 1
 431 420 438 411 438 399 c 0
 438 369 423 361 423 361 c 1
 231 361 l 2
EndSplineSet
EndChar

StartChar: dotlessi
Encoding: 305 305 242
Width: 307
Flags: W
HStem: -4 36<26 91 234 292> 354 30<27 86> 416 20G<202 224>
VStem: 99 127<40 344>
LayerCount: 2
Fore
SplineSet
226 302 m 2
 226 142 l 2
 226 106 226 70 234 50 c 0
 239 37 276 33 289 32 c 1
 294 25 293 2 289 -4 c 1
 251 0 203 3 162 3 c 0
 121 3 67 0 29 -4 c 1
 25 2 24 25 29 32 c 1
 42 33 86 37 91 50 c 0
 99 70 99 100 99 142 c 2
 99 254 l 2
 99 264 98 319 90 334 c 0
 82 349 36 354 29 354 c 1
 26 356 25 384 30 384 c 1
 104 390 183 417 220 436 c 1
 227 434 237 422 237 419 c 1
 234 411 228 377 227 363 c 0
 226 342 226 308 226 302 c 2
EndSplineSet
Substitution2: "'smcp' Lowercase to Small Capitals in Latin lookup 0 subtable" dotlessi.sc
EndChar

StartChar: uni0302
Encoding: 770 770 243
Width: 0
GlyphClass: 4
Flags: W
HStem: 485 164
VStem: -363 230
LayerCount: 2
Fore
SplineSet
-142 485 m 1
 -152 488 -221 535 -248 558 c 1
 -275 535 -340 491 -354 485 c 1
 -359 487 -363 498 -363 508 c 1
 -356 515 -340 531 -299 584 c 0
 -278 612 -269 627 -261 640 c 0
 -257 647 -254 649 -248 649 c 27
 -242 649 -241 646 -236 640 c 0
 -225 625 -218 611 -200 589 c 0
 -160 536 -140 515 -133 508 c 1
 -133 498 -137 487 -142 485 c 1
EndSplineSet
EndChar

StartChar: tildecomb
Encoding: 771 771 244
Width: 0
GlyphClass: 4
Flags: W
HStem: 486 62<-215 -127> 550 61<-353 -265>
VStem: -390 302
LayerCount: 2
Fore
SplineSet
-302 610 m 0
 -273 610 -251 595 -230 580 c 0
 -208 563 -178 548 -161 548 c 0
 -118 548 -104 595 -96 600 c 1
 -89 600 -88 593 -88 588 c 0
 -88 570 -97 549 -104 536 c 0
 -124 505 -150 486 -178 486 c 0
 -207 486 -228 502 -249 517 c 0
 -271 534 -297 550 -318 550 c 0
 -361 550 -372 502 -380 497 c 1
 -387 497 -390 507 -390 512 c 0
 -390 530 -382 549 -375 562 c 0
 -355 593 -330 610 -302 610 c 0
EndSplineSet
EndChar

StartChar: uniF733
Encoding: 63283 63283 245
Width: 1024
VWidth: 1024
Flags: H
LayerCount: 2
Back
SplineSet
264 460 m 0
 288 460 310 449.833333333 330 429.5 c 0
 350 409.166666667 360 384.333333333 360 355 c 0
 360 327 350 296.833333333 330 264.5 c 0
 310 232.166666667 289.333333333 210.666666667 268 200 c 1
 295.333333333 198 322.166666667 182.833333333 348.5 154.5 c 0
 374.833333333 126.166666667 388 92.3333333333 388 53 c 0
 388 14.3333333333 372.333333333 -23.6666666667 341 -61 c 0
 309.666666667 -98.3333333333 272.333333333 -127.833333333 229 -149.5 c 0
 185.666666667 -171.166666667 145.333333333 -182 108 -182 c 0
 93.3333333333 -182 79.6666666667 -179.333333333 67 -174 c 1
 63 -166 61 -157.333333333 61 -148 c 0
 61 -140.666666667 65 -132.833333333 73 -124.5 c 0
 81 -116.166666667 89 -112 97 -112 c 0
 107 -112 118 -115.333333333 130 -122 c 0
 142 -128.666666667 153.666666667 -132 165 -132 c 0
 205 -132 237.5 -115.833333333 262.5 -83.5 c 0
 287.5 -51.1666666667 300 -12.3333333333 300 33 c 0
 300 61.6666666667 291.333333333 87.5 274 110.5 c 0
 256.666666667 133.5 235 145 209 145 c 0
 183 145 159 141.333333333 137 134 c 1
 131.666666667 134.666666667 129 140.666666667 129 152 c 0
 129 157.333333333 130.333333333 163.333333333 133 170 c 1
 171.666666667 182 206.666666667 202.666666667 238 232 c 0
 269.333333333 261.333333333 285 292 285 324 c 0
 285 346.666666667 279 364.5 267 377.5 c 0
 255 390.5 239 397 219 397 c 0
 184.333333333 397 148.666666667 378.666666667 112 342 c 0
 109.333333333 339.333333333 107 338 105 338 c 0
 103.666666667 338 101.666666667 340 99 344 c 0
 96.3333333333 348 95 351.333333333 95 354 c 0
 95 358 95.6666666667 361 97 363 c 0
 114.333333333 391 137.833333333 414.166666667 167.5 432.5 c 0
 197.166666667 450.833333333 229.333333333 460 264 460 c 0
EndSplineSet
EndChar

StartChar: uni0304
Encoding: 772 772 246
Width: 0
GlyphClass: 4
Flags: W
HStem: 485 47<-386 -112>
VStem: -388 277<485 532>
LayerCount: 2
Fore
SplineSet
-388 496 m 0
 -388 520 -376 532 -373 532 c 2
 -116 532 l 2
 -114 532 -110 530 -110 522 c 0
 -110 497 -124 485 -124 485 c 1
 -382 485 l 1
 -382 485 -388 484 -388 496 c 0
EndSplineSet
EndChar

StartChar: gravecomb.cap
Encoding: 65536 -1 247
Width: 0
GlyphClass: 4
Flags: W
HStem: 711 138
VStem: -344 189
LayerCount: 2
Fore
SplineSet
-154 730 m 0
 -154 724 -161 711 -168 711 c 0
 -182 711 -344 776 -344 812 c 0
 -344 839 -307 849 -289 849 c 0
 -281 849 -275 847 -271 845 c 0
 -226 811 -154 737 -154 730 c 0
EndSplineSet
EndChar

StartChar: acutecomb.cap
Encoding: 65537 -1 248
Width: 0
GlyphClass: 4
Flags: W
HStem: 711 138
VStem: -349 189
LayerCount: 2
Fore
SplineSet
-349 730 m 0
 -349 737 -276 811 -231 845 c 0
 -227 847 -222 849 -214 849 c 0
 -196 849 -159 839 -159 812 c 0
 -159 776 -321 711 -335 711 c 0
 -342 711 -349 724 -349 730 c 0
EndSplineSet
EndChar

StartChar: uni0302.cap
Encoding: 65538 -1 249
Width: 0
GlyphClass: 4
Flags: W
HStem: 711 137
VStem: -375 254
LayerCount: 2
Fore
SplineSet
-131 711 m 1
 -143 714 -218 750 -248 770 c 1
 -278 750 -350 715 -365 711 c 1
 -369 713 -375 720 -375 728 c 1
 -367 734 -347 752 -305 791 c 0
 -281 814 -269 829 -261 838 c 0
 -256 844 -252 848 -248 848 c 0
 -244 848 -240 843 -235 838 c 0
 -223 825 -214 814 -194 795 c 0
 -150 752 -129 734 -121 728 c 1
 -121 720 -125 713 -131 711 c 1
EndSplineSet
EndChar

StartChar: uni030A.cap
Encoding: 65539 -1 250
Width: 0
GlyphClass: 4
Flags: W
HStem: 711 44<-291 -207> 860 43<-291 -207>
VStem: -346 45<765 850> -197 44<765 850>
LayerCount: 2
Fore
SplineSet
-301 808 m 0
 -301 779 -278 755 -249 755 c 0
 -220 755 -197 779 -197 808 c 0
 -197 837 -220 860 -249 860 c 0
 -278 860 -301 837 -301 808 c 0
-346 808 m 0
 -346 861 -302 903 -249 903 c 0
 -196 903 -153 861 -153 808 c 0
 -153 755 -196 711 -249 711 c 0
 -302 711 -346 755 -346 808 c 0
EndSplineSet
EndChar

StartChar: uni030A
Encoding: 778 778 251
Width: 0
GlyphClass: 4
Flags: W
HStem: 485 44<-291 -208> 635 43<-291 -208>
VStem: -347 45<540 624> -198 44<538 626>
LayerCount: 2
Fore
SplineSet
-302 582 m 0
 -302 553 -278 529 -249 529 c 0
 -220 529 -198 553 -198 582 c 0
 -198 611 -220 635 -249 635 c 0
 -278 635 -302 611 -302 582 c 0
-347 582 m 0
 -347 635 -302 678 -249 678 c 0
 -196 678 -154 635 -154 582 c 0
 -154 529 -196 485 -249 485 c 0
 -302 485 -347 529 -347 582 c 0
EndSplineSet
EndChar

StartChar: tildecomb.cap
Encoding: 65540 -1 252
Width: 0
GlyphClass: 4
Flags: W
HStem: 711 59<-208 -97> 771 58<-378 -269>
LayerCount: 2
Fore
SplineSet
-313 829 m 0
 -277 829 -252 816 -226 801 c 0
 -198 785 -166 770 -145 770 c 0
 -92 770 -70 814 -60 819 c 1
 -55 819 -52 811 -52 806 c 0
 -52 789 -61 771 -70 759 c 0
 -94 729 -126 711 -161 711 c 0
 -197 711 -223 724 -249 739 c 0
 -277 755 -304 771 -330 771 c 0
 -383 771 -405 726 -415 721 c 1
 -420 721 -423 730 -423 735 c 0
 -423 752 -413 770 -404 782 c 0
 -380 812 -348 829 -313 829 c 0
EndSplineSet
EndChar

StartChar: uni0304.cap
Encoding: 65541 -1 253
Width: 0
GlyphClass: 4
Flags: W
HStem: 711 47<-398 -101>
VStem: -399 301<711 758>
LayerCount: 2
Fore
SplineSet
-399 722 m 0
 -399 746 -388 758 -385 758 c 2
 -104 758 l 2
 -102 758 -99 756 -99 748 c 0
 -99 723 -112 711 -112 711 c 1
 -394 711 l 1
 -394 711 -399 710 -399 722 c 0
EndSplineSet
EndChar

StartChar: uni0306.cap
Encoding: 65542 -1 254
Width: 0
GlyphClass: 4
Flags: W
HStem: 711 53<-310 -186>
VStem: -356 215<786 795>
LayerCount: 2
Fore
SplineSet
-164 808 m 1
 -158 806 -142 795 -142 788 c 0
 -142 785 -143 783 -144 781 c 0
 -171 735 -210 711 -249 711 c 0
 -288 711 -327 735 -354 781 c 0
 -355 783 -356 786 -356 788 c 0
 -356 795 -340 806 -334 808 c 1
 -319 789 -287 764 -249 764 c 0
 -208 764 -178 786 -164 808 c 1
EndSplineSet
EndChar

StartChar: uni0306
Encoding: 774 774 255
Width: 0
GlyphClass: 4
Flags: W
HStem: 485 54<-306 -195>
VStem: -363 19<589 595> -163 21<586 594>
LayerCount: 2
Fore
SplineSet
-163 604 m 1
 -156 604 -143 589 -143 582 c 3
 -143 580 -143 577 -144 575 c 0
 -159 523 -196 485 -249 485 c 0
 -302 485 -347 523 -362 575 c 0
 -363 577 -363 580 -363 582 c 3
 -363 589 -352 604 -345 604 c 1
 -337 583 -295 539 -249 539 c 0
 -200 539 -172 583 -163 604 c 1
EndSplineSet
EndChar

StartChar: uni0327.cap
Encoding: 65543 -1 256
Width: 1019
GlyphClass: 4
Flags: W
HStem: -163 29<170 257> -68 66<215 244>
VStem: 264 57<-130 -69>
LayerCount: 2
Fore
SplineSet
244 -26 m 1
 253 -25 258 -24 268 -24 c 27
 296 -24 320 -48 320 -75 c 0
 320 -124 282 -163 219 -163 c 0
 196 -163 176 -154 168 -146 c 1
 166 -143 164 -130 164 -126 c 0
 164 -120 165 -118 167 -118 c 1
 171 -120 195 -134 217 -134 c 0
 252 -134 264 -118 264 -103 c 0
 264 -88 258 -68 236 -68 c 0
 230 -68 220 -71 209 -75 c 1
 206 -75 195 -66 195 -60 c 1
 205 -44 219 -18 225 -2 c 1
 258 -2 l 1
 258 -2 249 -16 244 -26 c 1
EndSplineSet
EndChar

StartChar: uni0327
Encoding: 807 807 257
Width: 0
GlyphClass: 4
Flags: W
HStem: -152 31<-310 -225> -71 69<-271 -243> -65 39<-247 -222>
VStem: -221 50<-119 -66>
LayerCount: 2
Fore
SplineSet
-242 -27 m 1xd0
 -242 -27 -231 -26 -224 -26 c 27
 -196 -26 -171 -51 -171 -76 c 0
 -171 -122 -206 -152 -266 -152 c 0
 -287 -152 -305 -144 -312 -137 c 1
 -313 -134 -314 -124 -314 -120 c 0
 -314 -113 -311 -106 -308 -106 c 0
 -303 -106 -280 -121 -259 -121 c 0
 -232 -121 -221 -107 -221 -93 c 0
 -221 -79 -227 -65 -244 -65 c 0xb0
 -250 -65 -263 -67 -273 -71 c 0
 -275 -71 -289 -60 -287 -56 c 0
 -278 -41 -268 -16 -260 -2 c 1
 -229 -2 l 1
 -242 -27 l 1xd0
EndSplineSet
EndChar

StartChar: uni0323.cap
Encoding: 65545 -1 259
Width: 308
GlyphClass: 4
Flags: W
HStem: -176 145<100 203>
VStem: 79 145<-155 -52>
LayerCount: 2
Fore
SplineSet
79 -104 m 0
 79 -64 111 -31 151 -31 c 0
 191 -31 224 -64 224 -104 c 0
 224 -144 191 -176 151 -176 c 0
 111 -176 79 -144 79 -104 c 0
EndSplineSet
EndChar

StartChar: uni0305
Encoding: 773 773 261
Width: 549
GlyphClass: 4
Flags: W
HStem: 717 70<-12 564>
LayerCount: 2
Fore
SplineSet
-16 727 m 0
 -16 729 -13 787 -2 787 c 2
 566 787 l 2
 568 787 572 786 572 778 c 0
 572 760 565 728 564 724 c 0
 562 718 557 717 557 717 c 1
 -10 717 l 1
 -10 717 -16 717 -16 727 c 0
EndSplineSet
EndChar

StartChar: uni0308.cap
Encoding: 65549 -1 264
Width: 396
GlyphClass: 4
Flags: W
HStem: 700 132<38 136 239 337>
VStem: 21 132<717 815> 222 133<717 815>
LayerCount: 2
Fore
SplineSet
222 767 m 0
 222 804 251 832 288 832 c 0
 325 832 354 804 354 767 c 0
 354 730 325 700 288 700 c 0
 251 700 222 730 222 767 c 0
21 767 m 0
 21 804 50 832 87 832 c 0
 124 832 153 804 153 767 c 0
 153 730 124 700 87 700 c 0
 50 700 21 730 21 767 c 0
EndSplineSet
EndChar

StartChar: uni0308
Encoding: 776 776 265
Width: 0
GlyphClass: 4
Flags: W
HStem: 486 136<-380 -282 -196 -98>
VStem: -399 136<505 603> -215 136<505 603>
LayerCount: 2
Fore
SplineSet
-147 622 m 0
 -110 622 -79 592 -79 555 c 0
 -79 518 -110 486 -147 486 c 0
 -184 486 -215 518 -215 555 c 0
 -215 592 -184 622 -147 622 c 0
-331 622 m 0
 -294 622 -264 592 -264 555 c 0
 -264 518 -294 486 -331 486 c 0
 -368 486 -399 518 -399 555 c 0
 -399 592 -368 622 -331 622 c 0
EndSplineSet
EndChar

StartChar: uni0308.narrow
Encoding: 65550 -1 266
Width: 381
GlyphClass: 4
Flags: W
HStem: 529 136<48 147 245 343>
VStem: 29 137<548 646> 227 136<548 646>
LayerCount: 2
Fore
SplineSet
294 665 m 0
 331 665 362 635 362 598 c 0
 362 561 331 529 294 529 c 0
 257 529 227 561 227 598 c 0
 227 635 257 665 294 665 c 0
98 665 m 0
 135 665 166 635 166 598 c 0
 166 561 135 529 98 529 c 0
 61 529 29 561 29 598 c 0
 29 635 61 665 98 665 c 0
EndSplineSet
EndChar

StartChar: uni0307
Encoding: 775 775 267
Width: 0
GlyphClass: 4
Flags: W
HStem: 485 133<-297 -201>
VStem: -314 131<503 601>
LayerCount: 2
Fore
SplineSet
-314 552 m 0
 -314 588 -285 618 -249 618 c 0
 -213 618 -184 588 -184 552 c 0
 -184 516 -213 485 -249 485 c 0
 -285 485 -314 516 -314 552 c 0
EndSplineSet
EndChar

StartChar: hookabovecomb
Encoding: 777 777 268
Width: 0
GlyphClass: 4
Flags: W
HStem: 621 37<-268 -217>
VStem: -331 60<566 619> -294 47<488 524> -215 53<558 621>
LayerCount: 2
Fore
SplineSet
-229 658 m 0xd0
 -190 658 -162 634 -162 602 c 0
 -162 566 -186 540 -212 529 c 0
 -233 520 -247 516 -247 503 c 3
 -247 501 -247 498 -246 495 c 1
 -246 492 -270 486 -284 486 c 1
 -289 489 -294 500 -294 503 c 3xb0
 -294 530 -267 543 -250 551 c 0
 -228 561 -215 573 -215 592 c 0
 -215 604 -218 621 -239 621 c 0
 -261 621 -271 605 -271 586 c 0
 -271 569 -296 564 -310 564 c 0
 -318 564 -331 569 -331 581 c 0
 -331 631 -278 658 -229 658 c 0xd0
EndSplineSet
EndChar

StartChar: uni030C
Encoding: 780 780 270
Width: 0
GlyphClass: 4
Flags: W
HStem: 486 164
VStem: -364 230
LayerCount: 2
Fore
SplineSet
-249 578 m 1
 -222 601 -154 650 -143 650 c 0
 -137 650 -134 638 -134 628 c 1
 -141 621 -161 600 -201 547 c 0
 -219 525 -226 511 -237 496 c 0
 -242 490 -243 486 -249 486 c 27
 -255 486 -258 489 -262 496 c 0
 -270 509 -279 524 -300 552 c 0
 -341 605 -357 621 -364 628 c 1
 -364 638 -361 650 -355 650 c 0
 -344 650 -276 601 -249 578 c 1
EndSplineSet
EndChar

StartChar: uni030C.cap
Encoding: 65551 -1 271
Width: 340
GlyphClass: 4
Flags: W
HStem: 686 138
VStem: 45 254
LayerCount: 2
Fore
SplineSet
172 763 m 1
 202 783 277 823 289 823 c 0
 296 823 299 813 299 805 c 1
 291 799 270 781 225 736 c 0
 205 716 198 707 186 694 c 0
 181 689 175 686 171 686 c 0
 167 686 163 688 158 694 c 0
 149 705 139 717 116 740 c 0
 71 784 53 799 45 805 c 1
 45 813 48 823 55 823 c 0
 67 823 142 783 172 763 c 1
EndSplineSet
EndChar

StartChar: uni0312
Encoding: 786 786 272
Width: 0
GlyphClass: 4
Flags: W
HStem: 644 14<-174 -166>
VStem: -302 77<526 589>
LayerCount: 2
Fore
SplineSet
-250 486 m 0
 -265 486 -279 490 -289 495 c 1
 -296 504 -302 519 -302 533 c 0
 -302 588 -242 636 -180 657 c 1
 -170 655 -161 648 -161 644 c 1
 -178 637 -225 610 -225 582 c 0
 -225 562 -182 565 -182 527 c 0
 -182 518 -195 486 -250 486 c 0
EndSplineSet
EndChar

StartChar: uni0326
Encoding: 806 806 273
Width: 0
GlyphClass: 4
Flags: W
HStem: -213 14<-332 -324>
VStem: -273 77<-145 -82>
LayerCount: 2
Fore
SplineSet
-248 -42 m 0
 -233 -42 -219 -46 -209 -51 c 1
 -202 -60 -196 -75 -196 -89 c 0
 -196 -144 -256 -192 -318 -213 c 1
 -328 -211 -337 -203 -337 -199 c 1
 -320 -192 -273 -166 -273 -138 c 0
 -273 -118 -316 -121 -316 -83 c 0
 -316 -74 -303 -42 -248 -42 c 0
EndSplineSet
EndChar

StartChar: uni0315
Encoding: 789 789 274
Width: 0
GlyphClass: 4
Flags: W
HStem: 484 235
VStem: -269 77<576 669>
LayerCount: 2
Fore
SplineSet
-239 720 m 0
 -229 720 -218 716 -210 713 c 1
 -202 702 -191 687 -191 651 c 0
 -191 596 -232 533 -285 484 c 1
 -293 484 -310 491 -310 497 c 1
 -287 522 -269 553 -269 586 c 0
 -269 638 -306 636 -306 673 c 0
 -306 693 -280 720 -239 720 c 0
EndSplineSet
EndChar

StartChar: dotbelowcomb
Encoding: 803 803 275
Width: 0
GlyphClass: 4
Flags: W
HStem: -188 145<-299 -197>
VStem: -320 145<-166 -64>
LayerCount: 2
Fore
SplineSet
-320 -115 m 0
 -320 -75 -288 -43 -248 -43 c 0
 -208 -43 -176 -75 -176 -115 c 0
 -176 -155 -208 -188 -248 -188 c 0
 -288 -188 -320 -155 -320 -115 c 0
EndSplineSet
EndChar

StartChar: uni0237
Encoding: 567 567 378
Width: 279
Flags: W
HStem: -213 23<-10 4> 354 30<15 73> 416 20G<189 211>
VStem: 87 127<-42 344>
LayerCount: 2
Fore
SplineSet
87 62 m 2
 87 254 l 2
 87 264 86 319 78 334 c 0
 70 349 24 354 17 354 c 1
 14 356 13 384 18 384 c 1
 92 390 171 417 208 436 c 1
 215 434 225 422 225 419 c 1
 222 411 216 377 215 363 c 0
 214 342 214 308 214 302 c 2
 214 117 l 2
 214 35 203 -47 167 -100 c 0
 121 -166 35 -213 2 -213 c 1
 -5 -209 -12 -202 -12 -196 c 0
 -12 -194 -12 -190 -11 -189 c 0
 -7 -187 87 -139 87 62 c 2
EndSplineSet
EndChar

StartChar: Aogonek
Encoding: 260 260 380
Width: 655
Flags: W
HStem: -213 68<464 544> -4 36<140 205 382 442 600 660> 4 28<147 202> 220 47<205 369> 627 20G<331 341>
VStem: 407 72<-163 -79>
LayerCount: 2
Fore
SplineSet
292 220 m 0xdc
 252 220 225 220 191 219 c 0
 188 219 185 216 184 214 c 2
 184 214 160 159 149 132 c 0
 139 108 127 74 127 67 c 0
 127 42 194 32 202 32 c 1
 208 25 206 0 203 -4 c 1xdc
 169 0 141 4 98 4 c 0xbc
 53 4 25 0 -9 -4 c 1
 -13 0 -15 20 -11 31 c 1
 1 31 48 46 58 62 c 0
 75 89 80 104 92 131 c 2
 300 609 l 2
 306 622 325 646 336 646 c 0
 345 646 351 643 353 640 c 2
 553 145 l 2
 566 115 571 95 580 74 c 0
 597 34 649 32 657 32 c 1
 662 23 663 0 659 -4 c 1xdc
 634 -3 607 0 579 2 c 1
 536 -23 480 -56 480 -99 c 0
 480 -120 492 -145 528 -145 c 0
 555 -145 591 -114 601 -106 c 1
 604 -106 607 -109 607 -117 c 0
 607 -122 603 -138 600 -142 c 0
 585 -161 535 -213 480 -213 c 0
 448 -213 407 -188 407 -137 c 0
 407 -82 478 -14 537 4 c 1
 535 4 534 4 532 4 c 0xbc
 487 4 420 -2 385 -4 c 1
 380 1 380 32 385 32 c 0
 402 32 429 38 443 50 c 0
 449 55 451 59 451 66 c 0
 451 75 393 215 393 215 c 1
 393 215 389 219 386 219 c 0
 349 221 316 220 292 220 c 0xdc
288 267 m 0
 318 267 336 267 366 269 c 0
 368 269 369 273 369 273 c 1
 288 465 l 1
 205 273 l 1
 205 273 205 270 207 270 c 0
 227 268 266 267 288 267 c 0
EndSplineSet
EndChar

StartChar: aogonek
Encoding: 261 261 381
Width: 460
Flags: W
HStem: -213 68<261 342> -8 68<121 234> 401 37<170 283>
VStem: 30 132<76 169> 42 105<285 363> 205 72<-163 -81> 262 127<67 218 250 369>
LayerCount: 2
Fore
SplineSet
443 45 m 1xea
 437 40 417 24 396 11 c 0
 362 -10 277 -56 277 -99 c 0
 277 -120 289 -145 325 -145 c 0
 352 -145 388 -114 398 -106 c 1
 401 -106 404 -109 404 -117 c 0
 404 -122 400 -138 397 -142 c 0
 382 -161 332 -213 277 -213 c 0
 245 -213 205 -188 205 -137 c 0
 205 -82 273 -25 318 0 c 1
 300 4 275 27 269 43 c 1
 260 35 193 -8 158 -8 c 0
 84 -8 30 53 30 111 c 0xf4
 30 149 56 181 81 189 c 0
 118 201 212 239 262 258 c 1
 262 265 262 271 262 278 c 2
 262 304 l 2
 262 353 238 401 204 401 c 0
 167 401 157 363 147 319 c 0
 142 297 127 276 93 276 c 0
 67 276 42 296 42 323 c 0
 42 336 48 349 56 363 c 1
 69 376 156 438 242 438 c 0
 323 438 389 377 389 289 c 2
 389 106 l 2
 389 80 399 66 412 66 c 0
 426 66 436 74 440 76 c 1
 444 74 447 66 447 60 c 0
 447 53 446 50 443 45 c 1xea
222 61 m 0
 246 61 262 75 262 81 c 2
 262 218 l 1xf2
 242 208 217 200 197 187 c 0
 170 169 161 142 162 121 c 0
 163 79 197 61 222 61 c 0
EndSplineSet
Substitution2: "'smcp' Lowercase to Small Capitals in Latin lookup 0 subtable" aogonek.sc
EndChar

StartChar: dcroat
Encoding: 273 273 382
Width: 531
Flags: W
HStem: -8 62<161 288> 27 31<467 513> 386 50<206 317> 515 36<189 514> 609 31<263 319> 659 20<453 457>
VStem: 31 139<119 291> 331 127<69 370 434 600>
LayerCount: 2
Fore
SplineSet
512 515 m 1x3f
 484 515 204 515 190 515 c 1
 186 515 185 542 191 551 c 1
 219 551 498 551 512 551 c 1
 516 551 516 524 512 515 c 1x3f
EndSplineSet
Refer: 68 100 N 1 0 0 1 0 0 2
Substitution2: "'smcp' Lowercase to Small Capitals in Latin lookup 0 subtable" dcroat.sc
EndChar

StartChar: Eogonek
Encoding: 280 280 383
Width: 587
Flags: W
HStem: -213 68<378 458> -3 36<35 100> -2 43<252 445> 303 46<245 388> 605 36<36 102 247 433>
VStem: 108 137<49 300 350 602> 322 72<-163 -81> 424 30<378 425>
LayerCount: 2
Fore
SplineSet
177 642 m 0xdf
 218 642 437 647 495 648 c 1
 502 599 514 548 523 504 c 1
 520 501 507 499 500 499 c 0
 493 499 487 502 485 507 c 0
 464 561 439 605 379 605 c 2
 298 605 l 2
 276 605 254 605 249 594 c 0
 244 582 245 562 245 534 c 2
 245 359 l 2
 245 353 266 349 287 349 c 2
 338 349 l 2
 396 349 408 360 424 417 c 0
 425 422 429 425 436 425 c 0
 443 425 451 423 454 420 c 1
 454 232 l 1
 452 230 444 229 437 229 c 0
 430 229 424 231 423 236 c 0
 411 283 398 292 389 296 c 0
 377 301 352 303 315 303 c 0
 288 303 245 301 245 289 c 2
 245 138 l 2
 245 132 244 81 252 61 c 0
 258 47 291 41 316 41 c 2
 380 41 l 2
 417 41 449 51 471 73 c 0
 492 94 507 122 524 166 c 0
 525 170 530 172 537 172 c 0
 547 172 564 169 567 166 c 1
 548 113 521 41 514 -2 c 1
 467 -15 394 -56 394 -99 c 0
 394 -120 406 -145 442 -145 c 0
 469 -145 505 -114 515 -106 c 1
 518 -106 521 -109 521 -117 c 0
 521 -122 517 -138 514 -142 c 0
 499 -161 449 -213 394 -213 c 0
 362 -213 322 -188 322 -137 c 0
 322 -84 388 -23 446 -2 c 1xbf
 372 -2 254 -2 163 -2 c 0
 100 -2 49 -3 37 -3 c 1
 33 3 32 26 37 33 c 1
 50 34 95 37 100 50 c 0
 108 70 108 100 108 142 c 2
 108 501 l 2
 108 543 108 573 100 593 c 0
 95 606 50 607 37 608 c 1
 32 615 33 639 37 645 c 1
 81 642 136 642 177 642 c 0xdf
EndSplineSet
EndChar

StartChar: eogonek
Encoding: 281 281 384
Width: 449
Flags: W
HStem: -213 68<261 342> -9 82<225 315> 236 39<159 284> 396 40<196 276>
VStem: 31 127<144 236 275 290> 205 72<-163 -61> 298 121<283 362>
LayerCount: 2
Fore
SplineSet
364 36 m 0
 294 -19 277 -56 277 -99 c 0
 277 -120 289 -145 325 -145 c 0
 352 -145 388 -114 398 -106 c 1
 401 -106 404 -109 404 -117 c 0
 404 -122 400 -138 397 -142 c 0
 382 -161 332 -213 277 -213 c 0
 245 -213 205 -188 205 -137 c 0
 205 -82 242 -31 271 -6 c 1
 260 -8 248 -9 236 -9 c 0
 127 -9 31 67 31 195 c 0
 31 318 136 437 248 437 c 0
 376 437 419 346 419 289 c 0
 419 268 408 249 393 248 c 0
 327 242 230 238 158 236 c 1
 158 99 251 73 295 73 c 0
 352 73 383 100 404 122 c 1
 411 120 416 110 416 104 c 0
 416 97 415 89 413 86 c 0
 405 74 388 55 364 36 c 0
159 275 m 1
 168 274 262 280 285 283 c 0
 297 284 298 293 298 299 c 0
 298 344 282 396 238 396 c 0
 180 396 159 308 159 275 c 1
EndSplineSet
Substitution2: "'smcp' Lowercase to Small Capitals in Latin lookup 0 subtable" eogonek.sc
EndChar

StartChar: Hbar
Encoding: 294 294 385
Width: 723
Flags: W
HStem: -4 36<35 100 252 317 407 472 624 689> 310 50<246 480> 478 45<36 674> 610 36<35 100 252 317 407 472 624 689>
VStem: 108 137<40 306 359 602> 480 137<40 308 359 602>
LayerCount: 2
Fore
SplineSet
669 522 m 2
 673 522 675 514 675 509 c 0
 675 503 673 487 669 478 c 1
 41 478 l 2
 37 478 36 487 36 492 c 0
 36 498 36 513 42 522 c 1
 669 522 l 2
EndSplineSet
Refer: 40 72 N 1 0 0 1 0 0 2
EndChar

StartChar: hbar
Encoding: 295 295 386
Width: 569
Flags: W
HStem: -4 36<14 78 221 279 304 357 499 564> 356 1<214 299> 515 36<31 359> 609 31<18 74> 659 20<208 212>
VStem: 86 127<40 331 357 601> 365 127<40 327>
LayerCount: 2
Fore
SplineSet
35 551 m 1
 63 551 341 551 355 551 c 1
 356 551 359 548 359 543 c 0
 359 534 357 521 355 515 c 1
 327 515 48 515 34 515 c 1
 33 515 30 518 30 523 c 0
 30 532 31 545 35 551 c 1
EndSplineSet
Refer: 72 104 N 1 0 0 1 0 0 2
Substitution2: "'smcp' Lowercase to Small Capitals in Latin lookup 0 subtable" hbar.sc
EndChar

StartChar: Iogonek
Encoding: 302 302 387
Width: 351
Flags: W
HStem: -213 68<127 207> -4 36<35 100 252 317> 610 36<35 100 252 317>
VStem: 71 72<-163 -79> 108 137<40 602>
LayerCount: 2
Fore
SplineSet
177 640 m 0xe8
 218 640 277 642 315 646 c 1
 319 640 320 617 315 610 c 1
 302 609 257 606 252 593 c 0
 244 573 245 543 245 501 c 2
 245 142 l 2xe8
 245 100 244 70 252 50 c 0
 257 37 302 33 315 32 c 1
 320 25 319 2 315 -4 c 1
 294 -2 268 0 241 1 c 1
 199 -24 143 -57 143 -99 c 0
 143 -120 155 -145 191 -145 c 0
 218 -145 254 -114 264 -106 c 1
 267 -106 270 -109 270 -117 c 0
 270 -122 266 -138 263 -142 c 0
 248 -161 198 -213 143 -213 c 0
 111 -213 71 -188 71 -137 c 0xf0
 71 -83 139 -17 197 3 c 1
 189 3 182 3 175 3 c 0
 134 3 75 0 37 -4 c 1
 33 2 32 25 37 32 c 1
 50 33 95 37 100 50 c 0
 108 70 108 100 108 142 c 2
 108 501 l 2
 108 543 108 573 100 593 c 0
 95 606 50 609 37 610 c 1
 32 617 33 640 37 646 c 1
 75 642 136 640 177 640 c 0xe8
EndSplineSet
EndChar

StartChar: iogonek
Encoding: 303 303 388
Width: 307
Flags: W
HStem: -213 68<117 198> -4 36<26 91 234 292> 354 30<27 86> 416 20G<202 224> 531 141<102 204>
VStem: 61 72<-163 -79> 82 142<552 651> 99 127<40 344>
LayerCount: 2
Fore
SplineSet
82 602 m 0xfa
 82 641 114 672 153 672 c 0
 192 672 224 641 224 602 c 0
 224 563 192 531 153 531 c 0
 114 531 82 563 82 602 c 0xfa
226 302 m 2xf9
 226 142 l 2xf9
 226 106 226 70 234 50 c 0
 239 37 276 33 289 32 c 1
 294 25 293 2 289 -4 c 1
 270 -2 251 0 230 1 c 1
 188 -24 133 -57 133 -99 c 0
 133 -120 145 -145 181 -145 c 0
 208 -145 244 -114 254 -106 c 1
 257 -106 260 -109 260 -117 c 0
 260 -122 256 -138 253 -142 c 0
 238 -161 188 -213 133 -213 c 0
 101 -213 61 -188 61 -137 c 0xfc
 61 -83 131 -17 187 3 c 1
 179 3 170 3 162 3 c 0
 121 3 67 0 29 -4 c 1
 25 2 24 25 29 32 c 1
 42 33 86 37 91 50 c 0
 99 70 99 100 99 142 c 2
 99 254 l 2
 99 264 98 319 90 334 c 0
 82 349 36 354 29 354 c 1
 26 356 25 384 30 384 c 0
 104 390 183 417 220 436 c 1
 227 434 237 422 237 419 c 1
 234 411 228 377 227 363 c 0
 226 342 226 308 226 302 c 2xf9
EndSplineSet
Substitution2: "'smcp' Lowercase to Small Capitals in Latin lookup 0 subtable" iogonek.sc
EndChar

StartChar: kgreenlandic
Encoding: 312 312 391
Width: 588
Flags: W
HStem: -6 41<27 92 233 298 515 586> 354 30<27 86> 396 34<321 382 486 561> 416 20G<202 224>
VStem: 99 127<40 196 230 344>
LayerCount: 2
Fore
SplineSet
226 230 m 1xd8
 243 236 264 251 298 280 c 0
 366 339 384 359 384 374 c 0
 384 386 340 395 322 396 c 1
 319 405 319 427 324 429 c 1
 324 429 411 425 452 425 c 0
 487 425 516 428 560 430 c 1
 566 420 563 399 557 396 c 1xe8
 527 393 485 383 460 365 c 0
 439 350 391 303 331 250 c 1
 400 169 415 158 470 96 c 0
 524 36 555 35 586 35 c 1
 592 24 587 8 586 6 c 1
 570 0 525 -6 488 -6 c 0
 431 -6 383 18 354 52 c 2
 354 52 287 124 239 184 c 0
 235 190 226 196 226 196 c 1
 226 142 l 2
 226 100 226 70 234 50 c 0
 239 37 283 33 296 32 c 1
 301 25 300 2 296 -4 c 1
 258 0 203 3 162 3 c 0
 121 3 67 0 29 -4 c 1
 25 2 24 25 29 32 c 1
 42 33 86 37 91 50 c 0
 99 70 99 100 99 142 c 2
 99 254 l 2
 99 264 98 319 90 334 c 0
 82 349 36 354 29 354 c 1
 26 356 25 384 30 384 c 1
 104 390 183 417 220 436 c 1
 227 434 237 422 237 419 c 1
 234 411 228 377 227 363 c 0
 226 342 226 236 226 230 c 1xd8
EndSplineSet
Substitution2: "'smcp' Lowercase to Small Capitals in Latin lookup 0 subtable" kgreenlandic.sc
EndChar

StartChar: Lslash
Encoding: 321 321 392
Width: 570
Flags: W
HStem: -3 36<40 105> -2 43<256 462> 610 36<40 105 257 322>
VStem: 113 137<49 602>
LayerCount: 2
Fore
SplineSet
39 176 m 1x30
 33 183 15 202 20 207 c 1
 364 445 l 1
 370 439 389 419 384 414 c 1
 39 176 l 1x30
EndSplineSet
Refer: 44 76 N 1 0 0 1 5 0 2
EndChar

StartChar: lslash
Encoding: 322 322 393
Width: 304
Flags: W
HStem: -4 36<15 79 222 287> 413 20G<268 299> 609 31<19 75> 659 20<209 213>
VStem: 17 299 87 127<40 601>
LayerCount: 2
Fore
SplineSet
35 205 m 1xf8
 29 212 12 231 17 236 c 1
 296 433 l 1
 302 427 320 406 315 401 c 1
 35 205 l 1xf8
EndSplineSet
Refer: 76 108 N 1 0 0 1 1 0 2
Substitution2: "'smcp' Lowercase to Small Capitals in Latin lookup 0 subtable" lslash.sc
EndChar

StartChar: Eng
Encoding: 330 330 394
Width: 741
Flags: W
HStem: -213 60<328 453> -4 36<29 106 194 274> 617 29<35 89 647 720> 618 36<478 555 642 722>
VStem: 121 60<46 512> 569 60<238 604>
LayerCount: 2
Fore
SplineSet
629 136 m 2xec
 629 -87 516 -213 338 -213 c 3
 319 -213 291 -202 282 -195 c 1
 275 -184 266 -174 266 -153 c 3
 266 -120 294 -88 325 -88 c 3
 369 -88 396 -153 426 -153 c 3
 488 -153 539 -68 539 66 c 1
 180 512 l 1
 180 138 l 2
 180 103 180 73 185 59 c 0
 192 40 263 33 271 33 c 1
 277 23 275 2 273 -4 c 1
 234 -2 193 4 150 4 c 0
 105 4 76 -2 31 -4 c 1
 26 5 29 32 31 32 c 1
 43 32 106 40 114 58 c 0
 121 73 121 104 121 141 c 0
 121 269 121 396 121 524 c 0
 121 551 119 575 106 594 c 0
 99 605 51 610 39 610 c 0
 34 610 32 641 37 646 c 1
 67 644 102 640 147 640 c 0
 181 640 223 642 254 646 c 1xec
 291 570 445 394 567 237 c 1
 569 244 569 263 569 277 c 2
 569 510 l 0
 569 547 569 578 562 593 c 0
 554 611 491 618 479 618 c 1
 477 618 474 645 479 654 c 1xdc
 524 652 553 646 598 646 c 0xec
 641 646 682 652 721 654 c 1xdc
 723 648 725 627 719 617 c 1
 711 617 641 611 634 592 c 0
 629 578 629 548 629 513 c 2
 629 136 l 2xec
EndSplineSet
EndChar

StartChar: eng
Encoding: 331 331 395
Width: 565
Flags: W
HStem: -213 23<280 295> -4 36<26 91 234 292> 354 30<27 86> 356 1<228 312> 416 20G<202 223>
VStem: 99 127<40 331> 377 127<-42 327>
LayerCount: 2
Fore
SplineSet
377 62 m 2xde
 377 219 l 2
 377 289 364 356 312 356 c 0xde
 273 356 226 322 226 302 c 2
 226 142 l 2
 226 106 226 70 234 50 c 0
 239 37 276 33 289 32 c 1
 294 25 293 2 289 -4 c 1
 251 0 203 3 162 3 c 0
 121 3 67 0 29 -4 c 1
 25 2 24 25 29 32 c 1
 42 33 86 37 91 50 c 0
 99 70 99 100 99 142 c 2
 99 254 l 2
 99 264 98 319 90 334 c 0
 82 349 36 354 29 354 c 1
 26 356 25 384 30 384 c 1xee
 104 390 183 417 220 436 c 1
 226 436 237 424 237 419 c 1
 235 411 227 364 227 363 c 0
 227 360 227 358 228 357 c 1
 230 357 233 360 235 362 c 0
 262 393 326 436 371 436 c 0
 482 436 504 359 504 205 c 2
 504 117 l 2
 504 35 493 -47 457 -100 c 0
 411 -166 325 -213 292 -213 c 1
 285 -209 279 -202 279 -196 c 0
 279 -194 279 -190 280 -189 c 0
 284 -187 377 -139 377 62 c 2xde
EndSplineSet
Substitution2: "'smcp' Lowercase to Small Capitals in Latin lookup 0 subtable" eng.sc
EndChar

StartChar: OE
Encoding: 338 338 396
Width: 991
Flags: W
HStem: -3 44<301 439 655 862> 303 46<647 791> 607 40<282 440 650 836>
VStem: 39 147<208 433> 511 137<67 300 350 555> 827 30<378 425>
LayerCount: 2
Fore
SplineSet
580 642 m 0
 621 642 839 647 897 648 c 1
 904 599 917 548 926 504 c 1
 923 501 910 499 903 499 c 0
 896 499 890 502 888 507 c 0
 867 561 842 605 782 605 c 2
 701 605 l 0
 679 605 657 605 652 594 c 0
 647 582 647 562 647 534 c 2
 647 359 l 2
 647 353 668 349 689 349 c 2
 741 349 l 2
 799 349 811 360 827 417 c 0
 828 422 832 425 839 425 c 0
 846 425 854 423 857 420 c 1
 857 232 l 1
 855 230 847 229 840 229 c 0
 833 229 827 231 826 236 c 0
 814 283 801 292 792 296 c 0
 780 301 755 303 718 303 c 0
 691 303 647 301 647 289 c 2
 647 138 l 2
 647 132 647 81 655 61 c 0
 661 47 694 41 719 41 c 0
 783 41 l 2
 820 41 852 51 874 73 c 0
 895 94 910 122 927 166 c 0
 928 170 933 172 940 172 c 0
 950 172 967 169 970 166 c 1
 951 113 924 41 917 -2 c 1
 890 -2 706 -3 574 -3 c 0
 507 -3 453 -3 440 -3 c 1
 419 -3 542 -3 370 -3 c 0
 198 -3 39 137 39 320 c 0
 39 503 196 647 368 647 c 0
 465 647 539 642 580 642 c 0
345 607 m 0
 230 607 187 472 187 354 c 3
 187 205 243 36 389 36 c 1
 421 36 471 45 490 67 c 0
 504 84 511 104 511 146 c 2
 511 470 l 2
 511 512 499 547 479 568 c 0
 461 587 421 607 345 607 c 0
EndSplineSet
EndChar

StartChar: oe
Encoding: 339 339 397
Width: 767
Flags: W
HStem: -9 82<542 644> -7 41<224 317> 236 39<478 602> 396 40<204 294 515 595>
VStem: 31 139<116 306> 350 127<142 235> 616 121<283 362>
LayerCount: 2
Fore
SplineSet
557 396 m 3x3e
 499 396 478 308 478 275 c 1
 487 274 581 280 604 283 c 0
 616 284 616 293 616 299 c 11
 616 344 601 396 557 396 c 3x3e
248 396 m 3
 177 396 170 302 170 231 c 27
 170 145 200 34 271 34 c 3x7e
 342 34 350 127 350 197 c 27
 350 284 319 396 248 396 c 3
613 73 m 0xbe
 670 73 702 100 723 122 c 1
 730 120 734 110 734 104 c 3
 734 97 733 89 731 86 c 0
 713 59 648 -9 555 -9 c 0xbe
 499 -9 447 12 409 48 c 1
 370 15 318 -7 261 -7 c 0x7e
 125 -7 31 89 31 212 c 0
 31 335 131 437 259 437 c 0
 327 437 385 413 426 373 c 1
 464 412 514 437 566 437 c 0
 694 437 737 346 737 289 c 0
 737 268 726 249 711 248 c 0
 645 242 549 238 477 236 c 1
 477 99 569 73 613 73 c 0xbe
EndSplineSet
Substitution2: "'smcp' Lowercase to Small Capitals in Latin lookup 0 subtable" oe.sc
EndChar

StartChar: Tbar
Encoding: 358 358 398
Width: 619
Flags: W
HStem: -4 36<169 233 386 450> 301 39<137 482> 599 43<100 241 378 519>
VStem: 8 38<472 525> 241 137<40 599> 573 38<472 525>
LayerCount: 2
Fore
SplineSet
481 301 m 1
 453 301 153 301 139 301 c 1
 135 301 134 331 140 340 c 1
 168 340 467 340 481 340 c 1
 485 340 485 310 481 301 c 1
EndSplineSet
Refer: 52 84 N 1 0 0 1 0 0 3
EndChar

StartChar: tbar
Encoding: 359 359 399
Width: 335
Flags: W
HStem: -7 62<177 271> 267 36<11 321> 372 46<15 80 207 320>
VStem: 80 127<67 372 418 488>
LayerCount: 2
Fore
SplineSet
319 267 m 1
 291 267 27 267 13 267 c 1
 9 267 8 294 14 303 c 1
 42 303 305 303 319 303 c 1
 323 303 323 276 319 267 c 1
EndSplineSet
Refer: 84 116 N 1 0 0 1 0 0 2
Substitution2: "'smcp' Lowercase to Small Capitals in Latin lookup 0 subtable" tbar.sc
EndChar

StartChar: Uogonek
Encoding: 370 370 400
Width: 733
Flags: W
HStem: -213 68<411 491> -5 72<317 479> 610 36<21 85 238 302 496 572 648 725>
VStem: 93 137<166 602> 355 72<-163 -69> 579 61<155 601>
LayerCount: 2
Fore
SplineSet
455 4 m 1
 425 -4 399 -5 366 -5 c 0
 219 -5 93 66 93 294 c 2
 93 501 l 2
 93 543 93 573 85 593 c 0
 80 606 36 609 23 610 c 1
 18 617 19 640 23 646 c 1
 61 642 121 640 162 640 c 0
 203 640 262 642 300 646 c 1
 304 640 305 617 300 610 c 1
 287 609 243 606 238 593 c 0
 230 573 230 543 230 501 c 2
 230 322 l 2
 230 256 232 207 254 155 c 0
 291 69 382 67 420 67 c 0
 512 67 579 119 579 279 c 2
 579 501 l 2
 579 543 580 573 572 593 c 0
 567 606 511 609 498 610 c 1
 493 617 494 640 498 646 c 1
 544 642 570 640 615 640 c 0
 658 640 683 644 723 646 c 1
 727 640 728 617 723 610 c 1
 710 609 653 606 648 593 c 0
 640 573 640 549 640 507 c 2
 640 311 l 2
 640 160 598 78 536 36 c 8
 480 -1 427 -56 427 -99 c 0
 427 -120 439 -145 475 -145 c 0
 502 -145 538 -114 548 -106 c 1
 551 -106 554 -109 554 -117 c 0
 554 -122 550 -138 547 -142 c 0
 532 -161 482 -213 427 -213 c 0
 395 -213 355 -188 355 -137 c 0
 355 -82 397 -29 455 4 c 1
EndSplineSet
EndChar

StartChar: uogonek
Encoding: 371 371 401
Width: 552
Flags: W
HStem: -213 68<385 465> -5 60<159 307> 27 31<483 530> 354 30<9 68 275 334> 416 20G<184 206 450 472>
VStem: 82 127<85 344> 329 72<-163 -68> 347 127<69 344>
LayerCount: 2
Fore
SplineSet
207 -5 m 0xdd
 112 -5 82 78 82 170 c 2
 82 254 l 2
 82 264 81 319 73 334 c 0
 65 349 18 354 11 354 c 1
 8 356 7 384 12 384 c 0
 86 390 166 417 203 436 c 1
 210 434 219 422 219 419 c 1
 216 411 210 377 209 363 c 0
 208 342 208 308 208 302 c 2
 208 214 l 2
 208 110 224 55 285 55 c 0
 312 55 347 76 347 91 c 2
 347 254 l 2
 347 264 346 319 338 334 c 0
 330 349 284 354 277 354 c 1
 274 356 273 384 278 384 c 0
 352 390 431 417 468 436 c 1
 475 434 485 422 485 419 c 1
 482 411 476 377 475 363 c 0
 474 342 474 308 474 302 c 2
 474 105 l 2xdd
 474 90 474 78 483 68 c 0
 492 58 518 59 527 59 c 1
 529 57 530 53 530 46 c 0
 530 40 528 33 524 27 c 1
 517 26 508 26 500 24 c 0
 439 9 401 -58 401 -99 c 0
 401 -120 413 -145 449 -145 c 0
 476 -145 512 -114 522 -106 c 1
 525 -106 528 -109 528 -117 c 0
 528 -122 524 -138 521 -142 c 0
 506 -161 456 -213 401 -213 c 0
 369 -213 329 -188 329 -137 c 0xbe
 329 -82 373 -23 432 10 c 1
 395 1 363 -7 356 -7 c 0
 352 -7 347 2 347 17 c 2
 347 32 l 2
 347 34 347 39 344 37 c 0
 328 26 275 -5 207 -5 c 0xdd
EndSplineSet
Substitution2: "'smcp' Lowercase to Small Capitals in Latin lookup 0 subtable" uogonek.sc
EndChar

StartChar: uni01EA
Encoding: 490 490 457
Width: 709
Flags: W
HStem: -213 74<411 494> -10 55<300 431> 597 55<275 419>
VStem: 42 152<200 439> 348 82<-163 -71> 518 152<199 437>
LayerCount: 2
Back
SplineSet
521.965820312 41.9921875 m 0
 566.565429688 71.890625 602.048828125 111.385742188 628.416992188 160.477539062 c 0
 654.78515625 209.568359375 667.96875 262.846679688 667.96875 320.3125 c 1024
EndSplineSet
Fore
SplineSet
341 597 m 0
 232 597 194 473 194 342 c 0
 194 221 236 45 371 45 c 0
 475 45 518 170 518 302 c 0
 518 433 483 597 341 597 c 0
355 651 m 0
 527 651 670 503 670 320 c 0
 670 203 615 109 531 47 c 0
 477 8 430 -53 430 -107 c 0
 430 -128 449 -139 470 -139 c 0
 497 -139 535 -117 548 -106 c 0
 549 -106 553 -116 553 -124 c 0
 553 -129 550 -142 547 -146 c 0
 532 -165 482 -213 427 -213 c 0
 395 -213 348 -189 348 -137 c 0
 348 -94 387 -31 433 1 c 1
 412 -7 379 -10 355 -10 c 0
 183 -10 42 137 42 320 c 0
 42 503 183 651 355 651 c 0
EndSplineSet
EndChar

StartChar: uni01EB
Encoding: 491 491 458
Width: 509
Flags: W
HStem: -213 74<304 388> -7 54<211 311> 385 54<195 296>
VStem: 24 139<123 309> 241 82<-163 -72> 343 141<121 308>
LayerCount: 2
Fore
SplineSet
254 438 m 0
 382 438 483 339 483 216 c 0
 483 165 467 118 438 81 c 0
 380 8 323 -55 323 -107 c 0
 323 -128 342 -139 363 -139 c 0
 390 -139 428 -117 441 -106 c 0
 442 -106 446 -116 446 -124 c 0
 446 -129 443 -142 440 -146 c 0
 425 -165 375 -213 320 -213 c 0
 288 -213 241 -189 241 -137 c 0
 241 -96 280 -31 323 3 c 1
 302 -4 278 -7 254 -7 c 0
 126 -7 24 93 24 216 c 0
 24 339 126 438 254 438 c 0
240 385 m 0
 178 385 163 308 163 246 c 0
 163 159 177 47 264 47 c 0
 325 47 343 121 343 182 c 0
 343 271 329 385 240 385 c 0
EndSplineSet
EndChar

StartChar: a.sc
Encoding: 65563 -1 473
Width: 488
VWidth: 0
Flags: W
HStem: -4 33<113 166 250 292 441 488> 128 37<154 252>
LayerCount: 2
Fore
SplineSet
53 50 m 0
 62 63 67 80 77 101 c 0
 132 234 166 304 218 426 c 0
 223 438 240 450 248 450 c 0
 254 450 257 446 260 439 c 2
 406 111 l 2
 415 92 426 71 432 58 c 0
 445 33 480 29 485 29 c 1
 490 21 491 0 487 -4 c 1
 461 -2 402 2 373 2 c 0
 342 2 276 -2 252 -4 c 1
 247 1 247 29 252 29 c 0
 264 29 283 33 293 41 c 0
 297 44 298 47 298 51 c 0
 298 62 291 83 281 103 c 2
 270 125 l 17
 269 125 267 127 265 127 c 0
 240 129 225 128 208 128 c 0
 181 128 167 128 144 127 c 0
 142 127 138 124 137 124 c 1
 132 113 131 112 128 104 c 0
 122 87 111 62 111 52 c 0
 111 34 158 29 163 29 c 1
 169 23 167 0 164 -4 c 1
 141 -1 114 3 85 3 c 0
 54 3 31 -1 8 -4 c 1
 4 0 3 18 7 28 c 1
 15 28 46 39 53 50 c 0
252 170 m 9
 202 276 l 1
 154 170 l 17
 154 169 155 168 156 168 c 0
 170 166 189 165 205 165 c 0
 226 165 230 165 251 167 c 0
 252 167 252 169 252 170 c 9
EndSplineSet
EndChar

StartChar: b.sc
Encoding: 65564 -1 474
Width: 515
VWidth: 0
Flags: W
HStem: -3 36<42 90 228 315> 219 35<223 291> 405 36<42 90 226 291>
VStem: 96 127<44 219 254 394> 307 134<289 393> 342 137<57 180>
LayerCount: 2
Fore
SplineSet
223 361 m 2xf8
 223 254 l 1
 254 254 l 2
 284 254 307 278 307 324 c 0
 307 382 287 405 256 405 c 0
 242 405 229 405 226 398 c 0
 223 391 223 379 223 361 c 2xf8
281 441 m 0
 354 441 441 414 441 336 c 0xf8
 441 282 366 251 342 244 c 0
 335 242 336 240 337 240 c 0
 382 236 479 195 479 126 c 0xf4
 479 77 456 41 407 14 c 0
 374 -5 294 -4 234 -3 c 0
 201 -3 75 -2 44 -3 c 1
 40 3 39 26 44 32 c 1
 53 33 87 34 90 43 c 0
 96 56 96 77 96 104 c 2
 96 335 l 2
 96 362 96 382 90 395 c 0
 87 404 53 404 44 405 c 1
 39 411 40 435 44 441 c 1
 79 438 127 438 160 438 c 0
 193 438 235 441 281 441 c 0
223 219 m 1
 223 77 l 2
 223 73 223 48 228 40 c 0
 233 33 253 33 271 33 c 0
 302 33 342 57 342 121 c 0xf4
 342 168 320 219 257 219 c 2
 223 219 l 1
EndSplineSet
EndChar

StartChar: c.sc
Encoding: 65565 -1 475
Width: 524
VWidth: 0
Flags: W
HStem: -6 39<258 401> 409 39<249 393>
VStem: 39 141<127 307> 456 34<99 139>
LayerCount: 2
Fore
SplineSet
490 136 m 1
 490 128 471 30 460 26 c 0
 413 10 364 -6 296 -6 c 0
 155 -6 39 89 39 216 c 0
 39 346 154 448 295 448 c 0
 344 448 404 442 448 431 c 1
 450 424 476 343 476 335 c 0
 476 331 465 325 455 325 c 3
 451 325 445 325 442 327 c 1
 435 350 410 409 315 409 c 0
 220 409 180 325 180 235 c 0
 180 122 227 33 328 33 c 0
 368 33 393 45 411 61 c 0
 439 84 455 139 456 144 c 1
 470 144 482 140 490 136 c 1
EndSplineSet
EndChar

StartChar: d.sc
Encoding: 65566 -1 476
Width: 615
VWidth: 0
Flags: W
HStem: -3 36<42 90 228 355> 405 36<42 90 226 339>
VStem: 96 127<48 394> 430 145<128 316>
LayerCount: 2
Fore
SplineSet
223 358 m 2
 223 98 l 2
 223 94 223 61 228 48 c 0
 232 39 252 33 270 33 c 0
 379 33 430 93 430 217 c 0
 430 342 359 405 259 405 c 0
 243 405 229 404 226 397 c 0
 223 389 223 377 223 358 c 2
158 438 m 0
 190 438 231 440 277 441 c 0
 456 441 575 363 575 225 c 0
 575 68 439 -3 272 -3 c 0
 240 -3 74 -3 44 -4 c 1
 40 2 39 26 44 32 c 1
 53 33 87 34 90 43 c 0
 96 56 96 77 96 104 c 2
 96 335 l 2
 96 362 96 382 90 395 c 0
 87 404 53 404 44 405 c 1
 39 411 40 435 44 441 c 1
 79 438 126 438 158 438 c 0
EndSplineSet
EndChar

StartChar: e.sc
Encoding: 65567 -1 477
Width: 464
VWidth: 0
Flags: W
HStem: -2 39<43 90 228 370> 201 43<223 313> 406 33<43 90 226 353>
VStem: 96 127<49 200 244 397> 334 26<256 287>
LayerCount: 2
Fore
SplineSet
223 361 m 2
 223 251 l 2
 223 247 235 244 248 244 c 2
 280 244 l 2
 315 244 324 251 334 282 c 0
 335 285 337 287 344 287 c 0
 351 287 358 286 361 283 c 1
 361 161 l 1
 360 159 354 157 349 157 c 0
 344 157 338 159 337 162 c 0
 329 189 320 195 314 197 c 0
 306 200 293 201 269 201 c 0
 251 201 223 199 223 192 c 2
 223 98 l 2
 223 94 223 61 228 49 c 0
 232 40 253 37 270 37 c 0
 313 37 l 2
 337 37 356 44 371 58 c 0
 385 71 396 87 407 113 c 0
 408 115 413 116 418 116 c 0
 425 116 436 115 438 113 c 1
 425 77 407 27 402 -2 c 1
 372 -2 72 -2 44 -3 c 1
 40 3 39 26 44 32 c 1
 53 33 87 34 90 43 c 0
 96 56 96 77 96 104 c 2
 96 337 l 2
 96 364 96 384 90 397 c 0
 87 406 53 407 44 408 c 1
 39 414 40 436 44 442 c 1
 77 439 122 439 152 439 c 0
 182 439 345 444 388 445 c 1
 393 411 402 376 408 345 c 1
 406 343 398 342 393 342 c 0
 388 342 381 343 380 346 c 0
 366 378 349 406 310 406 c 2
 258 406 l 0
 243 406 229 405 226 398 c 0
 223 390 223 379 223 361 c 2
EndSplineSet
EndChar

StartChar: f.sc
Encoding: 65568 -1 478
Width: 428
VWidth: 0
Flags: W
HStem: -4 36<42 90 227 286> 197 43<223 317> 406 33<43 90 226 354>
VStem: 96 127<45 196 240 395> 332 28<250 282>
LayerCount: 2
Fore
SplineSet
223 361 m 2
 223 247 l 2
 223 243 235 240 248 240 c 2
 280 240 l 2
 315 240 322 247 332 278 c 0
 333 281 336 282 343 282 c 0
 350 282 358 280 361 277 c 1
 361 157 l 1
 360 155 354 153 349 153 c 0
 344 153 341 155 340 158 c 0
 332 185 324 191 318 193 c 0
 310 196 293 197 269 197 c 0
 251 197 223 196 223 188 c 2
 223 102 l 2
 223 76 222 56 227 43 c 0
 230 35 277 33 284 32 c 1
 289 26 288 2 284 -4 c 1
 255 -1 187 2 155 2 c 0
 123 2 73 -1 44 -4 c 1
 40 2 39 26 44 32 c 1
 53 33 87 35 90 44 c 0
 96 57 96 77 96 104 c 2
 96 335 l 2
 96 362 96 383 90 396 c 0
 87 405 53 405 44 406 c 1
 39 412 40 436 44 442 c 1
 77 439 122 439 152 439 c 0
 182 439 345 444 388 445 c 1
 393 411 402 375 408 344 c 1
 406 342 397 341 392 341 c 0
 387 341 383 343 382 346 c 0
 368 379 351 406 312 406 c 2
 258 406 l 0
 243 406 229 405 226 398 c 0
 223 390 223 379 223 361 c 2
EndSplineSet
EndChar

StartChar: g.sc
Encoding: 65569 -1 479
Width: 584
VWidth: 0
Flags: W
HStem: -6 39<256 383> 180 36<316 380 518 560> 409 39<252 410>
VStem: 38 141<129 305> 384 125<38 171> 463 38<326 361>
LayerCount: 2
Fore
SplineSet
380 163 m 0xf8
 373 179 330 180 319 180 c 0
 314 180 313 211 318 216 c 1
 361 214 405 210 448 210 c 0
 484 210 525 214 559 216 c 1
 563 203 561 180 558 180 c 1
 552 180 526 176 518 171 c 0
 514 168 509 156 509 143 c 0
 509 119 509 85 509 63 c 0xf8
 509 57 515 48 515 45 c 0
 515 38 498 30 487 27 c 0
 437 11 382 -6 310 -6 c 0
 161 -6 38 89 38 216 c 0
 38 342 160 448 308 448 c 0
 360 448 424 442 470 431 c 1
 472 424 501 343 501 335 c 0
 501 331 489 325 478 325 c 3
 473 325 467 325 463 327 c 1xf4
 456 350 428 409 326 409 c 0
 219 409 179 328 179 232 c 0
 179 116 231 33 326 33 c 0
 351 33 366 38 378 43 c 0
 381 44 384 47 384 53 c 0
 384 62 384 103 384 132 c 0
 384 145 386 149 380 163 c 0xf8
EndSplineSet
EndChar

StartChar: h.sc
Encoding: 65570 -1 480
Width: 606
Flags: W
HStem: -4 36<42 90 227 274 321 376 516 564> 204 48<223 384> 407 36<42 90 227 275 322 376 516 564>
VStem: 96 127<44 204 251 395> 384 127<45 202 252 395>
LayerCount: 2
Fore
SplineSet
223 200 m 1
 223 102 l 2
 223 76 223 56 227 43 c 0
 230 35 265 33 272 32 c 1
 277 26 276 2 272 -4 c 1
 243 0 185 2 154 2 c 0
 123 2 73 0 44 -4 c 1
 40 2 39 26 44 32 c 1
 53 33 87 35 90 44 c 0
 96 57 96 77 96 104 c 2
 96 335 l 2
 96 362 96 383 90 396 c 0
 87 405 53 406 44 407 c 1
 39 413 40 437 44 443 c 1
 73 439 124 438 155 438 c 0
 186 438 244 439 273 443 c 1
 277 437 278 413 273 407 c 1
 266 406 230 404 227 396 c 0
 223 383 223 364 223 338 c 2
 223 253 l 1
 223 252 224 252 224 252 c 1
 250 251 275 249 305 249 c 0
 329 249 359 251 383 252 c 1
 383 252 385 254 385 255 c 0
 384 338 l 2
 384 364 383 383 376 396 c 0
 371 404 337 406 325 407 c 1
 320 413 321 437 325 443 c 1
 358 439 404 438 440 438 c 0
 476 438 529 439 562 443 c 1
 566 437 567 413 562 407 c 1
 553 406 519 405 516 396 c 0
 510 383 511 362 511 335 c 2
 511 104 l 2
 511 77 510 57 516 44 c 0
 519 35 553 33 562 32 c 1
 567 26 566 2 562 -4 c 1
 529 0 474 2 438 2 c 0
 402 2 357 0 324 -4 c 1
 320 2 319 26 324 32 c 1
 336 33 371 35 376 43 c 0
 383 56 384 75 384 101 c 2
 384 199 l 0
 384 200 382 202 382 202 c 1
 358 203 332 204 305 204 c 0
 231 204 225 204 223 203 c 1
 222 202 223 200 223 200 c 1
EndSplineSet
EndChar

StartChar: i.sc
Encoding: 65571 -1 481
Width: 318
Flags: W
HStem: -4 36<42 90 228 276> 407 36<42 90 228 276>
VStem: 96 127<45 395>
LayerCount: 2
Fore
SplineSet
160 438 m 0
 193 438 243 439 274 443 c 1
 278 437 279 413 274 407 c 1
 265 406 231 405 228 396 c 0
 222 383 223 362 223 335 c 2
 223 104 l 2
 223 77 222 57 228 44 c 0
 231 35 265 33 274 32 c 1
 279 26 278 2 274 -4 c 1
 243 0 192 2 159 2 c 0
 126 2 75 0 44 -4 c 1
 40 2 39 26 44 32 c 1
 53 33 87 35 90 44 c 0
 96 57 96 77 96 104 c 2
 96 335 l 2
 96 362 96 383 90 396 c 0
 87 405 53 406 44 407 c 1
 39 413 40 437 44 443 c 1
 75 439 127 438 160 438 c 0
EndSplineSet
EndChar

StartChar: j.sc
Encoding: 65572 -1 482
Width: 310
Flags: W
HStem: -146 51<-15 76> 407 36<32 86 226 285>
VStem: 92 127<-19 395>
LayerCount: 2
Fore
SplineSet
92 336 m 2
 92 363 91 383 86 396 c 0
 83 405 43 406 34 407 c 1
 29 413 30 437 34 443 c 1
 67 439 129 438 165 438 c 0
 201 438 250 439 283 443 c 1
 287 437 288 413 283 407 c 1
 271 406 231 405 226 396 c 0
 218 383 219 361 219 333 c 2
 219 93 l 2
 219 -57 131 -146 -8 -146 c 3
 -23 -146 -54 -141 -61 -134 c 1
 -67 -127 -79 -107 -79 -85 c 3
 -79 -50 -51 -33 -30 -33 c 3
 0 -33 28 -95 49 -95 c 3
 91 -95 92 -9 92 97 c 2
 92 336 l 2
EndSplineSet
EndChar

StartChar: k.sc
Encoding: 65573 -1 483
Width: 568
Flags: W
HStem: -4 33<44 90 228 274 507 566> 407 36<42 90 228 276 344 391 463 532>
VStem: 96 127<42 192 245 395>
LayerCount: 2
Fore
SplineSet
160 438 m 0
 193 438 244 439 274 443 c 1
 278 437 279 413 274 407 c 1
 265 406 231 405 228 396 c 0
 223 383 223 365 223 338 c 2
 223 245 l 1
 252 267 276 286 294 300 c 0
 338 334 348 343 379 372 c 0
 387 380 391 388 391 393 c 0
 391 407 356 408 346 408 c 1
 341 415 341 435 344 443 c 1
 368 441 411 438 435 438 c 0
 464 438 508 439 532 443 c 1
 535 437 535 415 530 409 c 1
 524 408 477 403 451 381 c 2
 451 381 367 310 317 269 c 0
 311 264 312 262 315 259 c 0
 365 197 386 173 433 119 c 16
 483 61 515 26 565 26 c 1
 570 20 566 -5 565 -7 c 1
 545 -9 513 -11 486 -11 c 0
 414 -11 358 37 340 59 c 0
 319 84 259 150 230 190 c 0
 228 192 228 192 227 192 c 0
 224 192 224 192 223 190 c 1
 223 103 l 2
 223 75 223 54 228 41 c 0
 231 32 265 30 274 29 c 1
 279 23 278 2 274 -4 c 1
 244 0 192 2 159 2 c 0
 126 2 74 0 44 -4 c 1
 40 2 39 23 44 29 c 1
 53 30 87 32 90 41 c 0
 96 54 96 75 96 102 c 2
 96 338 l 2
 96 365 96 383 90 396 c 0
 87 405 53 406 44 407 c 1
 39 413 40 437 44 443 c 1
 74 439 127 438 160 438 c 0
EndSplineSet
EndChar

StartChar: l.sc
Encoding: 65574 -1 484
Width: 455
Flags: W
HStem: -2 40<43 90 228 374> 407 36<42 90 228 276>
VStem: 96 127<51 395>
LayerCount: 2
Fore
SplineSet
223 102 m 2
 223 98 223 64 228 51 c 0
 232 42 254 38 272 38 c 0
 312 38 l 2
 337 38 358 44 374 59 c 0
 388 73 399 91 411 119 c 0
 412 122 418 123 423 123 c 0
 430 123 442 122 444 120 c 1
 431 82 413 29 408 -2 c 1
 377 -2 72 -2 44 -3 c 1
 40 3 39 27 44 33 c 1
 53 34 87 35 90 44 c 0
 96 57 96 77 96 104 c 2
 96 335 l 2
 96 362 96 383 90 396 c 0
 87 405 53 406 44 407 c 1
 39 413 40 437 44 443 c 1
 74 439 127 438 160 438 c 0
 193 438 244 439 274 443 c 1
 278 437 279 413 274 407 c 1
 265 406 231 404 228 396 c 0
 223 383 223 363 223 336 c 2
 223 102 l 2
EndSplineSet
EndChar

StartChar: m.sc
Encoding: 65575 -1 485
Width: 708
VWidth: 0
Flags: W
HStem: -4 34<151 204 627 676> 407 36<49 100 618 655> 419 20G<457 467>
VStem: 105 47<42 307> 485 123<84 349> 493 124<43 285>
LayerCount: 2
Fore
SplineSet
135 439 m 0xd8
 158 439 180 441 207 443 c 1xd8
 228 399 297 290 353 172 c 1
 353 172 355 171 356 171 c 0
 357 171 359 174 359 175 c 2
 359 175 408 289 437 363 c 24
 449 392 463 438 463 438 c 1xb8
 470 437 508 438 522 438 c 0
 545 438 627 441 654 443 c 1
 656 439 660 413 654 406 c 1
 648 406 625 404 618 399 c 0
 611 394 607 391 608 373 c 0xd8
 610 328 612 188 617 106 c 0
 618 81 619 59 626 42 c 0
 631 33 667 30 673 30 c 1
 678 22 677 5 674 -4 c 1
 647 -2 605 4 575 4 c 0
 543 4 469 -2 437 -4 c 1
 432 0 432 22 435 30 c 1
 443 30 480 33 487 42 c 0
 490 47 493 58 493 65 c 0xd4
 493 72 493 92 492 104 c 2
 485 306 l 2
 484 317 484 349 478 349 c 0
 477 349 475 348 474 345 c 2
 348 26 l 2
 346 20 329 -2 314 -2 c 0
 312 -2 309 -1 307 0 c 1
 152 307 l 1
 147 171 148 199 145 96 c 0
 144 81 147 56 148 51 c 0
 151 37 198 30 203 30 c 1
 206 23 207 5 204 -4 c 1
 178 -2 149 4 120 4 c 0
 90 4 64 -2 34 -4 c 1
 29 3 30 20 33 29 c 1
 42 29 83 35 93 51 c 0
 100 62 99 79 100 111 c 0
 102 187 104 349 105 379 c 0
 105 384 105 389 100 394 c 0
 93 401 65 407 51 407 c 1
 44 414 49 441 51 443 c 1
 82 441 104 439 135 439 c 0xd8
EndSplineSet
EndChar

StartChar: n.sc
Encoding: 65576 -1 486
Width: 566
VWidth: 0
Flags: W
HStem: -4 33<34 94 156 216> 410 33<44 91 358 418 480 541>
VStem: 102 48<38 321> 425 48<188 402>
LayerCount: 2
Fore
SplineSet
472 91 m 0
 472 53 474 33 476 -1 c 1
 474 -4 461 -5 459 -5 c 0
 453 -5 445 2 437 11 c 2
 150 321 l 1
 150 109 l 2
 150 86 151 59 155 48 c 0
 160 35 209 30 214 30 c 1
 220 21 218 2 216 -4 c 1
 187 -2 155 3 123 3 c 0
 90 3 69 -2 36 -4 c 1
 31 4 34 29 36 29 c 0
 44 29 89 34 94 46 c 0
 99 56 102 87 102 111 c 0
 102 195 102 254 102 339 c 0
 102 372 101 383 92 396 c 0
 86 405 56 410 48 410 c 0
 43 410 41 438 46 443 c 1
 68 441 87 438 121 438 c 0
 146 438 178 440 201 443 c 1
 225 392 347 281 425 188 c 1
 425 330 l 2
 425 353 424 381 420 392 c 0
 415 405 366 409 361 409 c 1
 355 418 357 437 359 443 c 1
 388 441 420 437 452 437 c 0
 485 437 506 441 539 443 c 1
 544 435 541 410 539 410 c 0
 531 410 485 406 480 394 c 0
 475 384 472 352 472 328 c 0
 472 244 472 176 472 91 c 0
EndSplineSet
EndChar

StartChar: o.sc
Encoding: 65577 -1 487
Width: 594
VWidth: 0
Flags: W
HStem: -9 37<254 360> 411 37<235 337>
VStem: 38 146<131 308> 411 146<131 308>
LayerCount: 2
Fore
SplineSet
282 411 m 3
 208 411 184 319 184 242 c 3
 184 144 217 28 311 28 c 3
 386 28 411 119 411 196 c 3
 411 294 376 411 282 411 c 3
298 448 m 0
 432 448 557 346 557 220 c 0
 557 94 432 -9 298 -9 c 0
 164 -9 38 94 38 220 c 0
 38 346 164 448 298 448 c 0
EndSplineSet
EndChar

StartChar: p.sc
Encoding: 65578 -1 488
Width: 491
VWidth: 0
Flags: W
HStem: -4 36<42 90 225 279> 184 46<243 314> 405 36<42 90 226 303>
VStem: 96 127<45 394> 334 135<252 377>
LayerCount: 2
Fore
SplineSet
162 438 m 0
 195 438 238 441 285 441 c 0
 385 441 469 397 469 318 c 0
 469 235 385 184 301 184 c 0
 271 184 250 197 244 203 c 0
 238 208 235 231 241 231 c 1
 249 230 259 229 271 229 c 0
 308 229 334 263 334 311 c 0
 334 360 305 405 260 405 c 0
 244 405 229 404 226 397 c 0
 223 389 223 377 223 358 c 2
 223 104 l 2
 223 77 223 57 226 44 c 0
 228 35 271 33 277 32 c 1
 282 26 281 2 277 -4 c 1
 249 -1 180 2 150 2 c 0
 120 2 72 -1 44 -4 c 1
 40 2 39 26 44 32 c 1
 53 33 87 35 90 44 c 0
 96 57 96 77 96 104 c 2
 96 334 l 2
 96 361 96 382 90 395 c 0
 87 404 53 404 44 405 c 1
 39 411 40 435 44 441 c 1
 80 438 129 438 162 438 c 0
EndSplineSet
EndChar

StartChar: q.sc
Encoding: 65579 -1 489
Width: 594
VWidth: 0
Flags: W
HStem: -96 58<437 547> 411 37<235 337>
VStem: 38 146<132 308> 411 146<133 308>
LayerCount: 2
Fore
SplineSet
456 -96 m 0
 381 -96 245 -18 167 24 c 0
 92 64 38 137 38 220 c 0
 38 346 164 448 298 448 c 0
 432 448 557 346 557 220 c 0
 557 126 487 45 396 10 c 1
 432 -13 461 -38 530 -38 c 0
 564 -38 590 -25 596 -25 c 0
 603 -25 604 -33 604 -42 c 2
 604 -44 l 1
 563 -70 502 -96 456 -96 c 0
282 411 m 0
 208 411 184 319 184 242 c 0
 184 144 217 28 311 28 c 0
 386 28 411 119 411 196 c 0
 411 294 376 411 282 411 c 0
EndSplineSet
EndChar

StartChar: r.sc
Encoding: 65580 -1 490
Width: 566
VWidth: 0
Flags: W
HStem: -3 33<43 90 226 277 518 579> 194 35<223 253> 405 36<42 90 226 304>
VStem: 96 127<43 194 229 394> 327 135<264 383>
LayerCount: 2
Fore
SplineSet
286 441 m 0
 387 441 461 399 461 318 c 0
 461 262 396 218 353 210 c 1
 414 145 467 86 467 86 c 1
 517 32 573 30 579 30 c 1
 584 24 580 -1 579 -3 c 1
 558 -5 511 -7 481 -7 c 0
 423 -7 387 21 368 43 c 0
 247 185 l 0
 247 185 240 194 234 194 c 0
 223 194 l 9
 223 101 l 2
 223 74 222 55 226 42 c 0
 228 34 270 31 276 30 c 1
 281 24 280 2 276 -3 c 1
 248 1 182 3 151 3 c 0
 120 3 72 1 44 -3 c 1
 40 2 39 24 44 30 c 1
 53 31 87 33 90 42 c 0
 96 55 96 76 96 103 c 2
 96 334 l 2
 96 361 96 382 90 395 c 0
 87 404 53 404 44 405 c 1
 39 411 40 435 44 441 c 1
 80 438 129 438 162 438 c 0
 195 438 239 441 286 441 c 0
327 311 m 0
 327 360 314 405 259 405 c 0
 243 405 229 404 226 397 c 0
 223 389 223 378 223 359 c 2
 223 229 l 17
 254 229 l 0
 292 229 327 263 327 311 c 0
EndSplineSet
EndChar

StartChar: s.sc
Encoding: 65581 -1 491
Width: 416
VWidth: 0
Flags: W
HStem: -9 38<139 244> 410 38<183 273>
VStem: 43 38<88 135> 50 121<310 386> 260 119<52 139>
LayerCount: 2
Fore
SplineSet
193 29 m 0xe8
 228 29 260 46 260 93 c 0
 260 140 190 178 154 200 c 0
 102 232 50 261 50 329 c 0
 50 396 134 448 212 448 c 0
 257 448 293 435 339 423 c 1
 344 391 346 358 349 321 c 1
 346 319 343 317 339 317 c 0
 336 317 314 314 312 321 c 0
 307 354 277 410 227 410 c 0
 202 410 171 398 171 354 c 0xd8
 171 313 231 275 274 248 c 0
 321 219 379 190 379 112 c 0
 379 40 297 -9 212 -9 c 0
 167 -9 111 2 65 15 c 1
 55 44 45 109 43 128 c 1
 47 132 64 137 69 137 c 0
 75 137 80 135 81 131 c 0
 87 97 131 29 193 29 c 0xe8
EndSplineSet
EndChar

StartChar: t.sc
Encoding: 65582 -1 492
Width: 515
Flags: W
HStem: -4 33<138 193 331 386> 399 40<78 199 326 442>
VStem: 15 35<324 361> 199 127<42 399> 466 35<324 362>
LayerCount: 2
Fore
SplineSet
395 439 m 0
 446 439 456 452 469 452 c 0
 475 452 474 451 477 450 c 1
 501 327 l 1
 498 325 484 323 476 323 c 0
 471 323 467 324 466 326 c 0
 460 364 433 399 403 399 c 2
 326 399 l 1
 326 101 l 2
 326 74 327 54 331 41 c 0
 334 33 377 30 384 29 c 1
 389 23 388 2 384 -4 c 1
 354 0 285 2 253 2 c 0
 221 2 171 0 141 -4 c 1
 137 2 136 23 141 29 c 1
 151 30 189 33 193 41 c 0
 199 54 199 74 199 101 c 2
 199 399 l 1
 122 399 l 2
 88 399 57 364 50 326 c 0
 49 324 46 323 41 323 c 0
 33 323 18 325 15 327 c 1
 40 450 l 1
 43 451 42 452 48 452 c 0
 61 452 71 439 122 439 c 0
 185 439 332 439 395 439 c 0
EndSplineSet
EndChar

StartChar: u.sc
Encoding: 65583 -1 493
Width: 558
VWidth: 0
Flags: W
HStem: -9 65<252 363> 410 33<26 73 210 253 367 426 486 544>
VStem: 79 127<105 398> 432 48<114 404>
LayerCount: 2
Fore
SplineSet
480 319 m 2
 480 198 l 2
 480 63 371 -9 268 -9 c 0
 208 -9 152 14 120 55 c 0
 95 87 79 133 79 242 c 2
 79 336 l 2
 79 364 79 384 74 398 c 0
 71 407 38 409 29 410 c 1
 24 416 25 437 29 443 c 1
 58 439 109 438 140 438 c 0
 171 438 221 439 250 443 c 1
 254 437 255 416 250 410 c 1
 243 409 213 406 210 398 c 0
 205 385 206 367 206 340 c 2
 206 225 l 2
 206 182 206 150 221 117 c 0
 245 62 298 57 330 57 c 0
 377 57 432 104 432 202 c 2
 432 318 l 2
 432 352 429 383 425 396 c 0
 421 408 377 409 370 410 c 1
 365 416 366 437 370 443 c 1
 402 439 428 438 459 438 c 0
 489 438 514 441 541 443 c 1
 545 437 546 416 541 410 c 1
 532 409 493 409 487 395 c 0
 482 381 480 347 480 319 c 2
EndSplineSet
EndChar

StartChar: v.sc
Encoding: 65584 -1 494
Width: 493
VWidth: 0
Flags: W
HStem: -7 21G<245 252> 407 36<3 51 185 231 323 376 433 488>
LayerCount: 2
Fore
SplineSet
376 392 m 0
 376 404 335 406 326 407 c 1
 321 413 321 437 325 443 c 1
 356 439 377 438 408 438 c 0
 437 438 459 441 486 443 c 1
 490 437 492 413 487 407 c 1
 478 406 441 405 433 394 c 0
 423 380 421 364 411 343 c 0
 356 210 330 140 278 18 c 0
 273 6 256 -7 248 -7 c 0
 242 -7 239 -3 236 4 c 1
 77 332 l 2
 68 351 59 373 53 386 c 0
 45 403 14 406 5 407 c 1
 0 413 1 437 5 443 c 1
 31 439 75 438 103 438 c 0
 131 438 203 439 229 443 c 1
 233 437 234 413 229 407 c 1
 220 406 185 407 185 390 c 0
 185 379 193 360 202 341 c 0
 244 254 289 167 289 167 c 1
 289 167 354 323 361 342 c 0
 367 359 376 378 376 392 c 0
EndSplineSet
EndChar

StartChar: w.sc
Encoding: 65585 -1 495
Width: 661
VWidth: 0
Flags: W
HStem: -9 20G<227 234 436 443> 407 36<1 49 178 225 484 538 604 657>
LayerCount: 2
Fore
SplineSet
4 407 m 1
 -2 413 0 437 4 443 c 1
 30 439 73 438 101 438 c 0
 129 438 196 439 222 443 c 1
 226 437 227 413 222 407 c 1
 213 406 178 407 178 390 c 0
 178 379 184 362 193 343 c 0
 215 296 262 195 262 195 c 1
 262 195 320 369 336 413 c 0
 341 426 355 443 363 443 c 0
 366 443 372 442 374 438 c 0
 419 325 476 189 476 189 c 1
 476 189 518 321 525 342 c 0
 530 359 538 378 538 392 c 0
 538 404 495 406 486 407 c 1
 481 413 482 437 486 443 c 1
 517 439 544 438 575 438 c 0
 604 438 628 441 655 443 c 1
 659 437 660 413 655 407 c 1
 646 406 611 407 603 396 c 0
 593 382 587 365 579 342 c 0
 541 227 505 132 470 29 c 0
 464 12 447 -10 439 -10 c 0
 433 -10 430 -3 427 4 c 1
 329 237 l 1
 329 237 291 123 260 33 c 0
 257 26 238 -9 230 -9 c 0
 224 -9 217 -3 214 4 c 1
 71 336 l 2
 62 356 58 373 52 386 c 0
 44 403 13 406 4 407 c 1
EndSplineSet
EndChar

StartChar: x.sc
Encoding: 65586 -1 496
Width: 556
VWidth: 0
Flags: W
HStem: -4 37<12 78 146 201 273 323 470 539> 407 36<33 87 238 273 347 392 470 529>
LayerCount: 2
Fore
SplineSet
164 438 m 0
 197 438 246 441 272 443 c 1
 274 437 275 407 270 407 c 1
 260 407 239 404 238 394 c 0
 238 390 241 382 244 378 c 2
 307 282 l 1
 340 325 392 371 392 387 c 0
 392 399 371 407 349 407 c 1
 344 407 344 438 349 443 c 1
 372 439 419 438 443 438 c 0
 478 438 507 439 527 443 c 1
 530 437 531 407 526 407 c 1
 521 407 473 401 444 368 c 2
 333 245 l 1
 390 166 451 71 461 60 c 0
 481 39 527 33 537 33 c 1
 541 25 542 4 537 -4 c 1
 511 -2 442 2 415 2 c 0
 378 2 312 -2 275 -4 c 1
 270 1 271 33 276 33 c 0
 284 33 323 39 323 51 c 0
 323 53 322 56 321 58 c 2
 244 170 l 1
 232 155 146 65 146 54 c 0
 146 39 177 33 198 33 c 1
 203 26 203 6 200 -4 c 1
 178 -2 133 2 109 2 c 0
 74 2 40 -2 14 -4 c 1
 9 2 9 26 14 33 c 1
 19 33 76 41 97 66 c 2
 218 208 l 1
 124 350 l 2
 112 368 98 390 88 397 c 0
 78 404 44 407 36 407 c 1
 31 407 31 438 36 443 c 1
 69 441 131 438 164 438 c 0
EndSplineSet
EndChar

StartChar: y.sc
Encoding: 65587 -1 497
Width: 500
Flags: W
HStem: -4 37<123 180 320 376> 407 36<9 58 209 247 320 363 440 499>
VStem: 188 127<46 227>
LayerCount: 2
Fore
SplineSet
322 250 m 0
 318 246 315 239 315 227 c 2
 315 104 l 2
 315 77 315 58 320 45 c 0
 323 36 365 34 374 33 c 1
 379 26 378 2 374 -4 c 1
 341 0 277 3 242 3 c 0
 207 3 158 0 125 -4 c 1
 121 2 120 26 125 33 c 1
 137 34 175 36 180 45 c 0
 187 58 188 77 188 104 c 2
 188 180 l 2
 188 190 187 194 182 202 c 0
 150 257 94 350 94 350 c 2
 83 368 68 390 58 397 c 0
 48 404 19 407 11 407 c 1
 6 407 6 438 11 443 c 1
 44 441 102 438 135 438 c 0
 168 438 220 441 246 443 c 1
 248 437 249 407 244 407 c 1
 234 407 210 404 209 394 c 0
 209 390 213 382 215 378 c 2
 278 268 l 1
 312 309 363 371 363 387 c 0
 363 399 344 407 322 407 c 1
 317 407 317 438 322 443 c 1
 345 439 390 438 414 438 c 0
 449 438 478 439 498 443 c 1
 501 437 502 407 497 407 c 1
 492 407 443 403 415 368 c 2
 322 250 l 0
EndSplineSet
EndChar

StartChar: z.sc
Encoding: 65588 -1 498
Width: 489
VWidth: 0
Flags: W
HStem: 0 43<185 389> 396 42<108 291>
LayerCount: 2
Fore
SplineSet
421 1 m 1
 393 1 46 0 46 0 c 1
 42 2 33 13 33 22 c 0
 33 24 33 25 35 28 c 2
 291 396 l 1
 172 396 l 0
 101 395 91 352 75 316 c 0
 74 314 69 313 62 313 c 0
 54 313 45 314 43 316 c 1
 51 355 60 400 67 443 c 1
 78 439 166 438 176 438 c 2
 248 438 l 2
 305 438 381 441 438 447 c 1
 441 446 444 426 444 416 c 1
 443 411 185 43 185 43 c 17
 325 43 l 2
 350 43 373 50 389 64 c 0
 403 77 412 90 424 117 c 0
 425 119 433 121 438 121 c 0
 445 121 455 119 457 117 c 1
 446 81 427 30 421 1 c 1
EndSplineSet
EndChar

StartChar: bar.sc
Encoding: 65594 -1 504
Width: 191
VWidth: 0
Flags: W
VStem: 75 42<-50 477>
LayerCount: 2
Fore
SplineSet
117 -43 m 2
 117 -48 80 -52 78 -52 c 0
 72 -52 75 -49 75 -47 c 2
 75 473 l 1
 75 473 73 477 78 478 c 0
 92 481 108 480 110 480 c 0
 117 480 117 477 117 477 c 1
 117 -43 l 2
EndSplineSet
EndChar

StartChar: eth.sc
Encoding: 65614 -1 524
Width: 618
VWidth: 0
Flags: W
HStem: -3 36<45 93 231 358> 198 36<27 316> 405 36<45 93 229 342>
VStem: 99 127<48 394> 433 145<128 316>
LayerCount: 2
Fore
SplineSet
314 198 m 1
 286 198 43 198 29 198 c 1
 25 198 24 225 30 234 c 1
 58 234 300 234 314 234 c 1
 318 234 318 207 314 198 c 1
EndSplineSet
Refer: 476 -1 N 1 0 0 1 3 0 2
EndChar

StartChar: oslash.sc
Encoding: 65622 -1 532
Width: 594
VWidth: 0
Flags: W
HStem: -9 37<254 360> 411 37<235 337>
VStem: 38 146<131 308> 411 146<131 308>
LayerCount: 2
Fore
SplineSet
429 449 m 17
 436 445 460 433 457 426 c 9
 123 6 l 17
 116 10 92 22 95 29 c 9
 429 449 l 17
EndSplineSet
Refer: 487 -1 N 1 0 0 1 0 0 2
EndChar

StartChar: thorn.sc
Encoding: 65628 -1 538
Width: 493
Flags: W
HStem: -4 36<42 90 226 276> 2 135<135 255> 89 46<243 314> 311 36<228 303> 311 28<226 284> 405 36<42 90 228 276>
VStem: 96 127<45 310 339 394> 334 135<157 282>
LayerCount: 2
Fore
SplineSet
223 348 m 0x87
 223 345 225 339 229 339 c 0x8f
 234 339 272 347 285 347 c 0
 385 347 469 303 469 224 c 0
 469 141 385 89 301 89 c 0x37
 271 89 250 102 244 108 c 0
 238 113 235 137 241 137 c 1x47
 249 136 259 135 271 135 c 0
 308 135 334 168 334 216 c 0
 334 265 305 311 260 311 c 0
 244 311 229 310 226 303 c 0
 223 295 223 283 223 264 c 2
 223 104 l 2
 223 77 223 57 226 44 c 0
 228 35 268 33 274 32 c 1
 279 26 278 2 274 -4 c 1xb7
 246 -1 180 2 150 2 c 0x47
 120 2 72 -1 44 -4 c 1
 40 2 39 26 44 32 c 1
 53 33 87 35 90 44 c 0
 96 57 96 77 96 104 c 2
 96 334 l 2
 96 361 96 382 90 395 c 0
 87 404 53 404 44 405 c 1
 39 411 40 435 44 441 c 1
 80 438 128 439 160 438 c 0
 193 438 243 439 274 443 c 1
 278 437 279 413 274 407 c 1
 265 406 231 405 228 396 c 0
 222 383 223 353 223 348 c 0x87
EndSplineSet
EndChar

